<svg width="40" height="40" viewBox="0 0 40 40" fill="none" xmlns="http://www.w3.org/2000/svg">
<rect width="40" height="40" rx="20" fill="#FFF1E8"/>
<path fill-rule="evenodd" clip-rule="evenodd" d="M25 29C23.8954 29 23 28.1046 23 27V23C23 21.8954 23.8954 21 25 21H27V20C27 16.134 23.866 13 20 13C16.134 13 13 16.134 13 20V21H15C16.1046 21 17 21.8954 17 23V27C17 28.1046 16.1046 29 15 29H11V20C11 15.0294 15.0294 11 20 11C24.9706 11 29 15.0294 29 20V29H25ZM27 23H25V27H27V23ZM15 23H13V27H15V23Z" fill="#F78324"/>
</svg>
