<svg id="Capa_1" data-name="Capa 1" xmlns="http://www.w3.org/2000/svg" width="152.5485" height="30.9111" viewBox="0 0 152.5485 30.9111"><g id="Group_164194" data-name="Group 164194"><g id="Group_164193" data-name="Group 164193"><path id="Path_43" data-name="Path 43" d="M148.89,7.873h-.732V7.58h1.829v.293h-.729V9.922h-.366Z" transform="translate(-0.0726 0.0001)" style="fill:#4b5563"/><path id="Path_44" data-name="Path 44" d="M151.3051,9.922l-.659-1.976V9.922h-.365V7.58h.585l.585,1.9.585-1.9h.585V9.922h-.293V7.946l-.659,1.976Z" transform="translate(-0.0726 0.0001)" style="fill:#4b5563"/><path id="Path_45" data-name="Path 45" d="M15.5118,1.756a1.39,1.39,0,1,1,0,2.781h-.073a1.36,1.36,0,0,1-1.317-1.317,1.7479,1.7479,0,0,1,.366-1.02,1.3292,1.3292,0,0,1,1.024-.439m0-1.756a3.148,3.148,0,0,0-.145,6.288h.146A3.123,3.123,0,0,0,18.66,3.1942c0-.0161,0-.0321,0-.0482A3.123,3.123,0,0,0,15.56,0c-.0161,0-.0321,0-.0482,0Z" transform="translate(-0.0726 0.0001)" style="fill:#4b5563"/><path id="Path_46" data-name="Path 46" d="M13.3912,21.984a3.22,3.22,0,0,1,.1134,6.439q-.0567.0011-.1134,0H9.9522a3.22,3.22,0,1,1-.1135-6.439c.0378-.0007.0757-.0007.1135,0h3.439m0-2.122H9.9522a5.269,5.269,0,0,0,0,10.537h3.439a5.269,5.269,0,0,0,0-10.537Z" transform="translate(-0.0726 0.0001)" style="fill:#4b5563"/><path id="Path_47" data-name="Path 47" d="M13.391,9.688a3.22,3.22,0,1,1,.1135,6.439c-.0378.0007-.0757.0007-.1135,0H5.269a3.22,3.22,0,0,1-.1135-6.439c.0378-.0007.0757-.0007.1135,0h8.122m0-2.122H5.269a5.269,5.269,0,0,0,0,10.537h8.122a5.269,5.269,0,0,0,0-10.537Z" transform="translate(-0.0726 0.0001)" style="fill:#4b5563"/><path id="Path_48" data-name="Path 48" d="M46.2992,30.472V7.495h12.952V9.763h-10.61v7.976h9.513v2.2h-9.513v8.269h10.61v2.268Z" transform="translate(-0.0726 0.0001)" style="fill:#4b5563"/><path id="Path_49" data-name="Path 49" d="M84.2759,30.472V7.495h12.952V9.763h-10.61v7.976h9.513v2.2h-9.513v8.269h10.61v2.268Z" transform="translate(-0.0726 0.0001)" style="fill:#4b5563"/><path id="Path_50" data-name="Path 50" d="M122.9131,30.472V20.959l-7.757-13.464h2.634l6.293,11.049,6.293-11.049h2.561l-7.681,13.464v9.513Z" transform="translate(-0.0726 0.0001)" style="fill:#4b5563"/><path id="Path_51" data-name="Path 51" d="M79.5938,30.472V7.495h-2.268V26.228L65.9838,7.495h-2.342V30.472h2.342V11.739l11.342,18.733Z" transform="translate(-0.0726 0.0001)" style="fill:#4b5563"/><path id="Path_52" data-name="Path 52" d="M34.2262,20.593h5.488v1.829c0,4.464-2.854,6.073-5.488,6.073s-5.488-1.61-5.488-6.073V15.544c0-4.464,2.854-6.073,5.488-6.073a5.2149,5.2149,0,0,1,5.415,4.683h2.268a7.4379,7.4379,0,0,0-7.683-6.952c-4.684,0-7.757,3.366-7.757,8.342v6.878c0,4.976,3.147,8.342,7.757,8.342,4.683,0,7.757-3.366,7.757-8.342v-4.1h-7.757Z" transform="translate(-0.0726 0.0001)" style="fill:#4b5563"/><path id="Path_53" data-name="Path 53" d="M102.356,23.52a4.9631,4.9631,0,0,0,4.9475,4.9785q.0873,0,.1745-.0025c2.927,0,4.464-1.39,4.464-4.025a3.823,3.823,0,0,0-3.1459-3.805l-3.8781-1.024a5.9671,5.9671,0,0,1-4.537-6.147c0-3.732,2.634-6.22,6.586-6.22,4.537,0,6.513,3.147,6.952,6.293h-2.268c-.512-2.634-2.2-4.025-4.61-4.025-2.634,0-4.317,1.537-4.317,3.951a3.868,3.868,0,0,0,3,3.951l4.025,1.1a6.0619,6.0619,0,0,1,4.61,6.073c0,3.878-2.634,6.293-6.805,6.293-5.2,0-7.317-3.951-7.391-7.244Z" transform="translate(-0.0726 0.0001)" style="fill:#4b5563"/><path id="Path_54" data-name="Path 54" d="M136.2361,23.52a4.963,4.963,0,0,0,4.9475,4.9785q.0873,0,.1745-.0025c2.927,0,4.464-1.39,4.464-4.025a3.823,3.823,0,0,0-3.147-3.805l-3.878-1.024a5.967,5.967,0,0,1-4.537-6.147c0-3.732,2.634-6.22,6.586-6.22,4.537,0,6.513,3.147,6.952,6.293H145.53c-.512-2.634-2.2-4.025-4.61-4.025-2.634,0-4.317,1.537-4.317,3.951a3.868,3.868,0,0,0,3,3.951l4.025,1.1a6.062,6.062,0,0,1,4.61,6.073c0,3.878-2.634,6.293-6.805,6.293-5.2,0-7.317-3.951-7.391-7.244Z" transform="translate(-0.0726 0.0001)" style="fill:#4b5563"/></g></g></svg>