<svg id="Capa_1" data-name="Capa 1" xmlns="http://www.w3.org/2000/svg" xmlns:xlink="http://www.w3.org/1999/xlink" width="267.0503mm" height="53.8949mm" viewBox="0 0 756.9929 152.7729"><defs><clipPath id="clip-path" transform="translate(-11.4263 22.1759)"><path d="M87.8644,57.1605s26.3913,26.474,22.2082,43.5593c0,0,2.8559-1.7132,6.5057-4.1427.2815-.19.57-.3825.8582-.5772a10.46,10.46,0,0,1,3.8581-3.1041c.3821-.2156.778-.4335,1.183-.6653.7758-.6538,1.5126-1.3237,2.254-1.94.0687-.0556.14-.1136.2037-.1692a47.1247,47.1247,0,0,0,4.2586-3.1342.3482.3482,0,0,0,.0412-.0394c1.691-1.7086,2.746-3.3823,2.746-4.5345C131.9811,77.9874,118.7294,63.8393,87.8644,57.1605Z" style="fill:none"/></clipPath><linearGradient id="Degradado_sin_nombre_2" x1="2.0368" y1="387.472" x2="4.3251" y2="387.472" gradientTransform="matrix(19.2791, 0, 0, -19.2791, 37.1699, 7571.235)" gradientUnits="userSpaceOnUse"><stop offset="0" stop-color="#939598"/><stop offset="0.4765" stop-color="#797b7d"/><stop offset="1" stop-color="#58595b"/></linearGradient><clipPath id="clip-path-2" transform="translate(-11.4263 22.1759)"><path d="M54.6837,20.0064A55.0556,55.0556,0,0,0,44.19,21.4414a31.72,31.72,0,0,0-7.6362,3.2269c-.3341.2017-.6659.4173-.9931.6375A16.7094,16.7094,0,0,0,32.7318,27.77a4.9931,4.9931,0,0,0-1.016,2.6683c-.135,9.4328,13.8375,30.3733,13.8375,30.3733C45.1666,30.596,114.798,37.2354,114.798,37.2354,88.4136,23.8917,69.6013,19.9762,56.6059,19.9762q-.9817,0-1.9222.03" style="fill:#313842"/></clipPath><clipPath id="clip-path-3" transform="translate(-11.4263 22.1759)"><path d="M31.686,31.8594c4.2083,60.2343,27.51,89.889,34.6361,93.8763,8.6934,4.8613,62.8718-38.749,62.8718-38.749-56.9656,9.88-95.6086-51.5781-97.2447-57.6889a7.2148,7.2148,0,0,0-.2632,2.5616" style="fill:#4b5563"/></clipPath></defs><path d="M195.1974,35.225H164.4721v28.89h30.7253V52.48H179.3027V47.3957h22.4324V60.2618c0,3.6489-.643,6.1224-1.9382,7.4368Q197.861,69.66,192.5361,69.66h-25.4q-5.3238,0-7.2632-1.9613c-1.2929-1.3144-1.9405-3.7879-1.9405-7.4368V39.3074q0-5.47,1.9405-7.4368,1.9393-1.9613,7.2632-1.9636h25.4q5.1693,0,7.1853,1.8616,2.0184,1.86,2.0137,7.001v.9992l-6.5377-.014Z" transform="translate(-11.4263 22.1759)" style="fill:#4b5563"/><path d="M248.6557,35.0709h-22.51V49.015h22.51a4.9862,4.9862,0,0,0,3.3089-.8462q.9507-.8484.9519-3.2362V39.1533a4.2878,4.2878,0,0,0-.9519-3.1969,4.8294,4.8294,0,0,0-3.3089-.8855m-29.048,34.59V29.9082h31.5766q4.3248,0,6.3,1.8129,1.9737,1.8047,1.9725,5.8929v8.8579q0,4.0859-1.9725,5.8929-1.9771,1.8083-6.3,1.81h-5.7689L263.3627,69.661h-9.7345L237.6763,54.1753H226.1454V69.661Z" transform="translate(-11.4263 22.1759)" style="fill:#4b5563"/><path d="M283.1082,54.7943h21.14l-10.57-20.3377ZM268.8863,69.661l21.4416-39.7528h6.9977l21.826,39.7528H311.93l-5.0183-9.7852H280.3668l-5.016,9.7852Z" transform="translate(-11.4263 22.1759)" style="fill:#4b5563"/><path d="M330.8635,69.661V29.9082h4.1076L364.33,56.4889a37.4465,37.4465,0,0,1,4.49,5.0074,61.614,61.614,0,0,1-.6179-9.7876v-21.8h6.0824V69.661h-3.6476L340.4447,42.0023q-1.6716-1.54-1.9016-1.7711a12.8575,12.8575,0,0,1-2.0526-2.696,69.33,69.33,0,0,1,.4577,8.7049V69.661Z" transform="translate(-11.4263 22.1759)" style="fill:#4b5563"/><path d="M414.2874,35.2257H400.141v28.89h14.1464q9.127,0,13.0778-3.09,4.3351-3.3208,4.3364-11.5077,0-7.8831-4.3364-11.2039-4.03-3.0914-13.0778-3.0879m.913-5.318q10.3387,0,15.0549,3.081a16.8366,16.8366,0,0,1,5.9726,6.86,21.6292,21.6292,0,0,1,2.167,9.704q0,11.6352-8.14,17.0273-4.6338,3.081-15.0549,3.081H393.6009V29.9077Z" transform="translate(-11.4263 22.1759)" style="fill:#4b5563"/><path d="M487.5216,35.225H459.7665V46.3942H484.48q5.32,0,7.2242,2.0053,1.8982,2.0029,1.9016,7.3951v4.4672c0,3.6489-.6361,6.1224-1.9016,7.4368Q489.8031,69.66,484.48,69.66H461.588q-5.32,0-7.2609-1.9613c-1.2929-1.3144-1.9382-3.7879-1.9382-7.4368v-1.08l6.0847.0162v4.917h29.199V52.1735H463.0342q-5.2448,0-7.1876-1.9658-1.9326-1.9613-1.9382-7.4322V39.3074q0-5.5463,1.9382-7.4716,1.9393-1.923,7.1876-1.9288h20.913q5.0184,0,7.11,1.8222,2.09,1.8291,2.0892,6.8063v.8484l-5.6247-.0162Z" transform="translate(-11.4263 22.1759)" style="fill:#4b5563"/><polygon points="516.248 57.476 516.248 91.837 509.708 91.837 509.708 57.476 491.759 57.476 491.759 52.084 534.269 52.084 534.269 57.476 516.248 57.476" style="fill:#4b5563"/><path d="M584.7822,35.0709H562.2743V49.015h22.5079a5.0061,5.0061,0,0,0,3.3113-.8462c.6316-.5656.9519-1.6459.9519-3.2362V39.1533a4.2972,4.2972,0,0,0-.9519-3.1969,4.8485,4.8485,0,0,0-3.3113-.8855m-29.05,34.59V29.9082h31.5789q4.325,0,6.3,1.8129,1.97,1.8047,1.9725,5.8929v8.8579q0,4.0859-1.9725,5.8929-1.9771,1.8083-6.3,1.81H581.542L599.487,69.661h-9.7322l-15.952-15.4857H562.2743V69.661Z" transform="translate(-11.4263 22.1759)" style="fill:#4b5563"/><polygon points="601.268 91.837 601.268 52.084 639.062 52.084 639.062 57.402 607.808 57.402 607.808 68.492 626.893 68.492 626.893 73.732 607.808 73.732 607.808 86.368 639.371 86.368 639.371 91.837 601.268 91.837" style="fill:#4b5563"/><path d="M671.9357,54.7943h21.14l-10.57-20.3377ZM657.7137,69.661,679.16,29.9082h6.9954l21.826,39.7528h-7.2265l-5.0206-9.7852h-26.54l-5.0184,9.7852Z" transform="translate(-11.4263 22.1759)" style="fill:#4b5563"/><path d="M724.9392,36.9959a46.6333,46.6333,0,0,1,.3,5.8558v26.81h-5.547V29.9068h5.3227L744.104,55.7943l17.7894-25.8875H767.98V69.6619h-6.0869v-26.81l.3089-5.8558A30.5474,30.5474,0,0,1,759.843,41.31L744.8614,63.419h-1.67l-15.59-21.4945a34.0432,34.0432,0,0,1-2.6613-4.9286" transform="translate(-11.4263 22.1759)" style="fill:#4b5563"/><path d="M170.6684,103.0858H160.6615v10.986h10.0069v-3.2524h2.405v1.79a4.2113,4.2113,0,0,1-.6979,2.8375,3.65,3.65,0,0,1-2.6568.7349h-8.08a3.698,3.698,0,0,1-2.6682-.7442,4.1879,4.1879,0,0,1-.7117-2.8282v-7.97a4.1725,4.1725,0,0,1,.7117-2.8259,3.6655,3.6655,0,0,1,2.6682-.7465h8.08a3.6873,3.6873,0,0,1,2.6568.7233,4.15,4.15,0,0,1,.6979,2.8166v1.44h-2.405Z" transform="translate(-11.4263 22.1759)" style="fill:#4b5563"/><path d="M193.2008,114.0727H205.139v-10.986H193.2008Zm-2.4027-9.4328a4.15,4.15,0,0,1,.714-2.8259,3.6665,3.6665,0,0,1,2.6727-.7488h9.9977a3.6134,3.6134,0,0,1,2.659.7488,4.21,4.21,0,0,1,.7,2.8259v7.9677a4.23,4.23,0,0,1-.7,2.8283,3.6352,3.6352,0,0,1-2.659.7464h-9.9977a3.6887,3.6887,0,0,1-2.6727-.7464,4.17,4.17,0,0,1-.714-2.8283Z" transform="translate(-11.4263 22.1759)" style="fill:#4b5563"/><path d="M226.4113,116.1812V101.0664h1.5126l10.7894,10.1074a13.6088,13.6088,0,0,1,1.6522,1.901,24.0943,24.0943,0,0,1-.2265-3.7208v-8.2876h2.2357v15.1148h-1.341L229.933,105.6657c-.41-.3918-.643-.6143-.6979-.6792a4.9233,4.9233,0,0,1-.7551-1.02,27.8575,27.8575,0,0,1,.1693,3.31v8.9043Z" transform="translate(-11.4263 22.1759)" style="fill:#4b5563"/><path d="M261.4124,116.1812V101.0664h1.51l10.7917,10.1074a13.7612,13.7612,0,0,1,1.65,1.901,24.0923,24.0923,0,0,1-.2266-3.7208v-8.2876h2.2357v15.1148h-1.3409l-11.0984-10.5155c-.41-.3918-.6407-.6143-.6979-.6792a4.7569,4.7569,0,0,1-.7529-1.02,27.43,27.43,0,0,1,.1671,3.31v8.9043Z" transform="translate(-11.4263 22.1759)" style="fill:#4b5563"/><polygon points="284.986 123.242 284.986 138.357 298.993 138.357 298.993 136.279 287.391 136.279 287.391 131.472 294.407 131.472 294.407 129.482 287.391 129.482 287.391 125.261 298.88 125.261 298.88 123.242 284.986 123.242" style="fill:#4b5563"/><path d="M339.9381,103.0858H329.9289v10.986h10.0092v-3.2524h2.405v1.79a4.1824,4.1824,0,0,1-.7025,2.8375,3.63,3.63,0,0,1-2.6522.7349h-8.08a3.6908,3.6908,0,0,1-2.6682-.7442,4.1715,4.1715,0,0,1-.7185-2.8282v-7.97a4.1562,4.1562,0,0,1,.7185-2.8259,3.6584,3.6584,0,0,1,2.6682-.7465h8.08a3.6667,3.6667,0,0,1,2.6522.7233,4.1215,4.1215,0,0,1,.7025,2.8166v1.44h-2.405Z" transform="translate(-11.4263 22.1759)" style="fill:#4b5563"/><polygon points="345.424 123.242 345.424 125.291 352.023 125.291 352.023 138.357 354.424 138.357 354.424 125.291 361.051 125.291 361.051 123.242 345.424 123.242" style="fill:#4b5563"/><rect x="376.6801" y="123.2434" width="2.3982" height="15.1148" style="fill:#4b5563"/><path d="M409.573,116.1812V101.0664h1.5126l10.7872,10.1074a13.4594,13.4594,0,0,1,1.6521,1.901,24.3863,24.3863,0,0,1-.2266-3.7208v-8.2876h2.24v15.1148h-1.3432L413.097,105.6657c-.41-.3918-.643-.6143-.7-.6792a4.8462,4.8462,0,0,1-.7552-1.02,27.8338,27.8338,0,0,1,.1694,3.31v8.9043Z" transform="translate(-11.4263 22.1759)" style="fill:#4b5563"/><path d="M458.0743,103.0858H446.7814v10.986h11.2929v-4.4231h-5.8421v-1.9334h8.2471v4.8937a4.1879,4.1879,0,0,1-.7117,2.8282,3.7045,3.7045,0,0,1-2.67.7442h-9.3387a3.6946,3.6946,0,0,1-2.6682-.7442,4.1753,4.1753,0,0,1-.7116-2.8282v-7.97a4.16,4.16,0,0,1,.7116-2.8259,3.6621,3.6621,0,0,1,2.6682-.7465h9.3387a3.8193,3.8193,0,0,1,2.6407.7071,3.6566,3.6566,0,0,1,.7414,2.6613v.38l-2.405-.007Z" transform="translate(-11.4263 22.1759)" style="fill:#4b5563"/><polygon points="486.177 123.242 486.177 125.291 492.775 125.291 492.775 138.357 495.18 138.357 495.18 125.291 501.804 125.291 501.804 123.242 486.177 123.242" style="fill:#4b5563"/><polygon points="531.209 123.242 531.209 129.422 519.836 129.422 519.836 123.242 517.431 123.242 517.431 138.357 519.836 138.357 519.836 131.502 531.209 131.502 531.209 138.357 533.614 138.357 533.614 123.242 531.209 123.242" style="fill:#4b5563"/><polygon points="552.681 123.242 552.681 138.357 566.686 138.357 566.686 136.279 555.086 136.279 555.086 131.472 562.1 131.472 562.1 129.482 555.086 129.482 555.086 125.261 566.571 125.261 566.571 123.242 552.681 123.242" style="fill:#4b5563"/><path d="M758.8121,103.0851h-5.1967v10.986h5.1967q3.3536,0,4.81-1.1753,1.5927-1.2588,1.5927-4.3745,0-2.994-1.5927-4.2586-1.4795-1.1752-4.81-1.1776m.3387-2.0192q3.8,0,5.5332,1.173a6.3584,6.3584,0,0,1,2.1968,2.6057,8.4972,8.4972,0,0,1,.794,3.6929q0,4.4232-2.9908,6.4725-1.706,1.1718-5.5332,1.1707H751.208V101.0659Z" transform="translate(-11.4263 22.1759)" style="fill:#4b5563"/><path d="M655.2963,114.0727h11.9382v-10.986H655.2963Zm-2.4027-9.4328a4.177,4.177,0,0,1,.7116-2.8259,3.6805,3.6805,0,0,1,2.675-.7488h9.9955a3.61,3.61,0,0,1,2.659.7488,4.2072,4.2072,0,0,1,.7048,2.8259v7.9677a4.2275,4.2275,0,0,1-.7048,2.8283,3.6318,3.6318,0,0,1-2.659.7464H656.28a3.703,3.703,0,0,1-2.675-.7464,4.1971,4.1971,0,0,1-.7116-2.8283Z" transform="translate(-11.4263 22.1759)" style="fill:#4b5563"/><path d="M699.188,103.0276h-8.2746v5.3041h8.2746a1.802,1.802,0,0,0,1.2174-.3246,1.6855,1.6855,0,0,0,.3478-1.2286v-2.1977a1.6988,1.6988,0,0,0-.3478-1.2171,1.75,1.75,0,0,0-1.2174-.3361m-10.68,13.1536V101.0664H700.11a3.2689,3.2689,0,0,1,2.3181.6885,2.96,2.96,0,0,1,.7254,2.2394v3.3707a2.9659,2.9659,0,0,1-.7254,2.2417,3.2857,3.2857,0,0,1-2.3135.6862h-2.119l6.5949,5.8883h-3.5766l-5.865-5.8883h-4.2357v5.8883Z" transform="translate(-11.4263 22.1759)" style="fill:#4b5563"/><polygon points="709.955 123.242 709.955 138.357 723.289 138.357 723.289 136.247 712.362 136.247 712.362 123.242 709.955 123.242" style="fill:#4b5563"/><polygon points="623.297 123.242 619.354 135.25 615.247 123.242 613.762 123.242 609.517 135.25 605.602 123.242 603.169 123.242 608.396 138.357 610.295 138.357 614.435 126.932 618.432 138.357 620.219 138.357 625.448 123.242 623.297 123.242" style="fill:#4b5563"/><line x1="146.5045" y1="107.7269" x2="756.8031" y2="107.7269" style="fill:#345990;stroke:#4b5563;stroke-miterlimit:10"/><line x1="146.5045" y1="107.7269" x2="756.8031" y2="107.7269" style="fill:none;stroke:#4b5563;stroke-miterlimit:10;stroke-width:0.056000001728535px"/><rect x="20.1544" y="42.1522" width="736.8384" height="110.6207" style="fill:none"/><g style="clip-path:url(#clip-path)"><rect x="76.4381" y="79.3364" width="44.1166" height="43.5593" style="fill:url(#Degradado_sin_nombre_2)"/></g><path d="M54.6837,20.0064A55.0556,55.0556,0,0,0,44.19,21.4414a31.72,31.72,0,0,0-7.6362,3.2269c-.3341.2017-.6659.4173-.9931.6375A16.7094,16.7094,0,0,0,32.7318,27.77a4.9931,4.9931,0,0,0-1.016,2.6683c-.135,9.4328,13.8375,30.3733,13.8375,30.3733C45.1666,30.596,114.798,37.2354,114.798,37.2354,88.4136,23.8917,69.6013,19.9762,56.6059,19.9762q-.9817,0-1.9222.03" transform="translate(-11.4263 22.1759)" style="fill:#313842"/><g style="clip-path:url(#clip-path-2)"><polygon points="0 62.57 61.763 0 123.526 62.57 61.763 125.14 0 62.57" style="fill:#313842"/></g><path d="M31.686,31.8594c4.2083,60.2343,27.51,89.889,34.6361,93.8763,8.6934,4.8613,62.8718-38.749,62.8718-38.749-56.9656,9.88-95.6086-51.5781-97.2447-57.6889a7.2148,7.2148,0,0,0-.2632,2.5616" transform="translate(-11.4263 22.1759)" style="fill:#4b5563"/><g style="clip-path:url(#clip-path-3)"><rect x="20.1933" y="51.4737" width="97.5742" height="101.2992" style="fill:#4b5563"/></g></svg>