<?xml version="1.0"?>
<svg xmlns="http://www.w3.org/2000/svg" xmlns:xlink="http://www.w3.org/1999/xlink" xmlns:svgjs="http://svgjs.com/svgjs" version="1.1" width="512" height="512" x="0" y="0" viewBox="0 0 512 512" style="enable-background:new 0 0 512 512" xml:space="preserve" class=""><g><linearGradient xmlns="http://www.w3.org/2000/svg" id="SVGID_1_" gradientUnits="userSpaceOnUse" x1="256" x2="256" y1="512" y2="0"><stop stop-opacity="1" stop-color="#ffffff" offset="0"/><stop stop-opacity="1" stop-color="#ffffff" offset="1"/></linearGradient><g xmlns="http://www.w3.org/2000/svg"><g><g><path d="m421 300c24.05 0 46.794-9.328 64.043-26.265 17.384-17.069 26.957-39.704 26.957-63.735 0-38.557-25.23-72.612-61.476-85.04-5.07-53.206-50.012-94.96-104.524-94.96-17.983 0-35.417 4.677-51.129 13.63-25.563-27.89-60.887-43.63-98.871-43.63-71.077 0-129.5 55.208-134.633 124.997-36.19 12.457-61.367 46.482-61.367 85.003 0 24.031 9.574 46.666 26.958 63.735 17.248 16.937 39.992 26.265 64.042 26.265h60v70.787l-55.611 55.611c-5.874-2.817-12.45-4.398-19.389-4.398-24.813 0-45 20.187-45 45s20.187 45 45 45 45-20.187 45-45c0-6.939-1.581-13.514-4.398-19.389l60.004-60.004c2.813-2.814 4.394-6.629 4.394-10.607v-77h60v124.58c-17.459 6.192-30 22.865-30 42.42 0 24.813 20.187 45 45 45s45-20.187 45-45c0-19.555-12.541-36.228-30-42.42v-124.58h60v77c0 3.978 1.58 7.793 4.394 10.607l60.004 60.004c-2.817 5.875-4.398 12.45-4.398 19.389 0 24.813 20.187 45 45 45s45-20.187 45-45-20.187-45-45-45c-6.939 0-13.514 1.581-19.389 4.398l-55.611-55.611v-70.787zm-345 182c-8.271 0-15-6.729-15-15s6.729-15 15-15 15 6.729 15 15-6.729 15-15 15zm360-30c8.271 0 15 6.729 15 15s-6.729 15-15 15-15-6.729-15-15 6.729-15 15-15zm-180 30c-8.271 0-15-6.729-15-15s6.729-15 15-15 15 6.729 15 15-6.729 15-15 15zm90-242c-8.284 0-15 6.716-15 15v15h-60v-75c0-8.284-6.716-15-15-15s-15 6.716-15 15v75h-60v-15c0-8.284-6.716-15-15-15s-15 6.716-15 15v15h-60c-33.636 0-61-26.916-61-60 0-28.354 20.651-53.082 49.105-58.798 7.069-1.42 12.127-7.668 12.044-14.878-.01-.835-.078-1.557-.146-2.111.423-57.538 47.361-104.213 104.997-104.213 33.137 0 63.711 15.495 83.882 42.511 2.393 3.205 5.966 5.321 9.926 5.879 3.966.559 7.979-.489 11.164-2.906 13.342-10.13 28.913-15.484 45.028-15.484 41.095 0 74.576 33.222 74.996 74.219-.064.512-.131 1.199-.146 1.99-.139 7.252 4.932 13.564 12.043 14.993 28.455 5.717 49.107 30.445 49.107 58.798 0 33.084-27.364 60-61 60h-60v-15c0-8.284-6.716-15-15-15zm0-60c-8.284 0-15 6.716-15 15s6.716 15 15 15 15-6.716 15-15-6.716-15-15-15zm-180 0c-8.284 0-15 6.716-15 15s6.716 15 15 15 15-6.716 15-15-6.716-15-15-15z" fill="url(#SVGID_1_)" data-original="url(#SVGID_1_)" style=""/></g></g></g></g></svg>
