<svg xmlns="http://www.w3.org/2000/svg" viewBox="0 0 900.78 398.87"><g id="Capa_4" data-name="Capa 4"><path d="M607.43,573.22" transform="translate(-50.31 -247.33)" style="fill:none;stroke:#000;stroke-miterlimit:10;stroke-width:10px"/><path d="M224,331.27c3.72-8.65,23.36-51.82,72-70.54,40.68-15.64,77.27-4.85,88-1.52a137.74,137.74,0,0,1,30.33,13.66,154.06,154.06,0,0,1,72.06-20.48c50.79-1.38,87.48,23.67,101.64,34.89a157.19,157.19,0,0,1,22,21.23c15-2.68,70-10.65,115.29,23.52a125.73,125.73,0,0,1,26.55,27.3c100-8.23,181,52.54,192.66,125.15,7.57,47.09-13.16,104.42-60.68,135-51,32.84-117.42,24.68-157-6.82a104.43,104.43,0,0,1-23.51-26.55,153.26,153.26,0,0,1-63,.76A150.09,150.09,0,0,1,609.33,577c-5.55,7.83-42.45,58.3-106.19,63.71-51.85,4.4-92.16-23.49-103.16-31.1A169.36,169.36,0,0,1,379.5,593c-4.12,2.6-25.26,10.42-45.13,6.44a51.9,51.9,0,0,1-20.47-9.1c-11.41,11.14-38.25,34.18-78.51,41-58.87,9.91-116.39-20-147.9-63.71C52.27,518.69,38,436.6,86.35,384.36c47.7-51.51,123.62-38.67,129.7-37.54Z" transform="translate(-50.31 -247.33)" style="fill:none;stroke:#000;stroke-miterlimit:10;stroke-width:10px"/></g><g id="Capa_5" data-name="Capa 5"><polyline points="872.27 336.51 865.44 329.69 873.02 273.56" style="fill:none;stroke:#000;stroke-miterlimit:10;stroke-width:9px"/><circle cx="874.33" cy="264.53" r="6.83" style="fill:none;stroke:#000;stroke-miterlimit:10;stroke-width:8px"/><circle cx="836.78" cy="233.88" r="6.83" style="fill:none;stroke:#000;stroke-miterlimit:10;stroke-width:8px"/><circle cx="818.72" cy="304.13" r="6.83" style="fill:none;stroke:#000;stroke-miterlimit:10;stroke-width:8px"/><circle cx="636.78" cy="306.41" r="6.83" style="fill:none;stroke:#000;stroke-miterlimit:10;stroke-width:7px"/><circle cx="763.26" cy="334.99" r="9.79" style="fill:none;stroke:#000;stroke-miterlimit:10;stroke-width:9px"/><circle cx="592.6" cy="80.14" r="9.79" style="fill:none;stroke:#000;stroke-miterlimit:10;stroke-width:9px"/><circle cx="360.57" cy="155.8" r="11.84" style="fill:none;stroke:#000;stroke-miterlimit:10;stroke-width:9px"/><circle cx="299.99" cy="219.23" r="10.43" style="fill:none;stroke:#000;stroke-miterlimit:10;stroke-width:9px"/><circle cx="248.22" cy="114.84" r="11.97" style="fill:none;stroke:#000;stroke-miterlimit:10;stroke-width:9px"/><circle cx="248.51" cy="60.52" r="11.97" style="fill:none;stroke:#000;stroke-miterlimit:10;stroke-width:9px"/><circle cx="273.54" cy="34.07" r="11.97" style="fill:none;stroke:#000;stroke-miterlimit:10;stroke-width:9px"/><circle cx="310.23" cy="33.5" r="11.97" style="fill:none;stroke:#000;stroke-miterlimit:10;stroke-width:9px"/><circle cx="207.83" cy="135.04" r="11.97" style="fill:none;stroke:#000;stroke-miterlimit:10;stroke-width:9px"/><circle cx="118.24" cy="189.65" r="11.97" style="fill:none;stroke:#000;stroke-miterlimit:10;stroke-width:9px"/><circle cx="76.43" cy="224.07" r="11.97" style="fill:none;stroke:#000;stroke-miterlimit:10;stroke-width:9px"/><circle cx="107.71" cy="230.32" r="11.97" style="fill:none;stroke:#000;stroke-miterlimit:10;stroke-width:9px"/><circle cx="59.65" cy="268.15" r="11.97" style="fill:none;stroke:#000;stroke-miterlimit:10;stroke-width:9px"/><circle cx="238.84" cy="194.77" r="10.43" style="fill:none;stroke:#000;stroke-miterlimit:10;stroke-width:9px"/><circle cx="278.66" cy="164.05" r="10.43" style="fill:none;stroke:#000;stroke-miterlimit:10;stroke-width:9px"/><circle cx="465.77" cy="174.28" r="6.42" style="fill:none;stroke:#000;stroke-miterlimit:10;stroke-width:7px"/><circle cx="517.79" cy="85.26" r="11.04" style="fill:none;stroke:#000;stroke-miterlimit:10;stroke-width:9px"/><circle cx="594.32" cy="113.93" r="11.94" style="fill:none;stroke:#000;stroke-miterlimit:10;stroke-width:9px"/><circle cx="546.82" cy="147.78" r="14.89" style="fill:none;stroke:#000;stroke-miterlimit:10;stroke-width:9px"/><polyline points="818.41 382.78 812.35 373.68 817.65 313" style="fill:none;stroke:#000;stroke-miterlimit:10;stroke-width:9px"/><polyline points="882.7 205.29 856.34 205.29 841.17 226.53" style="fill:none;stroke:#000;stroke-miterlimit:10;stroke-width:9px"/><polyline points="844.96 156.75 800.21 203.02 789.59 259.15 706.16 331.2 703.12 378.99" style="fill:none;stroke:#000;stroke-miterlimit:10;stroke-width:9px"/><polyline points="781.25 124.14 756.98 240.94 657.62 322.86 653.06 338.79" style="fill:none;stroke:#000;stroke-miterlimit:10;stroke-width:9px"/><polyline points="742.57 111.24 724.36 205.29 598.45 306.93 160.05 306.93 134.26 253.84 155.5 167.37 195.89 143.57" style="fill:none;stroke:#000;stroke-miterlimit:10;stroke-width:9px"/><polyline points="508.95 373.68 481.65 353.96 388.35 353.96 370.15 373.68" style="fill:none;stroke:#000;stroke-miterlimit:10;stroke-width:9px"/><polyline points="701.61 112 684.92 190.88 581.01 274.32 409.59 274.32 380.01 216.67 405.04 133.24 380.01 94.56 357.25 94.56 289.75 154.48" style="fill:none;stroke:#000;stroke-miterlimit:10;stroke-width:9px"/><polygon points="483.92 327.41 535.5 327.41 535.5 191.64 483.16 191.64 483.92 327.41" style="fill:none;stroke:#000;stroke-miterlimit:10;stroke-width:9px"/><polyline points="675.06 84.69 647 183.3 564.32 244.74 445.24 244.74 417.18 196.19 436.9 113.52 414.9 67.25 299.61 67.25 260.17 103.66" style="fill:none;stroke:#000;stroke-miterlimit:10;stroke-width:9px"/><polyline points="320.85 33.12 363.32 33.12 367.87 43.74 433.1 43.74 467.24 110.48 449.79 183.3 461.93 214.4 565.08 214.4 604.52 182.54 620.45 131.72 603.76 118.83" style="fill:none;stroke:#000;stroke-miterlimit:10;stroke-width:9px"/><polyline points="631.83 67.25 621.21 83.18 604.52 83.18" style="fill:none;stroke:#000;stroke-miterlimit:10;stroke-width:9px"/><path d="M511.48,254.66a38.08,38.08,0,0,0,9.86,19c11.87,12,32.2,14.63,51.58,6.83" transform="translate(-50.31 -247.33)" style="fill:none;stroke:#000;stroke-miterlimit:10;stroke-width:9px"/><polyline points="512.18 96.07 504.4 121.1 513.5 133.24 531.71 143.86" style="fill:none;stroke:#000;stroke-miterlimit:10;stroke-width:9px"/><line x1="207.83" y1="34.64" x2="258.65" y2="34.64" style="fill:none;stroke:#000;stroke-miterlimit:10;stroke-width:9px"/><polyline points="235.14 60.42 210.11 60.42 183.56 122.62 103.16 122.62 31.11 229.57 3.04 234.88" style="fill:none;stroke:#000;stroke-miterlimit:10;stroke-width:9px"/><polyline points="3.04 213.64 12.9 210.6 46.3 142.71 36.04 137.03" style="fill:none;stroke:#000;stroke-miterlimit:10;stroke-width:9px"/><line x1="59.17" y1="275.83" x2="56.14" y2="341.06" style="fill:none;stroke:#000;stroke-miterlimit:10;stroke-width:9px"/><line x1="78.89" y1="358.51" x2="244.24" y2="358.51" style="fill:none;stroke:#000;stroke-miterlimit:10;stroke-width:9px"/><polyline points="356.5 170.4 336.78 247.01 313.26 269.01 203.57 269.01 193.04 236.01 194.18 232.6 229.45 201.88" style="fill:none;stroke:#000;stroke-miterlimit:10;stroke-width:9px"/><path d="M153.48,432.15a21.08,21.08,0,0,0-28.83,27.3" transform="translate(-50.31 -247.33)" style="fill:none;stroke:#000;stroke-miterlimit:10;stroke-width:9px"/><polyline points="103.16 245.49 83.44 316.03 88.75 342.58 263.58 342.58" style="fill:none;stroke:#000;stroke-miterlimit:10;stroke-width:9px"/></g></svg>