<svg width="800" height="600" viewBox="0 0 800 600" fill="none" xmlns="http://www.w3.org/2000/svg">
<rect width="800" height="600" fill="white"/>
<path d="M162.867 201.806C166.07 194.377 182.937 157.297 224.752 141.218C259.679 127.785 291.111 137.053 300.309 139.913C311.491 143.391 320.285 147.969 326.365 151.637C338.156 144.903 359.815 134.819 388.25 134.046C431.869 132.87 463.378 154.377 475.539 164.014C483.981 170.705 490.216 177.31 494.432 182.257C507.314 179.956 554.514 173.11 593.443 202.451C603.311 209.889 610.714 218.194 616.244 225.908C702.116 218.839 771.67 271.026 781.692 333.401C788.193 373.847 770.399 423.089 729.58 449.363C685.764 477.57 628.74 470.561 594.74 443.497C588.17 438.266 580.991 430.974 574.55 420.693C562.269 423.398 543.032 425.863 520.488 421.345C509.994 419.241 501.036 416.08 493.78 412.877C489.022 419.61 457.324 462.951 402.584 467.598C358.055 471.377 323.445 447.422 313.998 440.886C306.286 435.552 300.395 430.356 296.41 426.551C292.872 428.792 274.717 435.5 257.653 432.091C249.606 430.484 243.654 426.903 240.064 424.274C230.274 433.843 207.224 453.632 172.649 459.456C122.082 467.967 72.6843 442.269 45.6321 404.734C15.3852 362.785 3.12151 292.267 44.6531 247.406C85.6092 203.163 150.818 214.192 156.039 215.162L162.867 201.806Z" stroke="#870012" stroke-width="10" stroke-miterlimit="10"/>
<path d="M762.406 419L757 413.15L763 365" stroke="#870012" stroke-width="9" stroke-miterlimit="10"/>
<path d="M732 337C735.314 337 738 334.314 738 331C738 327.686 735.314 325 732 325C728.686 325 726 327.686 726 331C726 334.314 728.686 337 732 337Z" stroke="#870012" stroke-width="8" stroke-miterlimit="10"/>
<path d="M716.5 397C719.538 397 722 394.314 722 391C722 387.686 719.538 385 716.5 385C713.462 385 711 387.686 711 391C711 394.314 713.462 397 716.5 397Z" stroke="#870012" stroke-width="8" stroke-miterlimit="10"/>
<path d="M560 399C563.314 399 566 396.314 566 393C566 389.686 563.314 387 560 387C556.686 387 554 389.686 554 393C554 396.314 556.686 399 560 399Z" stroke="#870012" stroke-width="7" stroke-miterlimit="10"/>
<path d="M669 426C673.418 426 677 422.194 677 417.5C677 412.806 673.418 409 669 409C664.582 409 661 412.806 661 417.5C661 422.194 664.582 426 669 426Z" stroke="#870012" stroke-width="9" stroke-miterlimit="10"/>
<path d="M522.5 207C527.194 207 531 203.418 531 199C531 194.582 527.194 191 522.5 191C517.806 191 514 194.582 514 199C514 203.418 517.806 207 522.5 207Z" stroke="#870012" stroke-width="9" stroke-miterlimit="10"/>
<path d="M323 274C328.523 274 333 269.523 333 264C333 258.477 328.523 254 323 254C317.477 254 313 258.477 313 264C313 269.523 317.477 274 323 274Z" stroke="#870012" stroke-width="9" stroke-miterlimit="10"/>
<path d="M271 327C275.971 327 280 322.971 280 318C280 313.029 275.971 309 271 309C266.029 309 262 313.029 262 318C262 322.971 266.029 327 271 327Z" stroke="#870012" stroke-width="9" stroke-miterlimit="10"/>
<path d="M226.5 239C232.299 239 237 234.299 237 228.5C237 222.701 232.299 218 226.5 218C220.701 218 216 222.701 216 228.5C216 234.299 220.701 239 226.5 239Z" stroke="#870012" stroke-width="9" stroke-miterlimit="10"/>
<path d="M227 192C232.523 192 237 187.523 237 182C237 176.477 232.523 172 227 172C221.477 172 217 176.477 217 182C217 187.523 221.477 192 227 192Z" stroke="#870012" stroke-width="9" stroke-miterlimit="10"/>
<path d="M248.5 170C254.299 170 259 165.299 259 159.5C259 153.701 254.299 149 248.5 149C242.701 149 238 153.701 238 159.5C238 165.299 242.701 170 248.5 170Z" stroke="#870012" stroke-width="9" stroke-miterlimit="10"/>
<path d="M280 169C285.523 169 290 164.523 290 159C290 153.477 285.523 149 280 149C274.477 149 270 153.477 270 159C270 164.523 274.477 169 280 169Z" stroke="#870012" stroke-width="9" stroke-miterlimit="10"/>
<path d="M192 256C197.523 256 202 251.523 202 246C202 240.477 197.523 236 192 236C186.477 236 182 240.477 182 246C182 251.523 186.477 256 192 256Z" stroke="#870012" stroke-width="9" stroke-miterlimit="10"/>
<path d="M115 303C120.523 303 125 298.523 125 293C125 287.477 120.523 283 115 283C109.477 283 105 287.477 105 293C105 298.523 109.477 303 115 303Z" stroke="#870012" stroke-width="9" stroke-miterlimit="10"/>
<path d="M79 333C84.5228 333 89 328.299 89 322.5C89 316.701 84.5228 312 79 312C73.4772 312 69 316.701 69 322.5C69 328.299 73.4772 333 79 333Z" stroke="#870012" stroke-width="9" stroke-miterlimit="10"/>
<path d="M106 338C111.523 338 116 333.523 116 328C116 322.477 111.523 318 106 318C100.477 318 96 322.477 96 328C96 333.523 100.477 338 106 338Z" stroke="#870012" stroke-width="9" stroke-miterlimit="10"/>
<path d="M64.5 371C70.299 371 75 366.299 75 360.5C75 354.701 70.299 350 64.5 350C58.701 350 54 354.701 54 360.5C54 366.299 58.701 371 64.5 371Z" stroke="#870012" stroke-width="9" stroke-miterlimit="10"/>
<path d="M219 306C223.971 306 228 301.971 228 297C228 292.029 223.971 288 219 288C214.029 288 210 292.029 210 297C210 301.971 214.029 306 219 306Z" stroke="#870012" stroke-width="9" stroke-miterlimit="10"/>
<path d="M253 280C257.971 280 262 275.971 262 271C262 266.029 257.971 262 253 262C248.029 262 244 266.029 244 271C244 275.971 248.029 280 253 280Z" stroke="#870012" stroke-width="9" stroke-miterlimit="10"/>
<path d="M413.5 285C416.538 285 419 282.538 419 279.5C419 276.462 416.538 274 413.5 274C410.462 274 408 276.462 408 279.5C408 282.538 410.462 285 413.5 285Z" stroke="#870012" stroke-width="7" stroke-miterlimit="10"/>
<path d="M458.5 213C463.747 213 468 208.747 468 203.5C468 198.253 463.747 194 458.5 194C453.253 194 449 198.253 449 203.5C449 208.747 453.253 213 458.5 213Z" stroke="#870012" stroke-width="9" stroke-miterlimit="10"/>
<path d="M524 238C529.523 238 534 233.523 534 228C534 222.477 529.523 218 524 218C518.477 218 514 222.477 514 228C514 233.523 518.477 238 524 238Z" stroke="#870012" stroke-width="9" stroke-miterlimit="10"/>
<path d="M483 270C490.18 270 496 264.18 496 257C496 249.82 490.18 244 483 244C475.82 244 470 249.82 470 257C470 264.18 475.82 270 483 270Z" stroke="#870012" stroke-width="9" stroke-miterlimit="10"/>
<path d="M716 459L711 451.175L715.373 399" stroke="#870012" stroke-width="9" stroke-miterlimit="10"/>
<path d="M772 306H749.153L736 325" stroke="#870012" stroke-width="9" stroke-miterlimit="10"/>
<path d="M739 265L700.509 304.766L691.375 353.006L619.615 414.928L617 456" stroke="#870012" stroke-width="9" stroke-miterlimit="10"/>
<path d="M684 237L663.174 337.122L577.904 407.345L574 421" stroke="#870012" stroke-width="9" stroke-miterlimit="10"/>
<path d="M651 226L635.374 306.742L527.328 394H151.131L129 348.422L147.226 274.188L181.886 253.755" stroke="#870012" stroke-width="9" stroke-miterlimit="10"/>
<path d="M451 451L427.398 434H346.735L331 451" stroke="#870012" stroke-width="9" stroke-miterlimit="10"/>
<path d="M616 226.038L601.655 294.053L512.342 366H365.004L339.58 316.291L361.094 244.352L339.58 211H320.026L262 262.667" stroke="#870012" stroke-width="9" stroke-miterlimit="10"/>
<path d="M428.653 411H473V295H428L428.653 411Z" stroke="#870012" stroke-width="9" stroke-miterlimit="10"/>
<path d="M593 202.944L568.923 287.384L497.979 340H395.801L371.724 298.422L388.645 227.625L369.767 188H270.842L237 219.181" stroke="#870012" stroke-width="9" stroke-miterlimit="10"/>
<path d="M289 159H325.431L329.334 168.08H385.289L414.575 225.145L399.606 287.409L410.02 314H498.503L532.335 286.759L546 243.306L531.683 232.285" stroke="#870012" stroke-width="9" stroke-miterlimit="10"/>
<path d="M556 188L547.056 202H533" stroke="#870012" stroke-width="9" stroke-miterlimit="10"/>
<path d="M410 136C410.939 140.482 413.098 146.917 418.345 152.311C428.391 162.635 445.598 164.898 462 158.187" stroke="#870012" stroke-width="9" stroke-miterlimit="10"/>
<path d="M453.552 213L447 234.474L454.664 244.889L470 254" stroke="#870012" stroke-width="9" stroke-miterlimit="10"/>
<path d="M192 160H236" stroke="#870012" stroke-width="9" stroke-miterlimit="10"/>
<path d="M215 182H193.54L170.776 235.482H101.842L40.0669 327.443L16 332" stroke="#870012" stroke-width="9" stroke-miterlimit="10"/>
<path d="M16 314L24.4332 311.381L53 252.893L44.2247 248" stroke="#870012" stroke-width="9" stroke-miterlimit="10"/>
<path d="M64 367L62 423" stroke="#870012" stroke-width="9" stroke-miterlimit="10"/>
<path d="M81 438H223" stroke="#870012" stroke-width="9" stroke-miterlimit="10"/>
<path d="M320 276L302.99 342.036L282.701 361H188.083L179 332.555L179.983 329.615L210.407 303.135" stroke="#870012" stroke-width="9" stroke-miterlimit="10"/>
<path d="M102 288.889C95.38 285.63 87.4327 286.654 81.9954 291.454C76.2434 296.533 74.3969 304.847 77.4772 312" stroke="#870012" stroke-width="9" stroke-miterlimit="10"/>
<path d="M101.968 341L85 401.303L89.5689 424H240" stroke="#870012" stroke-width="9" stroke-miterlimit="10"/>
</svg>
