<svg id="Capa_1" data-name="Capa 1" xmlns="http://www.w3.org/2000/svg" width="534.0001" height="59.1" viewBox="0 0 534.0001 59.1"><path d="M533.7,3.3a6.4233,6.4233,0,0,1,2.4,2.5,6.65,6.65,0,0,1,.9,3.4,6.92,6.92,0,0,1-.9,3.4,7.1835,7.1835,0,0,1-2.4,2.5,6.8722,6.8722,0,0,1-6.8,0,6.4242,6.4242,0,0,1-2.4-2.5,6.6514,6.6514,0,0,1-.9-3.4,6.9211,6.9211,0,0,1,.9-3.4,7.1847,7.1847,0,0,1,2.4-2.5,6.65,6.65,0,0,1,3.4-.9A6.396,6.396,0,0,1,533.7,3.3ZM533,13.8a4.9532,4.9532,0,0,0,1.9-1.9,4.8447,4.8447,0,0,0,.7-2.6,4.6177,4.6177,0,0,0-.7-2.6A5.7521,5.7521,0,0,0,533,4.8a5.3339,5.3339,0,0,0-7.3,1.9,4.8448,4.8448,0,0,0-.7,2.6,4.6178,4.6178,0,0,0,.7,2.6,5.7512,5.7512,0,0,0,1.9,1.9,4.9533,4.9533,0,0,0,2.7.7A6.0075,6.0075,0,0,0,533,13.8Zm-.1-4.5a1.7646,1.7646,0,0,1-.9.8l1.4,2.1h-1.7l-1-1.9h-1.5v1.9h-1.4V5.7h2.7a3.1734,3.1734,0,0,1,2,.6,1.8648,1.8648,0,0,1,.7,1.6A2.9041,2.9041,0,0,1,532.9,9.3Zm-3.7-.1h1.3a1.6894,1.6894,0,0,0,1-.3,1.2224,1.2224,0,0,0,.3-.9c0-.4-.1-.7-.3-.8a1.3273,1.3273,0,0,0-1-.3h-1.3Z" transform="translate(-3 -2.4)" style="fill:#4b5563"/><path d="M178.9,16.2h61.6l9-13.8H201.4C193.1,2.4,183.8,8.2,178.9,16.2Z" transform="translate(-3 -2.4)" style="fill:#4b5563"/><path d="M227.4,25.9H175.8a5.099,5.099,0,0,0,3.3,5.3c9.2,3,31.7,4.2,36.9,6.8,2.1,1.1,2.1,3.8,1.6,5.1a6.917,6.917,0,0,1-6.1,4.4H167.2l-9,13.8h55.5c8.9,0,19.1-6.7,23.6-15.6.4-.9.8-1.7,1.1-2.6a17.0284,17.0284,0,0,0,1-4.2,13.125,13.125,0,0,0-.8-6.6C236.8,28.3,232.8,25.9,227.4,25.9Z" transform="translate(-3 -2.4)" style="fill:#4b5563"/><path d="M23.7,16.2H85.3l9-13.8H46.2C38,2.4,28.6,8.2,23.7,16.2Z" transform="translate(-3 -2.4)" style="fill:#4b5563"/><path d="M72.3,25.9H20.7A5.099,5.099,0,0,0,24,31.2c9.2,3,31.7,4.2,36.9,6.8,2.1,1.1,2.1,3.8,1.6,5.1a6.917,6.917,0,0,1-6.1,4.4H12L3,61.3H58.5c8.9,0,19.1-6.7,23.6-15.6.4-.9.8-1.7,1.1-2.6a17.0284,17.0284,0,0,0,1-4.2,13.125,13.125,0,0,0-.8-6.6C81.7,28.3,77.6,25.9,72.3,25.9Z" transform="translate(-3 -2.4)" style="fill:#4b5563"/><polygon points="151.1 0 136.2 13.8 144.6 13.8 159.6 13.8 174.5 0 151.1 0" style="fill:#4b5563"/><polygon points="117.5 13.8 127.4 13.8 122.6 0 98.1 0 102.9 13.8 117.5 13.8" style="fill:#4b5563"/><path d="M280.7,2.4c-8.3,0-17.7,5.8-22.6,13.8H316l9-13.8Z" transform="translate(-3 -2.4)" style="fill:#4b5563"/><path d="M269.2,46.1a4.1625,4.1625,0,0,1-.3-3.8l1.3-3.6,4.7-12.8H254l-6.6,18.2a11.0683,11.0683,0,0,0-.7,2.6c-.9,4.2-.2,8,1.9,10.7,2.1,2.6,5.6,4.1,9.7,4.1h45.2l5-13.8H272.3A3.9731,3.9731,0,0,1,269.2,46.1Z" transform="translate(-3 -2.4)" style="fill:#4b5563"/><path d="M376.8,43.2a6.917,6.917,0,0,1-6.1,4.4H345.4a3.7461,3.7461,0,0,1-3.1-1.5,4.1625,4.1625,0,0,1-.3-3.8l1.3-3.6L348,25.9H327.2l-6.6,18.2a11.0683,11.0683,0,0,0-.7,2.6c-.9,4.2-.2,8,1.9,10.7,2.1,2.6,5.6,4.1,9.7,4.1h41.6c8.9,0,19.1-6.7,23.6-15.6.4-.9.8-1.7,1.1-2.6L404.1,26H383.3l-5,13.6Z" transform="translate(-3 -2.4)" style="fill:#4b5563"/><path d="M395.3,2.4H353.7c-8.3,0-17.7,5.8-22.6,13.8h76c.6-3.8-.1-7.2-2.1-9.7C402.9,3.9,399.4,2.4,395.3,2.4Z" transform="translate(-3 -2.4)" style="fill:#4b5563"/><polygon points="460.8 59 469 36.3 473.7 23.5 452.8 23.5 447.9 37.2 439.9 59 460.8 59" style="fill:#4b5563"/><polygon points="479.7 59 482.4 59 500.5 59 507.1 40.8 508.8 36.3 513.4 23.5 496.2 23.5 492.6 23.5 487.6 37.2 479.7 59" style="fill:#4b5563"/><path d="M507.8,2.4H424.6l-5,13.8H519.7c.6-3.8-.1-7.2-2.1-9.7A12.5677,12.5677,0,0,0,507.8,2.4Z" transform="translate(-3 -2.4)" style="fill:#4b5563"/><polygon points="406.5 41.7 400.2 59 417.4 59 421 59 429.3 36.3 433.9 23.5 431.2 23.5 413.1 23.5 408.1 37.2 406.5 41.7" style="fill:#4b5563"/><polygon points="149.2 23.5 106.3 23.5 112.1 39.7 105.1 59 125.1 59 132.3 39.1 149.2 23.5" style="fill:#4b5563"/></svg>