<svg id="Capa_1" data-name="Capa 1" xmlns="http://www.w3.org/2000/svg" width="161.015" height="161.085" viewBox="0 0 161.015 161.085"><path d="M84.139,107.036H60.184c-.036,0-.065-.018-.1-.02H46.442c-.02-.017-.036-.035-.056-.052a6.59,6.59,0,0,1-5.848-4.092c-1.6,2.175-4.263,3.834-8.6,1.971A6.617,6.617,0,0,1,28.44,100.6C19.975,88.968,16.4,61.318,16.4,61.318S9.113,58.36,6.366,57.2s-4.58-6.062-4.754-7.923c-.278-2.976,6.656,4.543,4.966,2.113s-.634-5.7,0-3.487,4.859,4.966,4.859,4.966c-3.275-5.071-.95-4.966-.95-4.966.422,2.747,6.127,6.128,9.508,7.4s3.064,5.388,3.064,5.388,3.694,6.446,7.65,13.864c.515-2.013,1.555-5.857,2.9-9.8V28.893a6.606,6.606,0,0,1,6.606-6.607h7.941c-1.079-2.024-1.759-4.042-1.435-5.657a7.6,7.6,0,0,1,1.4-3.354c-.043-1.475-.07-2.953-.07-4.438,0-2.873.088-5.726.246-8.561H-.645v160.7h160.7v-5.706A151.729,151.729,0,0,1,84.139,107.036Z" transform="translate(0.645 0.11)" style="fill:none"/><path d="M62.176,3.29a8.791,8.791,0,0,1,5.888,1.718,63.376,63.376,0,0,0,7.065,4.344,3.453,3.453,0,0,1,.346-.182,7.085,7.085,0,0,1,4.292.237c4.358,1.2,8.992,2.535,11.907,5.963,1.471,1.747,2.4,3.95,4.158,5.383a9.032,9.032,0,0,0,2.736,1.533h16.537a6.6,6.6,0,0,1,6.127,4.163h.307a6.605,6.605,0,0,1,6.606,6.607v12.26c2.619.186,5.24.367,7.85.58-.74,5.639,11.071,5.972,10.834,11.64a7.764,7.764,0,0,1-1.51,3.637,36.467,36.467,0,0,0-2.525,4.975h.017a3.981,3.981,0,0,1,3.808,5.024l-9.246,33.97a2.568,2.568,0,0,1-2.479,1.894h-11.64q-.776,2.814-1.548,5.627c-1.548-.133-3.124-.3-4.662-.475,1.823.579,3.085,3.048,1.994,4.738-1.747-.921-4.045.171-5.014,1.928a8.071,8.071,0,0,0-.275,5.8,16.941,16.941,0,0,0,12.191,11.659c-1,1.89-4.044,1.064-5.905-.2a70.731,70.731,0,0,1-24.511-29.079H84.139a151.729,151.729,0,0,0,75.914,48.233V.276H59.683c.387.311.845.559,1.237.88A4.117,4.117,0,0,1,62.176,3.29Zm63.755,132.986c.028-.057.066-.095.095-.151l.579.332C126.377,136.409,126.159,136.333,125.931,136.276Z" transform="translate(0.645 0.11)" style="fill:#f1f8f9"/><path d="M48.124,13.275a3.079,3.079,0,0,1,2.825-1.294A24.677,24.677,0,0,1,56.081,6.03a4.369,4.369,0,0,0-3.535-2.282Q51.925,2.013,51.29.276H48.3c-.158,2.835-.246,5.688-.246,8.561C48.054,10.322,48.081,11.8,48.124,13.275Z" transform="translate(0.645 0.11)" style="fill:#f1f8f9"/><path d="M125.931,136.276c.228.057.446.133.674.181l-.579-.332C126,136.181,125.959,136.219,125.931,136.276Z" transform="translate(0.645 0.11)" style="fill:#c93e51"/><path d="M95.524,107.036a70.731,70.731,0,0,0,24.511,29.079c1.861,1.263,4.908,2.089,5.905.2a16.941,16.941,0,0,1-12.191-11.659,8.071,8.071,0,0,1,.275-5.8c.969-1.757,3.267-2.849,5.014-1.928,1.091-1.69-.171-4.159-1.994-4.738,1.538.171,3.114.342,4.662.475q.771-2.814,1.548-5.627H95.524Z" transform="translate(0.645 0.11)" style="fill:#c93e51"/><path d="M76.622,12.72a23.349,23.349,0,0,1,.372,3.944,2.31,2.31,0,0,1,.537-.089,2.285,2.285,0,0,1,1.654.706l4.3,4.494c1.368-.556,3.368-.962,4.644.511H98.568a9.032,9.032,0,0,1-2.736-1.533c-1.756-1.433-2.687-3.636-4.158-5.383-2.915-3.428-7.549-4.767-11.907-5.963a7.085,7.085,0,0,0-4.292-.237,3.453,3.453,0,0,0-.346.182C76.44,10.083,76.146,10.162,76.622,12.72Z" transform="translate(0.645 0.11)" style="fill:#c93e51"/><path d="M56.081,6.03a11.456,11.456,0,0,1,6.095-2.74A4.117,4.117,0,0,0,60.92,1.156c-.392-.321-.85-.569-1.237-.88H51.29q.631,1.735,1.256,3.472A4.369,4.369,0,0,1,56.081,6.03Z" transform="translate(0.645 0.11)" style="fill:#c93e51"/><path d="M142.794,66.148a36.467,36.467,0,0,1,2.525-4.975,7.764,7.764,0,0,0,1.51-3.637c.237-5.668-11.574-6-10.834-11.64-2.61-.213-5.231-.394-7.85-.58V66.037Z" transform="translate(0.645 0.11)" style="fill:#c93e51"/><path d="M40.045,52.622V33.056a6.606,6.606,0,0,1,6.607-6.607h4.2a32.68,32.68,0,0,1-2.7-4.163H40.218a6.606,6.606,0,0,0-6.606,6.607V64.747C35.379,59.572,37.68,54.251,40.045,52.622Z" transform="translate(0.645 0.11)" style="fill:#001b2e"/><path d="M88.35,22.531c.576.823,1.566,2.214,2.671,3.918h30.211a6.6,6.6,0,0,0-6.127-4.163H88.131A2.888,2.888,0,0,1,88.35,22.531Z" transform="translate(0.645 0.11)" style="fill:#001b2e"/><path d="M42.71,97.768a13.855,13.855,0,0,1-2.172,5.1,6.59,6.59,0,0,0,5.848,4.092A10.184,10.184,0,0,1,42.71,97.768Z" transform="translate(0.645 0.11)" style="fill:#7a0515"/><path d="M57.382,40.67l1.07-7.246s-8.762.735-7.286-6.551v0c-.1-.136-.207-.282-.311-.421h-4.2a6.606,6.606,0,0,0-6.607,6.607V52.622c.078-.054.155-.132.233-.177a37.131,37.131,0,0,1,9.979-3.6l-.047-.094C50.982,41.286,55.65,40.646,57.382,40.67Z" transform="translate(0.645 0.11)" style="fill:#7a0515"/><path d="M91.021,26.449c2.743,4.229,6.217,10.444,5.991,15.113,0,0,6.945,13.792,11.105,24.322l20.028.153V33.056a6.605,6.605,0,0,0-6.606-6.607H91.021Z" transform="translate(0.645 0.11)" style="fill:#7a0515"/><path d="M83.817,35.843l-.252.252a2.289,2.289,0,0,1-3.3-.069l-1.21-1.316c-1.273,3.417-3.909,6.17-7.5,6.535l.146.208c.768.534,4.538,3.154,5.77,3.912.562.346,1,1.527,1.32,2.8l3.223.188s5.96-.349,9.714.566c-.55-3.86-.841-6.3-.841-6.3A23.634,23.634,0,0,1,83.817,35.843Z" transform="translate(0.645 0.11)" style="fill:#7a0515"/><path d="M90.037,86.251h0s.658,4.4,1.087,8.8l1.466-5.817A19.529,19.529,0,0,1,90.037,86.251Z" transform="translate(0.645 0.11)" style="fill:#7a0515"/><path d="M50.856,26.449c.1.139.207.285.311.421.635-1.369,5.7-2.739,7.915,1.7,0,0,.634-5.806-1.476-10.037,0,0,13.828-2.184,15.637-5.7,0,0,1.1,1.925,2.422,4.594l.443-.351a2.252,2.252,0,0,1,.886-.407,23.349,23.349,0,0,0-.372-3.944c-.476-2.558-.182-2.637-1.493-3.368a63.376,63.376,0,0,1-7.065-4.344A8.791,8.791,0,0,0,62.176,3.29a11.456,11.456,0,0,0-6.095,2.74,24.677,24.677,0,0,0-5.132,5.951,3.079,3.079,0,0,0-2.825,1.294,7.6,7.6,0,0,0-1.4,3.354c-.324,1.615.356,3.633,1.435,5.657A32.68,32.68,0,0,0,50.856,26.449Z" transform="translate(0.645 0.11)" style="fill:#39255c"/><path d="M88.979,27.514a2.29,2.29,0,0,1-.035,3.2l-5.127,5.127a23.634,23.634,0,0,0,7.066,6.777s.291,2.438.841,6.3c1.4.338,2.485.851,2.855,1.623.6,1.239,2.943,8.224,5.408,15.735a4.3,4.3,0,0,1,1.91-.439l6.22.047c-4.16-10.53-11.105-24.322-11.105-24.322.226-4.669-3.248-10.884-5.991-15.113-1.105-1.7-2.095-3.1-2.671-3.918a2.888,2.888,0,0,0-.219-.245c-1.276-1.473-3.276-1.067-4.644-.511Z" transform="translate(0.645 0.11)" style="fill:#ec7560"/><path d="M81.946,35.708a1.223,1.223,0,0,0,.871-.361L88.2,29.968a1.239,1.239,0,0,0,.019-1.723L78.421,18.013a1.23,1.23,0,0,0-1.655-.114l-.627.5a54.858,54.858,0,0,1,3.333,8.376,12.884,12.884,0,0,1-.05,6.78l1.617,1.758A1.217,1.217,0,0,0,81.946,35.708Z" transform="translate(0.645 0.11)" style="fill:#917cb8"/><path d="M76.766,17.9a1.23,1.23,0,0,1,1.655.114l9.794,10.232a1.239,1.239,0,0,1-.019,1.723l-5.379,5.379a1.232,1.232,0,0,1-1.778-.037l-1.617-1.758q-.16.59-.371,1.158l1.21,1.316a2.289,2.289,0,0,0,3.3.069l.252-.252,5.127-5.127a2.29,2.29,0,0,0,.035-3.2l-5.492-5.739-4.3-4.494a2.285,2.285,0,0,0-1.654-.706,2.31,2.31,0,0,0-.537.089,2.252,2.252,0,0,0-.886.407l-.443.351c.156.315.314.641.474.974Z" transform="translate(0.645 0.11)" style="fill:#38255c"/><path d="M58.452,33.424l-1.07,7.246a4.756,4.756,0,0,1,.646.047C55.809,48.534,66.8,53.605,68.7,53.077s4.332-5.6,4.332-5.6l-1.479-.951V41.35l.146.1-.146-.208V45.3c-6.721-1.243-8.059-9.212-8.059-9.212,2.755,6.235,8.059,5.156,8.059,5.156,3.591-.365,6.227-3.118,7.5-6.535q.211-.568.371-1.158a12.884,12.884,0,0,0,.05-6.78A54.858,54.858,0,0,0,76.139,18.4c-.16-.333-.318-.659-.474-.974-1.319-2.669-2.422-4.594-2.422-4.594-1.809,3.516-15.637,5.7-15.637,5.7,2.11,4.231,1.476,10.037,1.476,10.037-2.214-4.434-7.28-3.064-7.915-1.7v0C49.69,34.159,58.452,33.424,58.452,33.424Zm14.366,3.595c-1.9,0-3.592-3.7-3.592-3.7l6.339-.422S74.72,37.019,72.818,37.019Zm3.614-8.646a1.3,1.3,0,0,1-.116,1.181c-.8,1.264-3.479,1.386-3.593,1.39h-.01a.264.264,0,0,1-.011-.528c.7-.029,2.623-.29,3.168-1.146a.762.762,0,0,0,.065-.714,4.155,4.155,0,0,0-2.455-1.849c-1.5-.461-2.158-2.888-2.185-2.991a.264.264,0,0,1,.511-.136c.006.022.614,2.247,1.83,2.621A4.588,4.588,0,0,1,76.432,28.373ZM75.7,23.5c.37.922.324,1.808-.1,1.978s-1.071-.438-1.44-1.36-.324-1.808.1-1.978S75.326,22.579,75.7,23.5Zm-4.472-2.428c.558-.439,3.412-2.556,4.732-1.1a.528.528,0,1,1-.782.711c-.47-.518-2.218.376-3.3,1.223a.532.532,0,0,1-.326.112.528.528,0,0,1-.327-.944Zm-3.829.948a.529.529,0,0,1-.14,1.048c-1.007-.131-3.7,1.243-5.157,2.144a.529.529,0,0,1-.557-.9C61.959,24.056,65.674,21.787,67.4,22.021Zm-1.57,3.133c.426-.17,1.07.439,1.44,1.361s.324,1.807-.1,1.978-1.071-.438-1.44-1.36S65.4,25.325,65.825,25.154Z" transform="translate(0.645 0.11)" style="fill:#ec7560"/><path d="M63.492,36.089s1.338,7.969,8.059,9.212V41.245S66.247,42.324,63.492,36.089Z" transform="translate(0.645 0.11)" style="fill:#d55a43"/><path d="M91.724,48.918c.793,5.473,2.115,13.817,3.913,22.119.252,1.162.491,2.218.726,3.227l1.3-5.153a4.326,4.326,0,0,1,2.326-2.835c-2.465-7.511-4.811-14.5-5.408-15.735C94.209,49.769,93.12,49.256,91.724,48.918Z" transform="translate(0.645 0.11)" style="fill:#ec7560"/><path d="M91.124,95.056c-.429-4.409-1.087-8.8-1.087-8.8l-.259.039c-.02-.131-1.955-13.07-2.187-15.863-.242-2.9,3.1-6.506,3.239-6.658l.386.361c-.033.036-3.32,3.586-3.1,6.253.231,2.776,2.163,15.7,2.182,15.828l-.263.04a19.529,19.529,0,0,0,2.553,2.988l3.773-14.975c-.235-1.009-.474-2.065-.726-3.227-1.8-8.3-3.12-16.646-3.913-22.119-3.754-.915-9.714-.566-9.714-.566l-3.223-.188a32.9,32.9,0,0,1,.687,3.857l-5.569-3.064s-2.867,5.471-5.06,6.255c2.5,5.049,3.554,15.981,3.115,32.5-.162,6.127-.51,11.9-.82,16.184H88.9ZM73.648,59.648a1.066,1.066,0,1,1-1.065,1.066A1.067,1.067,0,0,1,73.648,59.648Zm1.874,31.227a1.065,1.065,0,1,1-1.066,1.065A1.066,1.066,0,0,1,75.522,90.875ZM73.656,76.541a1.065,1.065,0,1,1,1.065,1.065A1.067,1.067,0,0,1,73.656,76.541Z" transform="translate(0.645 0.11)" style="fill:#8874b4"/><path d="M74.721,76.005a.537.537,0,1,0,.536.536A.537.537,0,0,0,74.721,76.005Z" transform="translate(0.645 0.11)" style="fill:#8874b4"/><path d="M75.522,92.476a.536.536,0,1,0-.537-.536A.537.537,0,0,0,75.522,92.476Z" transform="translate(0.645 0.11)" style="fill:#8874b4"/><path d="M58.613,105.465a1.571,1.571,0,0,1,1.571-1.571H70.606c.925-12.9,2.2-39.583-2.25-48.48l.236-.118c-2.218.422-7.606-3.487-7.606-3.487L58.028,55.3c-2.8,3.3-7.3-5.511-7.771-6.456a37.131,37.131,0,0,0-9.979,3.6c-.078.045-.155.123-.233.177-2.365,1.629-4.666,6.95-6.433,12.125-1.348,3.944-2.388,7.788-2.9,9.8,3.759,7.051,7.755,14.979,9.042,19.1,2.641,8.452-1.691,11.727-5.494,11.727-2.153-.664-4.085-2.39-5.817-4.771a6.617,6.617,0,0,0,3.494,4.241c4.341,1.863,7.007.2,8.6-1.971a13.855,13.855,0,0,0,2.172-5.1,10.184,10.184,0,0,0,3.676,9.2c.02.017.036.035.056.052H60.083A1.561,1.561,0,0,1,58.613,105.465Zm-16.2-17.18c4.337-14.153,1.831-17.684,1.8-17.718l.416-.326c.114.143,2.734,3.679-1.715,18.2Z" transform="translate(0.645 0.11)" style="fill:#8874b4"/><path d="M73.648,61.25a.537.537,0,1,0-.536-.536A.538.538,0,0,0,73.648,61.25Z" transform="translate(0.645 0.11)" style="fill:#8874b4"/><path d="M44.635,70.241l-.416.326c.026.034,2.532,3.565-1.8,17.718l.506.155C47.369,73.92,44.749,70.384,44.635,70.241Z" transform="translate(0.645 0.11)" style="fill:#36265b"/><path d="M90.3,86.211c-.019-.13-1.951-13.052-2.182-15.828-.222-2.667,3.065-6.217,3.1-6.253l-.386-.361c-.142.152-3.481,3.757-3.239,6.658.232,2.793,2.167,15.732,2.187,15.863l.259-.039h0Z" transform="translate(0.645 0.11)" style="fill:#36265b"/><path d="M71.96,87.71c.439-16.517-.61-27.449-3.115-32.5a1.773,1.773,0,0,1-.252.084h0l-.236.118c4.448,8.9,3.175,35.577,2.25,48.48h.534C71.45,99.605,71.8,93.837,71.96,87.71Z" transform="translate(0.645 0.11)" style="fill:#36265b"/><path d="M73.648,61.779a1.066,1.066,0,1,0-1.065-1.065A1.067,1.067,0,0,0,73.648,61.779Zm0-1.6a.537.537,0,1,1-.536.537A.538.538,0,0,1,73.648,60.177Z" transform="translate(0.645 0.11)" style="fill:#1b8b90"/><path d="M75.786,76.541a1.065,1.065,0,1,0-1.065,1.065A1.067,1.067,0,0,0,75.786,76.541Zm-1.065.537a.537.537,0,1,1,.536-.537A.537.537,0,0,1,74.721,77.078Z" transform="translate(0.645 0.11)" style="fill:#1b8b90"/><path d="M75.522,93.005a1.065,1.065,0,1,0-1.066-1.065A1.066,1.066,0,0,0,75.522,93.005Zm0-1.6a.536.536,0,1,1-.537.536A.537.537,0,0,1,75.522,91.4Z" transform="translate(0.645 0.11)" style="fill:#1b8b90"/><path d="M34.257,105.373c3.8,0,8.135-3.275,5.494-11.727-1.287-4.119-5.283-12.047-9.042-19.1-3.956-7.418-7.65-13.864-7.65-13.864S23.375,56.564,20,55.3s-9.086-4.649-9.508-7.4c0,0-2.325-.1.95,4.966,0,0-4.226-2.747-4.859-4.966s-1.691,1.057,0,3.487S1.334,46.3,1.612,49.274c.174,1.861,2.007,6.761,4.754,7.923S16.4,61.318,16.4,61.318,19.975,88.968,28.44,100.6C30.172,102.983,32.1,104.709,34.257,105.373Z" transform="translate(0.645 0.11)" style="fill:#ec7560"/><path d="M68.845,55.212c2.193-.784,5.06-6.255,5.06-6.255l5.569,3.064a32.9,32.9,0,0,0-.687-3.857c-.321-1.272-.758-2.453-1.32-2.8-1.232-.758-5-3.378-5.77-3.912l-.146-.1v5.177l1.479.951s-2.43,5.071-4.332,5.6-12.889-4.543-10.67-12.36a4.756,4.756,0,0,0-.646-.047c-1.732-.024-6.4.616-7.172,8.076l.047.094c.47.945,4.97,9.757,7.771,6.456l2.958-3.487s5.388,3.909,7.606,3.487h0A1.773,1.773,0,0,0,68.845,55.212Z" transform="translate(0.645 0.11)" style="fill:#36265b"/><path d="M61.37,25.042a.527.527,0,0,0,.728.171c1.454-.9,4.15-2.275,5.157-2.144a.529.529,0,0,0,.14-1.048c-1.721-.234-5.436,2.035-5.854,2.293A.529.529,0,0,0,61.37,25.042Z" transform="translate(0.645 0.11)" style="fill:#39255c"/><path d="M71.551,22.017a.532.532,0,0,0,.326-.112c1.079-.847,2.827-1.741,3.3-1.223a.528.528,0,1,0,.782-.711c-1.32-1.454-4.174.663-4.732,1.1a.528.528,0,0,0,.327.944Z" transform="translate(0.645 0.11)" style="fill:#39255c"/><path d="M71.806,23.58a.264.264,0,0,0-.511.136c.027.1.689,2.53,2.185,2.991a4.155,4.155,0,0,1,2.455,1.849.762.762,0,0,1-.065.714c-.545.856-2.471,1.117-3.168,1.146a.264.264,0,0,0,.011.528h.01c.114,0,2.789-.126,3.593-1.39a1.3,1.3,0,0,0,.116-1.181,4.588,4.588,0,0,0-2.8-2.172C72.42,25.827,71.812,23.6,71.806,23.58Z" transform="translate(0.645 0.11)" style="fill:#b84836"/><path d="M72.818,37.019c1.9,0,2.747-4.12,2.747-4.12l-6.339.422S70.917,37.019,72.818,37.019Z" transform="translate(0.645 0.11)" style="fill:#f8f7f2"/><ellipse cx="66.494" cy="26.824" rx="0.83" ry="1.798" transform="translate(-4.561 26.783) rotate(-21.849)" style="fill:#39255c"/><ellipse cx="74.925" cy="23.81" rx="0.83" ry="1.798" transform="translate(-2.834 29.705) rotate(-21.849)" style="fill:#39255c"/><path d="M88.812,104.235l.086-.341H60.184a1.562,1.562,0,0,0-.1,3.122c.036,0,.065.02.1.02H88.106Z" transform="translate(0.645 0.11)" style="fill:#5c0914"/><path d="M108.117,65.884l-6.22-.047a4.379,4.379,0,0,0-4.236,3.274l-1.3,5.153L92.59,89.239l-1.466,5.817L88.9,103.894l-.086.341,57.255-36.348a3.958,3.958,0,0,0-3.256-1.739h-.017l-14.649-.111Zm24.646,3.58c-.272,0-27.185.133-29.324.006a2.027,2.027,0,0,0-2.3,1.722l-2.252,9.6-.182-.043,2.25-9.59a2.235,2.235,0,0,1,2.494-1.876c2.133.127,29.041,0,29.312-.007Z" transform="translate(0.645 0.11)" style="fill:#870012"/><path d="M88.812,104.235l-.706,2.8h46.788a2.568,2.568,0,0,0,2.479-1.894l9.246-33.97a3.936,3.936,0,0,0-.552-3.285Z" transform="translate(0.645 0.11)" style="fill:#5c0914"/><path d="M103.45,69.283a2.235,2.235,0,0,0-2.494,1.876l-2.25,9.59.182.043,2.252-9.6a2.027,2.027,0,0,1,2.3-1.722c2.139.127,29.052,0,29.324-.006v-.188C132.491,69.278,105.583,69.41,103.45,69.283Z" transform="translate(0.645 0.11)" style="fill:#fff"/><g id="Capa_4" data-name="Capa 4"><path d="M114.376,82.636a2.653,2.653,0,0,1,1.436-1.406,2.687,2.687,0,0,1,1.753-.03,2.754,2.754,0,0,1,.6.272,3.074,3.074,0,0,1,1.436-.408,3.193,3.193,0,0,1,2.463,1.118,3.016,3.016,0,0,1,2.3.469,2.5,2.5,0,0,1,.529.544,3.436,3.436,0,0,1,3.839,2.493,2.709,2.709,0,0,1-4.338,2.554,2.075,2.075,0,0,1-.468-.529,3.046,3.046,0,0,1-1.254.015,2.94,2.94,0,0,1-.62-.2,3.043,3.043,0,0,1-2.116,1.269,3.206,3.206,0,0,1-2.055-.619,3.332,3.332,0,0,1-.408-.333,1.522,1.522,0,0,1-.9.129,1.024,1.024,0,0,1-.408-.182,2.972,2.972,0,0,1-1.564.816,3.09,3.09,0,0,1-2.947-1.269,2.644,2.644,0,0,1,2.561-4.4Z" transform="translate(0.645 0.11)" style="fill:none;stroke:#fff;stroke-miterlimit:10;stroke-width:0.200000002980232px"/></g><g id="Capa_5" data-name="Capa 5"><polyline points="128.94 87.778 128.804 87.642 128.955 86.524" style="fill:none;stroke:#fff;stroke-miterlimit:10;stroke-width:0.200000002980232px"/><circle cx="128.981" cy="86.344" r="0.136" style="fill:none;stroke:#fff;stroke-miterlimit:10;stroke-width:0.200000002980232px"/><circle cx="128.233" cy="85.733" r="0.136" style="fill:none;stroke:#fff;stroke-miterlimit:10;stroke-width:0.200000002980232px"/><circle cx="127.873" cy="87.133" r="0.136" style="fill:none;stroke:#fff;stroke-miterlimit:10;stroke-width:0.200000002980232px"/><circle cx="124.248" cy="87.179" r="0.136" style="fill:none;stroke:#fff;stroke-miterlimit:10;stroke-width:0.200000002980232px"/><circle cx="126.768" cy="87.748" r="0.195" style="fill:none;stroke:#fff;stroke-miterlimit:10;stroke-width:0.200000002980232px"/><circle cx="123.368" cy="82.67" r="0.195" style="fill:none;stroke:#fff;stroke-miterlimit:10;stroke-width:0.200000002980232px"/><circle cx="118.745" cy="84.178" r="0.236" style="fill:none;stroke:#fff;stroke-miterlimit:10;stroke-width:0.200000002980232px"/><circle cx="117.538" cy="85.442" r="0.208" style="fill:none;stroke:#fff;stroke-miterlimit:10;stroke-width:0.200000002980232px"/><circle cx="116.506" cy="83.362" r="0.239" style="fill:none;stroke:#fff;stroke-miterlimit:10;stroke-width:0.200000002980232px"/><circle cx="116.512" cy="82.279" r="0.239" style="fill:none;stroke:#fff;stroke-miterlimit:10;stroke-width:0.200000002980232px"/><circle cx="117.011" cy="81.752" r="0.239" style="fill:none;stroke:#fff;stroke-miterlimit:10;stroke-width:0.200000002980232px"/><circle cx="117.742" cy="81.741" r="0.239" style="fill:none;stroke:#fff;stroke-miterlimit:10;stroke-width:0.200000002980232px"/><circle cx="115.702" cy="83.764" r="0.239" style="fill:none;stroke:#fff;stroke-miterlimit:10;stroke-width:0.200000002980232px"/><circle cx="113.916" cy="84.852" r="0.239" style="fill:none;stroke:#fff;stroke-miterlimit:10;stroke-width:0.200000002980232px"/><circle cx="113.083" cy="85.538" r="0.239" style="fill:none;stroke:#fff;stroke-miterlimit:10;stroke-width:0.200000002980232px"/><circle cx="113.707" cy="85.663" r="0.239" style="fill:none;stroke:#fff;stroke-miterlimit:10;stroke-width:0.200000002980232px"/><circle cx="112.749" cy="86.416" r="0.239" style="fill:none;stroke:#fff;stroke-miterlimit:10;stroke-width:0.200000002980232px"/><circle cx="116.319" cy="84.954" r="0.208" style="fill:none;stroke:#fff;stroke-miterlimit:10;stroke-width:0.200000002980232px"/><circle cx="117.113" cy="84.342" r="0.208" style="fill:none;stroke:#fff;stroke-miterlimit:10;stroke-width:0.200000002980232px"/><circle cx="120.841" cy="84.546" r="0.128" style="fill:none;stroke:#fff;stroke-miterlimit:10;stroke-width:0.200000002980232px"/><circle cx="121.877" cy="82.772" r="0.22" style="fill:none;stroke:#fff;stroke-miterlimit:10;stroke-width:0.200000002980232px"/><circle cx="123.402" cy="83.344" r="0.238" style="fill:none;stroke:#fff;stroke-miterlimit:10;stroke-width:0.200000002980232px"/><circle cx="122.456" cy="84.018" r="0.297" style="fill:none;stroke:#fff;stroke-miterlimit:10;stroke-width:0.200000002980232px"/><polyline points="127.867 88.7 127.746 88.519 127.852 87.31" style="fill:none;stroke:#fff;stroke-miterlimit:10;stroke-width:0.200000002980232px"/><polyline points="129.148 85.164 128.622 85.164 128.32 85.587" style="fill:none;stroke:#fff;stroke-miterlimit:10;stroke-width:0.200000002980232px"/><polyline points="128.396 84.197 127.504 85.119 127.293 86.237 125.63 87.673 125.57 88.625" style="fill:none;stroke:#fff;stroke-miterlimit:10;stroke-width:0.200000002980232px"/><polyline points="127.126 83.547 126.643 85.874 124.663 87.506 124.572 87.824" style="fill:none;stroke:#fff;stroke-miterlimit:10;stroke-width:0.200000002980232px"/><polyline points="126.356 83.29 125.993 85.164 123.484 87.189 114.75 87.189 114.236 86.131 114.659 84.408 115.464 83.934" style="fill:none;stroke:#fff;stroke-miterlimit:10;stroke-width:0.200000002980232px"/><polyline points="121.701 88.519 121.157 88.126 119.298 88.126 118.936 88.519" style="fill:none;stroke:#fff;stroke-miterlimit:10;stroke-width:0.200000002980232px"/><polyline points="125.54 83.305 125.207 84.877 123.137 86.539 119.721 86.539 119.132 85.391 119.631 83.728 119.132 82.958 118.679 82.958 117.334 84.151" style="fill:none;stroke:#fff;stroke-miterlimit:10;stroke-width:0.200000002980232px"/><polygon points="121.202 87.597 122.23 87.597 122.23 84.892 121.187 84.892 121.202 87.597" style="fill:none;stroke:#fff;stroke-miterlimit:10;stroke-width:0.200000002980232px"/><polyline points="125.011 82.761 124.451 84.726 122.804 85.95 120.432 85.95 119.873 84.983 120.265 83.335 119.827 82.414 117.53 82.414 116.744 83.139" style="fill:none;stroke:#fff;stroke-miterlimit:10;stroke-width:0.200000002980232px"/><polyline points="117.953 81.733 118.8 81.733 118.89 81.945 120.19 81.945 120.87 83.275 120.522 84.726 120.764 85.345 122.819 85.345 123.605 84.711 123.923 83.698 123.59 83.441" style="fill:none;stroke:#fff;stroke-miterlimit:10;stroke-width:0.200000002980232px"/><polyline points="124.149 82.414 123.938 82.731 123.605 82.731" style="fill:none;stroke:#fff;stroke-miterlimit:10;stroke-width:0.200000002980232px"/><path d="M120.1,81.109a.758.758,0,0,0,.2.378.945.945,0,0,0,1.028.136" transform="translate(0.645 0.11)" style="fill:none;stroke:#fff;stroke-miterlimit:10;stroke-width:0.200000002980232px"/><polyline points="121.765 82.988 121.61 83.487 121.792 83.728 122.154 83.94" style="fill:none;stroke:#fff;stroke-miterlimit:10;stroke-width:0.200000002980232px"/><line x1="115.702" y1="81.764" x2="116.714" y2="81.764" style="fill:none;stroke:#fff;stroke-miterlimit:10;stroke-width:0.200000002980232px"/><polyline points="116.246 82.278 115.747 82.278 115.218 83.517 113.616 83.517 112.18 85.648 111.621 85.753" style="fill:none;stroke:#fff;stroke-miterlimit:10;stroke-width:0.200000002980232px"/><polyline points="111.621 85.33 111.818 85.27 112.483 83.917 112.279 83.804" style="fill:none;stroke:#fff;stroke-miterlimit:10;stroke-width:0.200000002980232px"/><line x1="112.74" y1="86.569" x2="112.679" y2="87.869" style="fill:none;stroke:#fff;stroke-miterlimit:10;stroke-width:0.200000002980232px"/><line x1="113.133" y1="88.217" x2="116.427" y2="88.217" style="fill:none;stroke:#fff;stroke-miterlimit:10;stroke-width:0.200000002980232px"/><polyline points="118.664 84.469 118.271 85.995 117.802 86.433 115.617 86.433 115.407 85.776 115.43 85.708 116.132 85.096" style="fill:none;stroke:#fff;stroke-miterlimit:10;stroke-width:0.200000002980232px"/><path d="M112.971,84.646a.42.42,0,0,0-.575.544" transform="translate(0.645 0.11)" style="fill:none;stroke:#fff;stroke-miterlimit:10;stroke-width:0.200000002980232px"/><polyline points="113.616 85.965 113.223 87.37 113.329 87.899 116.812 87.899" style="fill:none;stroke:#fff;stroke-miterlimit:10;stroke-width:0.200000002980232px"/></g><line x1="126.079" y1="28.779" x2="160.698" y2="0.387" style="fill:none;stroke:#8e0000;stroke-miterlimit:10;stroke-dasharray:5"/></svg>