<svg id="Capa_1" data-name="Capa 1" xmlns="http://www.w3.org/2000/svg" width="292.951" height="318.285" viewBox="0 0 292.951 318.285"><path d="M111.04,1.6a9.288,9.288,0,0,1,8.949,9.278V73.593a9.291,9.291,0,0,1-6.27,8.782,9.263,9.263,0,0,1-1.569,2.834,154.672,154.672,0,0,1,28.893,31.411h16.28c.036-.456.352-1.824,2.906-1.54a1.562,1.562,0,0,1,.678-1.43c.572-.424,1.308-.078,1.838.352l2.9-1.817a9.073,9.073,0,0,0-.182-1.175c-.043.012-.075.046-.121.046a.512.512,0,0,1-.067,0,.521.521,0,0,1-.451-.584,1.971,1.971,0,0,1,.375-.914,8.751,8.751,0,0,1,.059-1.061c-4.82-4.159-5.69-11-2.43-13.993,2.446-2.242,5.775.544,5.775.544s-.149-3.495,5.707-4.213c6.658-.815,10.342,5.368,10.342,5.368,4.667-.884,5.824,1.752,6,2.2,0,.013.022.024.024.037.009.054,0,.032-.024-.037-.166-.382-1.74-.575-1.74-.575,3.872,7.474.272,16.713-.476,17.529a5.326,5.326,0,0,0-.678,1.262h19.5a6.669,6.669,0,0,1,5.756,3.325,6.689,6.689,0,0,1,6.541,6.683V194.9a6.7,6.7,0,0,1-6.7,6.7H168.265l.009.714c.006.551.04,1.095.041,1.648,0,.933.009,1.906-.029,2.849-.009-.034-.016-.069-.024-.1a153.441,153.441,0,0,1-52.6,113.181H292.99V1.6Z" transform="translate(-0.039 -1.604)" style="fill:none"/><path d="M.662,37.639,21.8,30.814l6.542,15.41c.786.732,1.639,1.5,2.328,2.058.3.243.733.628,1.236,1.114V16.638a9.29,9.29,0,0,1,6.269-8.781A9.288,9.288,0,0,1,46.612,1.6H.566v49.25q2.525-.226,5.071-.374Z" transform="translate(-0.039 -1.604)" style="fill:none"/><path d="M55.336,222.519c.513-.176.9-1.922.784-3.92q-1.566-.03-3.133.029C54.182,221.1,54.8,222.7,55.336,222.519Z" transform="translate(-0.039 -1.604)" style="fill:#f1f8f9"/><path d="M168.262,206.708c-.431-1.69-.819-3.4-1.2-5.108H136.846a6.7,6.7,0,0,1-3.746-1.138,23.076,23.076,0,0,0,4.621,5.878c2.866,2.368,7.885,2.782,9.806-.386-1.39,3.524-2.79,7-4.179,10.514-3.552,8.945-7.075,17.851-10.626,26.8-.611,1.57-1.225,3.123-1.838,4.679l1.294-.224a4.856,4.856,0,0,1,5.188,2.68l.582-.1a4.788,4.788,0,0,1,5.522,5.808,7.351,7.351,0,0,1-1.114,2.394l-.158.224c.79,1.942,3.261,3.831,2.3,5.731-.415.847-1.37,1.251-2.133,1.81-5.356,3.966-.2,14.442-5.626,18.3-1.892,1.347-4.43,1.28-6.746,1.078a4.337,4.337,0,0,1-1.612-.347c-2.133-1.059-1.284-4.371.318-6.133s3.822-3.533,3.591-5.9c-.014-.133-.042-.265-.069-.4l-29.156,41.318a12.256,12.256,0,0,1-13.715,4.606,6.537,6.537,0,0,1-4.3-.963l-3.678-2.568a12.55,12.55,0,0,1-1.125-.7L57.421,298.53l-2.173-1.518.029.012-31.755-22.3-.075-.054c-3.363-2.423-1.9-7.776,2.184-8.485l11.726-2.032a8.353,8.353,0,0,1,2.151-5.1c.36-.375,9.951-1.576,9.951-1.576-2.574-3.907-12.248,1.557-12.774,1.3s3.214-7.788,3.9-8.207,7.951,2.452,9.685,2.547a2.748,2.748,0,0,0,1.41-.221c.123-.557.242-1.1.354-1.623-.719-1.1-10-3.349-10-3.349a21.374,21.374,0,0,1,7.89-2.393,5.694,5.694,0,0,1,3.094.547c.005-.042.015-.106.018-.143.219-2.664-3.183-2.545-5.852-2.764a5.72,5.72,0,0,1-4.071-2.437s-2.352-5.336-2.7-6.726a3.1,3.1,0,0,1-.085-.494c-.874-1.2-1.345-2.206-.945-2.26.162-.021.67-.042,1.366-.066a1.632,1.632,0,0,1,.632-1.328c.451-.313,1.294.484,1.294.484l.579.754a36.418,36.418,0,0,0,4.979-.414c1.729-.415,4.28-2.046,3.135-2.323a10.288,10.288,0,0,0-5.06.37c-1.826.613-6.377,2.02-8.681,0s-4.329-4.273-3.853-4.4,4.343.709,6.052.6,5.939.679,6.874.308.652-2.482-1.179-2.36a32.6,32.6,0,0,1-9.582-1.041c-.537.192-1.078.375-1.609.583-2.509.983-5.057,2.167-7.74,2.061-4.324-.173-7.75-3.582-10.713-6.711-6.282-6.74-13.058-15.126-10.9-24.031.763-3.13,2.577-6.191,1.911-9.359-.386-1.849-1.64-3.447-1.988-5.324-.492-2.436.589-4.911,1.843-7.067a46.972,46.972,0,0,1,16.8-17.061c-.415-4.111,2.471-8.011,6.1-9.994,3.629-2.012,7.885-2.5,12-2.994,7.527-.877,15.065-1.714,22.631-2.59a4.261,4.261,0,0,1,2.654.279c1.255.761,1.361,2.5,1.747,3.928A7.925,7.925,0,0,0,78.676,148.7c1.467,5.017,7.325,6.962,12.421,8.175a9.827,9.827,0,0,1,2.258-8.252c1.815,4.555,7.567,5.912,12.489,6.047,4.882.095,10.262-.235,14.032,2.775.022-.056.036-.11.059-.165-.511-3.226-1.056-6.452-1.6-9.716a5.022,5.022,0,0,0-1.361-3.273c-1.254-1.04-3.069-.664-4.709-.626a11.228,11.228,0,0,1-9.458-4.621,38.063,38.063,0,0,1,21.377-2.167,55.846,55.846,0,0,1-9.236-15.77c-.531,2.368-1.014,4.7-1.535,7.066-.946-2.329-2.065-4.871-4.3-5.95-2.268-1.107-5.752.559-5.3,3,.212,1.223,1.293,2.128,1.747,3.273.878,2.157-.656,4.66-2.751,5.671-2.084,1.04-4.526.973-6.833.905-.241,1.955-.482,3.9-.762,5.883-.7-1.81-1.438-3.582-2.133-5.392-.975.665-1.988,1.29-2.963,1.955-1.949-2.051-3.87-4.063-5.79-6.085-1.12,1.107-2.23,2.262-3.349,3.408q-5.3-4.231-10.578-8.415a18.819,18.819,0,0,0-5.163-3.264c-5.868-2.156-12.141,1.81-16.532,6.2-2.259,2.291-4.459,5.006-4.594,8.213-3.417-.9-6.872,1.222-10.394,1.261a8.793,8.793,0,1,1,.405-17.571c3.243.211,6.341,2.156,9.555,1.6a9.775,9.775,0,0,0-6.351-10.918q14.332-6.746,28.693-13.451c1.187-1.848-1.294-4-3.455-4.207-2.2-.212-4.71.212-6.283-1.358a3.786,3.786,0,0,1-.5-4.276H35.175l-.66-2.537a9.249,9.249,0,0,1-2.934-6.758V74.827L28.672,63.642l2.5-1.183L12.789,69.9l-.068-.176-.534-1.373c-.146-.031-.294-.042-.441-.083a4.933,4.933,0,0,0,4.787,4.862C11.814,76.037,5.711,74.5.166,74.974V319.889H115.531A153.292,153.292,0,0,0,168.262,206.708ZM2.7,84c2.056-.472,3.841-1.685,5.762-2.571s4.208-1.405,6.09-.471c.56,1.4-1.052,2.667-2.471,3.167a17.33,17.33,0,0,1-8.522.742Z" transform="translate(-0.039 -1.604)" style="fill:#f1f8f9"/><path d="M62.979,223.644c.009-.028.022-.082.035-.129l-.255,0C62.848,223.768,62.923,223.828,62.979,223.644Z" transform="translate(-0.039 -1.604)" style="fill:#f1f8f9"/><path d="M51.753,238.511c1.214-.773,2.823-1.818,2.733-2.183-.134-.535-.894-1.17-2.052-.646a16.05,16.05,0,0,1-2.912.781A4.247,4.247,0,0,0,51.753,238.511Z" transform="translate(-0.039 -1.604)" style="fill:#f1f8f9"/><path d="M122.151,166.066a7.952,7.952,0,0,1-2.629-4.312c-2.362,3.172-1.44,7.742.335,11.292,1.567,3.135,3.752,6.056,4.766,9.383V170.511C123.816,169.021,122.977,167.547,122.151,166.066Z" transform="translate(-0.039 -1.604)" style="fill:#f1f8f9"/><path d="M46.687,260.909a7.173,7.173,0,0,0-3.439,2.274l6.634-1.152c.141-.619.288-1.256.441-1.926C49.279,260.285,48.047,260.559,46.687,260.909Z" transform="translate(-0.039 -1.604)" style="fill:#f1f8f9"/><path d="M139.348,262.861l-1.842,2.617A6.93,6.93,0,0,0,139.348,262.861Z" transform="translate(-0.039 -1.604)" style="fill:#f1f8f9"/><path d="M60.882,243.27a9.176,9.176,0,0,1-2.133.229,22.7,22.7,0,0,1,.223,7.092c-.033.53-.074,1.761-.117,3.335.449,1.9,1.879,1.312,2.291,1.032.446-.3,2.37-5.183,5.249-6.2,2.518-.89,5.369,1.818,6.046,2.513,1.255-.484,2.941-1.126,4.688-1.788-.893-4.247-3.4-7.906-7.55-8.432.587-1.493,1.184-3.023,1.772-4.554-1.108.2-2.224.414-3.3.625a17.646,17.646,0,0,0,1.553-5.484,16,16,0,0,1-3.208,1.437S66.661,241.942,60.882,243.27Z" transform="translate(-0.039 -1.604)" style="fill:#f1f8f9"/><path d="M168.274,202.314l-.009-.714h-.009C168.259,201.839,168.271,202.075,168.274,202.314Z" transform="translate(-0.039 -1.604)" style="fill:#f1f8f9"/><path d="M65.96,254.215a10.019,10.019,0,0,1,2.384-.521,9.362,9.362,0,0,1,2.968-1.985c.255-.1.568-.222.9-.353A5.534,5.534,0,0,0,65.96,254.215Z" transform="translate(-0.039 -1.604)" style="fill:#f1f8f9"/><path d="M62.261,259.88l2.067-.359c.03-.062.077-.146.1-.2.222-.475.5-.993.794-1.521a6.1,6.1,0,0,0-1.876.174C61.7,258.485,62.115,259.584,62.261,259.88Z" transform="translate(-0.039 -1.604)" style="fill:#f1f8f9"/><path d="M5.637,50.48q-2.548.144-5.071.374v10.3l9.1-.283Z" transform="translate(-0.039 -1.604)" style="fill:#f1f8f9"/><path d="M108.212,88.04l.236.6h-5.872a10.6,10.6,0,0,1-1.812,5.441,18.144,18.144,0,0,1,17.745,1.069c2.234,1.463,4.217,3.476,6.826,4.034a4.893,4.893,0,0,0,1.743.106A154.682,154.682,0,0,1,141,116.62h.042A154.672,154.672,0,0,0,112.15,85.209,9.3,9.3,0,0,1,108.212,88.04Z" transform="translate(-0.039 -1.604)" style="fill:#f1f8f9"/><path d="M16.894,73.126a4.927,4.927,0,0,1-4.775-4.862c.146.041.293.052.44.083l-2.9-7.477-9.1.283V74.974C6.1,74.5,12.186,76.037,16.894,73.126Z" transform="translate(-0.039 -1.604)" style="fill:#c93e51"/><path d="M12.456,84.121c1.415-.5,3.023-1.771,2.465-3.167-1.878-.934-4.16-.414-6.076.471S5.148,83.524,3.1,84l.857.867A17.251,17.251,0,0,0,12.456,84.121Z" transform="translate(-0.039 -1.604)" style="fill:#c93e51"/><path d="M124.623,167.809a13.922,13.922,0,0,1-2.472-1.743c.826,1.481,1.665,2.955,2.472,4.445Z" transform="translate(-0.039 -1.604)" style="fill:#c93e51"/><path d="M124.623,150.294V123.319a6.7,6.7,0,0,1,6.7-6.7H141A154.682,154.682,0,0,0,127.078,99.3a4.893,4.893,0,0,1-1.743-.106c-2.609-.558-4.592-2.571-6.826-4.034a18.144,18.144,0,0,0-17.745-1.069,10.6,10.6,0,0,0,1.812-5.441H56.058a3.792,3.792,0,0,0,.494,4.276c1.57,1.57,4.073,1.146,6.268,1.358,2.157.212,4.631,2.359,3.447,4.207q-14.3,6.687-28.624,13.451a9.775,9.775,0,0,1,6.335,10.918c-3.206.558-6.3-1.387-9.532-1.6a8.793,8.793,0,1,0-.4,17.571c3.514-.039,6.961-2.157,10.369-1.261.135-3.207,2.33-5.922,4.583-8.213,4.381-4.391,10.639-8.357,16.493-6.2a18.758,18.758,0,0,1,5.151,3.264q5.271,4.174,10.553,8.415c1.116-1.146,2.224-2.3,3.34-3.408,1.916,2.022,3.832,4.034,5.777,6.085.973-.665,1.984-1.29,2.956-1.955.693,1.81,1.425,3.582,2.128,5.392.279-1.983.52-3.928.761-5.883,2.3.068,4.737.135,6.816-.905,2.089-1.011,3.62-3.514,2.744-5.671-.452-1.145-1.531-2.05-1.743-3.273-.452-2.436,3.024-4.1,5.286-3,2.224,1.079,3.341,3.621,4.285,5.95.52-2.368,1-4.7,1.531-7.066a55.85,55.85,0,0,0,9.214,15.77,37.888,37.888,0,0,0-21.326,2.167,11.191,11.191,0,0,0,9.435,4.621c1.637-.038,3.447-.414,4.7.626a5.033,5.033,0,0,1,1.357,3.273c.545,3.264,1.089,6.49,1.6,9.716a12.1,12.1,0,0,1,.961-1.871C122.015,153.821,123.247,152.093,124.623,150.294Z" transform="translate(-0.039 -1.604)" style="fill:#c93e51"/><path d="M167.063,201.6c.382,1.71.769,3.418,1.2,5.108.008.034.015.069.024.1.038-.943.029-1.916.029-2.849,0-.553-.035-1.1-.041-1.648,0-.239-.015-.475-.018-.714Z" transform="translate(-0.039 -1.604)" style="fill:#c93e51"/><path d="M131.164,198.276a6.69,6.69,0,0,1-6.541-6.684v-9.163c-1.014-3.327-3.2-6.248-4.766-9.383-1.775-3.55-2.7-8.12-.335-11.292a7.514,7.514,0,0,1,.469-4.313c-3.76-3.01-9.128-2.68-14-2.775-4.91-.135-10.648-1.492-12.458-6.047a9.841,9.841,0,0,0-2.253,8.252c-5.084-1.213-10.928-3.158-12.392-8.175a7.9,7.9,0,0,1-9.984-5.141c-.385-1.425-.491-3.167-1.743-3.928a4.24,4.24,0,0,0-2.647-.279c-7.549.876-15.068,1.713-22.578,2.59-4.1.491-8.348.982-11.968,2.994-3.62,1.983-6.5,5.883-6.085,9.994A46.916,46.916,0,0,0,7.122,171.987c-1.252,2.156-2.33,4.631-1.839,7.067.347,1.877,1.6,3.475,1.983,5.324.665,3.168-1.145,6.229-1.906,9.359-2.157,8.905,4.6,17.291,10.87,24.031,2.956,3.129,6.374,6.538,10.687,6.711,2.677.106,5.219-1.078,7.722-2.061.529-.208,1.069-.391,1.6-.583-2.576-.748-4.907-1.994-5.865-4.075a48.524,48.524,0,0,1,4.8-2.24c1.528-.512,3.454-2.183,6.4.124s5.4,4.066,5.029,1.782-5.326-6.287-6.127-6.3-2.671-.685.164-1.066S46.287,207.7,49.822,213a45.883,45.883,0,0,1,3.165,5.625q1.567-.058,3.133-.029a9.373,9.373,0,0,0-1.136-4.2c-1.74-2.9-6.155-6.053-5.564-6.685s6.9-.741,8.592.874,3.137,4.615,3.7,8.838a47.457,47.457,0,0,0,1.044,6.093l.255,0c.3-1.129,1.68-7.5.8-9.686-.919-2.272-3.548-5.85-2.985-6.232s5.769,1.8,6.341,3.325.916,8.659.109,10.426.972,3.124,2.044.585,1.112-7.273,1.076-8,2.107.148,2.877,1.764c.692,1.454,4.51,11.08-3.673,15.944a17.646,17.646,0,0,1-1.553,5.484c1.079-.211,2.195-.423,3.3-.625-.588,1.531-1.185,3.061-1.772,4.554,4.151.526,6.657,4.185,7.55,8.432l1.171-.444c.08-.253.171-.517.274-.8a15,15,0,0,1-.493-2.481,4.7,4.7,0,0,1,.877-3.4s1.635-1.22,3.536-2.756c-.13-.718-.293-1.607-.469-2.545-2.321,2.02-4.35,4.14-4.35,4.14-.765-3.752,1.356-7.094,3.405-9.138-.415-2.657-.527-5.171-.144-6.174a8.744,8.744,0,0,0,.468-1.92c-.015,0-.029.01-.044.006a.383.383,0,0,1-.064-.018.521.521,0,0,1-.32-.664,1.968,1.968,0,0,1,.553-.811c.02-.477.053-1.315.088-2.258-.075.7-.121,1.218-.121,1.218-2.119-1.359-.672-6.267-.672-6.267-3.39-5.46.572-9.717,4.16-10.457,3.181-.656,5.371,2.639,6.458,2.815a2.459,2.459,0,0,0,2.015-.818l-.023,0,.052-.009a22.241,22.241,0,0,1,2.552-.5c14.676-.6,13.25,10.3,12.578,14.477a12.422,12.422,0,0,1-1.07,3.057c.561.274,1.556.864.181,1.048-.252.034-.513.085-.777.148q-.323.617-.678,1.238a3,3,0,0,1,.592.85c.175-.129.351-.252.524-.387,2.468-1.925,6.1-1.112,7.3-.267s2.445,4.16,2.445,4.16a12.11,12.11,0,0,0-3.058-1.226c-1.155-.275-4.459.091-6.791.586a8.65,8.65,0,0,1-.5,2.212c-.048.131-.111.247-.163.373,2.512.2,8.467.683,10.449,1.04,2.535.457,2.361,2.912,2.542,5.824s-.029,4.784-.681,3.991-11.008-7.037-12.648-7.7a5.459,5.459,0,0,0-1.72-.235,3.071,3.071,0,0,1-2.971.8,2.246,2.246,0,0,1-.553-.311c-.261.2.031.427,1.339.648,2.548.43,6.265,2.89,9.2,5.109,7,1.589,12.607,3.269,12.607,3.269s2.073.631,2.934,3.709l3.851-.669c.613-1.556,1.225-3.109,1.834-4.679,3.544-8.944,7.058-17.85,10.6-26.8,1.386-3.514,2.782-6.99,4.169-10.514-1.916,3.168-6.923,2.754-9.782.386a23.08,23.08,0,0,1-4.61-5.878A6.711,6.711,0,0,1,131.164,198.276Z" transform="translate(-0.039 -1.604)" style="fill:#c93e51"/><path d="M137.506,265.478l-5.2,7.389a3.623,3.623,0,0,1,.069.4c.231,2.369-1.983,4.14-3.581,5.9s-2.446,5.074-.318,6.133a4.321,4.321,0,0,0,1.608.347c2.31.2,4.843.269,6.73-1.078,5.411-3.861.269-14.337,5.613-18.3.761-.559,1.714-.963,2.128-1.81.961-1.9-1.5-3.789-2.293-5.731l-2.912,4.137A6.93,6.93,0,0,1,137.506,265.478Z" transform="translate(-0.039 -1.604)" style="fill:#c93e51"/><path d="M213.96,191.592c0,.083-.022.16-.025.243v6.427h-4.822c-.017-.081-.035-.164-.052-.246a6.61,6.61,0,0,1-1.8.276H131.323c-.055,0-.105-.015-.159-.016a6.583,6.583,0,0,0,5.757,3.324h75.937a6.7,6.7,0,0,0,6.7-6.7V126.628a6.689,6.689,0,0,0-6.541-6.683,6.625,6.625,0,0,1,.943,3.374Z" transform="translate(-0.039 -1.604)" style="fill:#001b2e"/><path d="M131.323,116.62a6.7,6.7,0,0,0-6.7,6.7v26.975A185.687,185.687,0,0,1,145.235,128l.568.945c1.242-1.091,3.532-3.232,4.261-4.787,1.016-2.168,2.846-8.606,7.251-7.387,0,0,0-.066.008-.154h-26Z" transform="translate(-0.039 -1.604)" style="fill:#9e2e3d"/><path d="M160.887,123.09s-.59,2.291-.251,2.426a1.553,1.553,0,0,0,1.7-.09l-3.27-5.371Z" transform="translate(-0.039 -1.604)" style="fill:#9e2e3d"/><path d="M186.461,120.186c2.665-.963,9.812-3.005,12.991,1.423,3.945,5.5.647,9.249,1.357,10.929s2.783,5.176,2.588,8.863c0,0,6.152,5.132,10.538,9.613v40.821c0-.083.025-.16.025-.243V123.319a6.774,6.774,0,0,0-6.7-6.7h-19.5C187.285,117.734,186.764,119.259,186.461,120.186Z" transform="translate(-0.039 -1.604)" style="fill:#9e2e3d"/><path d="M203.828,186.965c.829,2.209,2.32,6.914,3.462,11.3H157.805a16.048,16.048,0,0,1-.584-7.871c1.468-11.009.491-20.429-1.224-23.855,0,0-11.009,5.016-21.163,4.16a25.763,25.763,0,0,1-10.211-2.887v23.783a6.69,6.69,0,0,0,6.541,6.684c.054,0,.1.016.159.016h75.938a6.61,6.61,0,0,0,1.8-.276c-1.572-7.632-3.863-16.129-7-20.349A37.582,37.582,0,0,0,203.828,186.965Z" transform="translate(-0.039 -1.604)" style="fill:#9e2e3d"/><path d="M166.435,123.869l.209.031c-.02-.042-.037-.084-.055-.126Z" transform="translate(-0.039 -1.604)" style="fill:#9e2e3d"/><path d="M154.519,142.792c.022.02.019.051.035.074,1.673-1.145,11.436-7.833,12.219-8.418.855-.643.138-3.929,3.275-7.067a6.526,6.526,0,0,0,1.884.59,7.138,7.138,0,0,1-3.845-1.98c-.3.067-.666.147-1.081.265-1.694.48-4.27,3.462-5.354,3.869s-4.134.881-5.218,1.152c-.82.205-4.23,3.852-5.848,5.623l3.533,5.873A.333.333,0,0,1,154.519,142.792Z" transform="translate(-0.039 -1.604)" style="fill:#9e2e3d"/><path d="M165.712,119.571c.019-1.393.12-4.354-.01-6.6l-2.451,1.535.028.032c.406.542.745,2.575-1.085,2.372,0,0,2.508,2.44,1.762,2.914-.534.34-3.123-.208-4.548-.546l3.4,5.576c.046-.075.093-.132.137-.218.312-.625,1.254-.857,2.315-.856l1.068-.659A10.654,10.654,0,0,1,165.712,119.571Z" transform="translate(-0.039 -1.604)" style="fill:#4b67ff"/><path d="M166.323,123.121l-1.068.659a8.437,8.437,0,0,1,1.18.089l.154-.095C166.491,123.556,166.4,123.338,166.323,123.121Z" transform="translate(-0.039 -1.604)"/><path d="M159.408,119.278c-.369-.088-.656-.16-.811-.2.03.105.063.23.095.352l.375.625,3.27,5.371a2.2,2.2,0,0,0,.466-.572Z" transform="translate(-0.039 -1.604)"/><path d="M165.7,112.971c-.016-.272-.032-.54-.055-.786l-2.9,1.817a3.249,3.249,0,0,1,.506.5Z" transform="translate(-0.039 -1.604)"/><path d="M150.064,124.161c-.729,1.555-3.019,3.7-4.261,4.787l4.783,7.952c1.618-1.771,5.028-5.418,5.848-5.623,1.084-.271,4.134-.746,5.218-1.152s3.66-3.389,5.354-3.869c.415-.118.776-.2,1.081-.265a7.457,7.457,0,0,1-1.443-2.091l-.209-.031a8.437,8.437,0,0,0-1.18-.089c-1.061,0-2,.231-2.315.856-.044.086-.091.143-.137.218a2.2,2.2,0,0,1-.466.572,1.553,1.553,0,0,1-1.7.09c-.339-.135.251-2.426.251-2.426l-1.82-3.035-.375-.625c.287,1.068.6,2.69.152,3.545a1.1,1.1,0,0,1-.692.573,1.04,1.04,0,0,1-.275.037,1.165,1.165,0,0,1-.582-.165c-.864-.5-1.564-2.11-1.971-3.264a4.536,4.536,0,0,1-2.14,2.088.348.348,0,1,1-.278-.638,3.524,3.524,0,0,0,2.028-2.759.348.348,0,0,1,.684-.074c.257.95,1.123,3.528,2.023,4.043a.39.39,0,0,0,.588-.165c.443-.842-.208-3.173-.5-4a.348.348,0,0,1,.657-.229c.028.081.111.323.208.656.155.04.442.112.811.2,1.425.338,4.014.886,4.548.546.746-.474-1.762-2.914-1.762-2.914,1.83.2,1.491-1.83,1.085-2.372l-.028-.032a3.249,3.249,0,0,0-.506-.5c-.53-.43-1.266-.776-1.838-.352a1.562,1.562,0,0,0-.678,1.43c-2.554-.284-2.87,1.084-2.906,1.54-.007.088-.008.154-.008.154C152.91,115.555,151.08,121.993,150.064,124.161Zm9.144,1.207a.348.348,0,1,1-.4.571c-1.18-.82-5.494-.237-7.057.056a.347.347,0,1,1-.128-.683C152.23,125.2,157.577,124.235,159.208,125.368Z" transform="translate(-0.039 -1.604)" style="fill:#ffc1a4"/><path d="M158.389,118.422a.348.348,0,0,0-.657.229c.289.827.94,3.158.5,4a.39.39,0,0,1-.588.165c-.9-.515-1.766-3.093-2.023-4.043a.348.348,0,0,0-.684.074,3.524,3.524,0,0,1-2.028,2.759.348.348,0,1,0,.278.638,4.536,4.536,0,0,0,2.14-2.088c.407,1.154,1.107,2.769,1.971,3.264a1.165,1.165,0,0,0,.582.165,1.04,1.04,0,0,0,.275-.037,1.1,1.1,0,0,0,.692-.573c.45-.855.135-2.477-.152-3.545-.032-.122-.065-.247-.095-.352C158.5,118.745,158.417,118.5,158.389,118.422Z" transform="translate(-0.039 -1.604)" style="fill:#ea8f7a"/><path d="M151.348,125.718a.348.348,0,0,0,.406.277c1.563-.293,5.877-.876,7.057-.056a.348.348,0,1,0,.4-.571c-1.631-1.133-6.978-.17-7.582-.056A.348.348,0,0,0,151.348,125.718Z" transform="translate(-0.039 -1.604)" style="fill:#ea8f7a"/><path d="M170.389,133.107a40.15,40.15,0,0,0,3.65-2.189c.953-.818.818-2.787.818-2.787-.421.028-.808.022-1.191.013.215.006.424.016.658.012A7.656,7.656,0,0,0,170.389,133.107Z" transform="translate(-0.039 -1.604)" style="fill:#015130"/><path d="M180.238,105.877c.514,3.554,2.511,7.489,2.584,5.457s4.209-4.762,5.576-.442-3.148,5.959-3.148,5.959a19.489,19.489,0,0,0,.209,3.726c.061-.027.416-.179,1-.391.3-.927.824-2.452,1.3-3.566a5.326,5.326,0,0,1,.678-1.262c.748-.816,4.348-10.055.476-17.529,0,0,1.574.193,1.74.575-.181-.453-1.338-3.089-6-2.2,0,0-3.684-6.183-10.342-5.368-5.856.718-5.707,4.213-5.707,4.213s-3.329-2.786-5.775-.544c-3.26,2.988-2.39,9.834,2.43,13.993a30.4,30.4,0,0,1,.967-4.481C169.538,109.1,180.238,105.877,180.238,105.877Z" transform="translate(-0.039 -1.604)" style="fill:#02004e"/><path d="M190.683,98.441c0-.013-.019-.024-.024-.037C190.686,98.473,190.692,98.5,190.683,98.441Z" transform="translate(-0.039 -1.604)" style="fill:#02004e"/><path d="M165.712,119.571a10.654,10.654,0,0,0,.611,3.55c.078.217.168.435.266.653.018.042.035.084.055.126a7.457,7.457,0,0,0,1.443,2.091,7.138,7.138,0,0,0,3.845,1.98c.1.018.2.035.311.052.286.045.588.077.9.1.166.012.344.017.523.023.383.009.77.015,1.191-.013,5.6-.612,7.937-3.982,7.937-3.982-1.238,5.993-8.755,6.769-8.755,6.769a40.15,40.15,0,0,1-3.65,2.189,6.673,6.673,0,0,0-.159,1.953s10.46,3.34,17.093.818l.007,0c2.48-2.378,3.561-3.413,4.04-3.871h0s-5.39-4.14-5.6-9.643a15.562,15.562,0,0,1-.343-1.77l.032-.014a19.489,19.489,0,0,1-.209-3.726s4.515-1.638,3.148-5.959-5.5-1.589-5.576.442-2.07-1.9-2.584-5.457c0,0-10.7,3.221-14.011-1.865a30.4,30.4,0,0,0-.967,4.481,8.751,8.751,0,0,0-.059,1.061,1.744,1.744,0,0,1,.373-.421,2.832,2.832,0,0,1,2.015-.377.522.522,0,0,1-.19,1.026,1.826,1.826,0,0,0-1.213.2.858.858,0,0,0-.325.622.5.5,0,0,1-.4.41,9.073,9.073,0,0,1,.182,1.175c.023.246.039.514.055.786C165.832,115.217,165.731,118.178,165.712,119.571Zm6.815,3.3a2.994,2.994,0,0,1-2.957-2.557,12.4,12.4,0,0,0,4.874-.959C176.4,118.356,174.285,123.03,172.527,122.871Zm1.041-10.5c-.047-.635.286-1.177.744-1.211s.867.454.914,1.088-.287,1.177-.745,1.211S173.615,113,173.568,112.37Zm11.386-1.751a2.986,2.986,0,0,1,2.4.711,1.8,1.8,0,0,1,.16,1.784.348.348,0,0,1-.329.237.338.338,0,0,1-.112-.019.348.348,0,0,1-.218-.441,1.168,1.168,0,0,0-.044-1.126c-.386-.484-1.42-.492-1.787-.454a.348.348,0,0,1-.074-.692Zm-11.6-2.047a4.746,4.746,0,0,1,5.194.911.522.522,0,0,1-.747.728,3.743,3.743,0,0,0-4.018-.688.522.522,0,0,1-.429-.951Zm-4.642,1.734a.348.348,0,0,1,.489.06c.137.175.271.336.4.489a3.444,3.444,0,0,1,.859,3.855c-.112.4-.255.788-.393,1.168-.263.726-.59,1.629-.366,1.855.111.112.586.3,2.586-.41a.348.348,0,1,1,.232.656,7.776,7.776,0,0,1-2.385.555,1.238,1.238,0,0,1-.927-.311c-.535-.539-.191-1.486.206-2.582.134-.369.272-.751.378-1.122a2.772,2.772,0,0,0-.725-3.218c-.132-.159-.271-.325-.413-.507A.348.348,0,0,1,168.709,110.306Zm-1.267,1.679c.405-.06.8.347.884.909s-.178,1.067-.584,1.127-.8-.348-.884-.91S167.036,112.045,167.442,111.985Z" transform="translate(-0.039 -1.604)" style="fill:#ffc1a4"/><path d="M174.039,130.918s7.517-.776,8.755-6.769c0,0-2.334,3.37-7.937,3.982C174.857,128.131,174.992,130.1,174.039,130.918Z" transform="translate(-0.039 -1.604)" style="fill:#f49c84"/><path d="M119.522,161.754a7.952,7.952,0,0,0,2.629,4.312,13.922,13.922,0,0,0,2.472,1.743,25.763,25.763,0,0,0,10.211,2.887c10.154.856,21.163-4.16,21.163-4.16,1.715,3.426,2.692,12.846,1.224,23.855a16.048,16.048,0,0,0,.584,7.871h36.954a23.391,23.391,0,0,1,.244-5.108c-5.338-.258-11.707-12.476-12.681-14.4-4.175.681-14.307-.961-16.452-1.324-.532,7.818-7.137,13.846-7.423,14.1a.348.348,0,1,1-.465-.517c.069-.062,6.9-6.3,7.215-14.01l.016-.4.392.069c.125.022,12.6,2.2,16.844,1.346l.262-.053.118.24c.072.145,7.073,14.257,12.332,14.257.075,0,.149,0,.224-.009l.446-.035-.076.441a23.6,23.6,0,0,0-.291,5.4H207.29c-1.142-4.383-2.633-9.088-3.462-11.3a37.582,37.582,0,0,1-1.764-9.3c3.134,4.22,5.425,12.717,7,20.349.017.082.035.165.052.246h4.822V155.278c-3.356,1.969-10.477,7.742-11.668,21.771a.335.335,0,0,1-.325.314h-.029a.341.341,0,0,1-.3-.374c.835-9.832,4.55-15.622,7.52-18.748a19.766,19.766,0,0,1,4.8-3.76v-3.466c-4.386-4.481-10.538-9.613-10.538-9.613.2-3.687-1.875-7.179-2.588-8.863s2.588-5.433-1.357-10.929c-3.179-4.428-10.326-2.386-12.991-1.423-.586.212-.941.364-1,.391l-.032.014a15.562,15.562,0,0,0,.343,1.77c2.028-.637,6.739-1.931,9.053-1.315a3.636,3.636,0,0,1,1.739,6.271c-2.157,2.1-5.183,4.678-5.192,4.686-.479.458-1.56,1.493-4.04,3.871,6.616-2.5-10.689,14.519-10.689,14.519l-6.828-1.927-.564-13.729.981.323a6.673,6.673,0,0,1,.159-1.953,7.656,7.656,0,0,1,3.935-4.951c-.234,0-.443-.006-.658-.012-.179-.006-.357-.011-.523-.023-.312-.021-.614-.053-.9-.1-.108-.017-.211-.034-.311-.052a6.526,6.526,0,0,1-1.884-.59c-3.137,3.138-2.42,6.424-3.275,7.067-.783.585-10.546,7.273-12.219,8.418a.335.335,0,0,1-.011.418l-10.118,11.151c.343,2.3-.355,4.974-2.041,7.761a21.919,21.919,0,0,1-2.742,3.632.348.348,0,1,1-.5-.486c.052-.054,4.975-5.176,4.651-10.213l-6.668,7.35a.348.348,0,0,1-.516-.468l17.417-19.195c.024-.026.061-.025.091-.043l-3.533-5.873-4.783-7.952-.568-.945a185.687,185.687,0,0,0-20.612,22.291c-1.376,1.8-2.608,3.527-3.612,5.111a12.1,12.1,0,0,0-.961,1.871c-.023.055-.037.109-.059.165A7.514,7.514,0,0,0,119.522,161.754Zm62.827-17.182c.142-.079,14.307-7.951,17.2-11.209a.347.347,0,1,1,.519.462,20.365,20.365,0,0,1-3.064,2.552l4.646,3.47a.348.348,0,0,1-.209.627.353.353,0,0,1-.208-.069l-4.823-3.6c-5.163,3.618-13.28,8.132-13.727,8.38a.353.353,0,0,1-.168.043.348.348,0,0,1-.169-.652Zm-15.922-9.553a.348.348,0,0,1,.691.082,17.647,17.647,0,0,0,1.684,8.672.347.347,0,0,1-.154.467.336.336,0,0,1-.156.038.347.347,0,0,1-.311-.192A18.006,18.006,0,0,1,166.427,135.019Zm-12.413,9.119a.348.348,0,0,1,.542.437c-3.727,4.627-.463,15.9-.43,16.013a.349.349,0,0,1-.235.432.376.376,0,0,1-.1.014.347.347,0,0,1-.333-.25C153.318,160.308,150.059,149.049,154.014,144.138Z" transform="translate(-0.039 -1.604)" style="fill:#0d8f62"/><path d="M194.823,121.046c-2.314-.616-7.025.678-9.053,1.315.208,5.5,5.6,9.643,5.6,9.643h0c.009-.008,3.035-2.591,5.192-4.686A3.636,3.636,0,0,0,194.823,121.046Z" transform="translate(-0.039 -1.604)" style="fill:#015130"/><path d="M169.813,148.466l6.828,1.927s17.305-17.02,10.689-14.519l-.007,0c-1.245,1.2-2.842,2.723-4.884,4.682-13.064,11.384-11.837-.519-12.209-5.5l-.981-.323Z" transform="translate(-0.039 -1.604)" style="fill:#0d8f62"/><path d="M182.439,140.56c2.042-1.959,3.639-3.486,4.884-4.682-6.633,2.522-17.093-.818-17.093-.818C170.6,140.041,169.375,151.944,182.439,140.56Z" transform="translate(-0.039 -1.604)" style="fill:#fff"/><path d="M182.518,145.224a.353.353,0,0,0,.168-.043c.447-.248,8.564-4.762,13.727-8.38l-.2-.15a.348.348,0,0,1,.416-.557l.379.283a20.365,20.365,0,0,0,3.064-2.552.347.347,0,1,0-.519-.462c-2.9,3.258-17.061,11.13-17.2,11.209a.348.348,0,0,0,.169.652Z" transform="translate(-0.039 -1.604)" style="fill:#015130"/><path d="M196.142,136.165a.346.346,0,0,0,.07.486l.2.15,4.823,3.6a.353.353,0,0,0,.208.069.348.348,0,0,0,.209-.627l-4.646-3.47-.379-.283A.347.347,0,0,0,196.142,136.165Z" transform="translate(-0.039 -1.604)" style="fill:#015130"/><path d="M168.492,144.278a.336.336,0,0,0,.156-.038.347.347,0,0,0,.154-.467,17.647,17.647,0,0,1-1.684-8.672.348.348,0,0,0-.691-.082,18.006,18.006,0,0,0,1.754,9.067A.347.347,0,0,0,168.492,144.278Z" transform="translate(-0.039 -1.604)" style="fill:#015130"/><path d="M154.119,142.773c-.03.018-.067.017-.091.043l-17.417,19.195a.348.348,0,0,0,.516.468l6.668-7.35a6.816,6.816,0,0,0-.076-.752.348.348,0,1,1,.686-.119c.01.058.011.119.02.177l10.118-11.151a.335.335,0,0,0,.011-.418c-.016-.023-.013-.054-.035-.074A.333.333,0,0,0,154.119,142.773Z" transform="translate(-0.039 -1.604)" style="fill:#015130"/><path d="M144,153.974a.349.349,0,0,0-.284.4,6.816,6.816,0,0,1,.076.752c.324,5.037-4.6,10.159-4.651,10.213a.348.348,0,1,0,.5.486,21.919,21.919,0,0,0,2.742-3.632c1.686-2.787,2.384-5.463,2.041-7.761-.009-.058-.01-.119-.02-.177A.349.349,0,0,0,144,153.974Z" transform="translate(-0.039 -1.604)" style="fill:#015130"/><path d="M153.792,161.034a.376.376,0,0,0,.1-.014.349.349,0,0,0,.235-.432c-.033-.114-3.3-11.386.43-16.013a.348.348,0,0,0-.542-.437c-3.955,4.911-.7,16.17-.555,16.646A.347.347,0,0,0,153.792,161.034Z" transform="translate(-0.039 -1.604)" style="fill:#015130"/><path d="M201.617,176.988a.341.341,0,0,0,.3.374h.029a.335.335,0,0,0,.325-.314c1.191-14.029,8.312-19.8,11.668-21.771v-.8a19.766,19.766,0,0,0-4.8,3.76C206.167,161.366,202.452,167.156,201.617,176.988Z" transform="translate(-0.039 -1.604)" style="fill:#015130"/><path d="M195.755,192.86l.076-.441-.446.035c-.075.006-.149.009-.224.009-5.259,0-12.26-14.112-12.332-14.257l-.118-.24-.262.053c-4.247.852-16.719-1.324-16.844-1.346l-.392-.069-.016.4c-.318,7.712-7.146,13.948-7.215,14.01a.348.348,0,1,0,.465.517c.286-.257,6.891-6.285,7.423-14.1,2.145.363,12.277,2,16.452,1.324.974,1.929,7.343,14.147,12.681,14.405a23.391,23.391,0,0,0-.244,5.108h.705A23.6,23.6,0,0,1,195.755,192.86Z" transform="translate(-0.039 -1.604)" style="fill:#015130"/><path d="M173.78,109.523a3.743,3.743,0,0,1,4.018.688.522.522,0,0,0,.747-.728,4.746,4.746,0,0,0-5.194-.911.522.522,0,0,0,.429.951Z" transform="translate(-0.039 -1.604)" style="fill:#02004e"/><path d="M165.861,110.6a.858.858,0,0,1,.325-.622,1.826,1.826,0,0,1,1.213-.2.522.522,0,0,0,.19-1.026,2.832,2.832,0,0,0-2.015.377,1.744,1.744,0,0,0-.373.421,1.971,1.971,0,0,0-.375.914.521.521,0,0,0,.451.584.512.512,0,0,0,.067,0c.046,0,.078-.034.121-.046A.5.5,0,0,0,165.861,110.6Z" transform="translate(-0.039 -1.604)" style="fill:#02004e"/><path d="M169.062,111.3a2.772,2.772,0,0,1,.725,3.218c-.106.371-.244.753-.378,1.122-.4,1.1-.741,2.043-.206,2.582a1.238,1.238,0,0,0,.927.311,7.776,7.776,0,0,0,2.385-.555.348.348,0,1,0-.232-.656c-2,.707-2.475.522-2.586.41-.224-.226.1-1.129.366-1.855.138-.38.281-.773.393-1.168a3.444,3.444,0,0,0-.859-3.855c-.128-.153-.262-.314-.4-.489a.348.348,0,0,0-.549.428C168.791,110.976,168.93,111.142,169.062,111.3Z" transform="translate(-0.039 -1.604)" style="fill:#ea8f7a"/><path d="M174.444,119.355a12.4,12.4,0,0,1-4.874.959,2.994,2.994,0,0,0,2.957,2.557C174.285,123.03,176.4,118.356,174.444,119.355Z" transform="translate(-0.039 -1.604)" style="fill:#fff"/><path d="M185.028,111.311c.367-.038,1.4-.03,1.787.454a1.168,1.168,0,0,1,.044,1.126.348.348,0,0,0,.218.441.338.338,0,0,0,.112.019.348.348,0,0,0,.329-.237,1.8,1.8,0,0,0-.16-1.784,2.986,2.986,0,0,0-2.4-.711.348.348,0,0,0,.074.692Z" transform="translate(-0.039 -1.604)" style="fill:#ea8f7a"/><path d="M175.226,112.247c-.047-.634-.456-1.121-.914-1.088s-.791.576-.744,1.211.456,1.121.913,1.088S175.272,112.882,175.226,112.247Z" transform="translate(-0.039 -1.604)" style="fill:#02004e"/><path d="M167.742,114.021c.406-.06.667-.564.584-1.127s-.479-.969-.884-.909-.667.564-.584,1.126S167.337,114.08,167.742,114.021Z" transform="translate(-0.039 -1.604)" style="fill:#02004e"/><path d="M137.773,253.526a7.375,7.375,0,0,1-1.111,2.394l-13.844,19.666-1.894,2.73-2.938,4.149-2.87,4.061-5.229,7.428-1.538,2.195-.027.029-10.86,15.428a12.438,12.438,0,0,1-1.005,1.229l-2.4,3.365a6.519,6.519,0,0,1-4.518,2.591,12.21,12.21,0,0,0,13.682-4.606L132.3,272.867l5.2-7.389,1.842-2.617,2.912-4.137.158-.224a7.364,7.364,0,0,0,1.111-2.394,4.783,4.783,0,0,0-5.509-5.808l-.581.1A4.493,4.493,0,0,1,137.773,253.526Z" transform="translate(-0.039 -1.604)" style="fill:#001b2e"/><path d="M60.289,263.44l1.155,1.047c.254-.407.509-.819.761-1.232a4.533,4.533,0,0,0-1.7-.72C59.7,262.644,60.289,263.44,60.289,263.44Z" transform="translate(-0.039 -1.604)" style="fill:#942534"/><path d="M80.456,314.56a12.365,12.365,0,0,0,1.122.7L57.685,298.53Z" transform="translate(-0.039 -1.604)" style="fill:#942534"/><path d="M62.3,259.959a13.582,13.582,0,0,1,1.56.466c.185-.34.331-.629.465-.9l-2.067.359C62.285,259.928,62.3,259.959,62.3,259.959Z" transform="translate(-0.039 -1.604)" style="fill:#942534"/><path d="M46.7,290.788c4.812.045,9.438,2.283,12.957,2.613,1.024-2.22,2.246-4.88,3.574-7.79-3.453,1.53-7.152,3.007-7.152,3.007l-5.933-.366c-6.537-1.916-2.838-15.267-1.617-20.253A11.059,11.059,0,0,0,45,273.317l-3.563-2.792c.424-3.1,4.8-5.548,8.176-7.314.086-.376.178-.777.271-1.18l-6.634,1.152a19.965,19.965,0,0,0-3.57,6.433,28.851,28.851,0,0,1-1.786-4.176,4.09,4.09,0,0,1-.223-1.287l-11.7,2.032c-4.078.709-5.534,6.062-2.179,8.485l.075.054,31.679,22.3.048.021Z" transform="translate(-0.039 -1.604)" style="fill:#942534"/><path d="M125.377,261.116c1.248,2.089,1.469,3.941,2.5,7.174l-5.061,7.3,13.844-19.666a7.375,7.375,0,0,0,1.111-2.394,4.493,4.493,0,0,0-.334-3.128,4.84,4.84,0,0,0-5.175-2.68l-1.292.224-3.851.669C127.792,251.009,127.727,254.891,125.377,261.116Z" transform="translate(-0.039 -1.604)" style="fill:#942534"/><path d="M58.7,268.7l.085-.059c.071-.109.484-.737,1.076-1.655a6,6,0,0,0-1.133-1.046c-.051-.027-.09-.024-.14-.046l-.011.567c-.02.983-.032,1.7-.039,2.067Z" transform="translate(-0.039 -1.604)" style="fill:#942534"/><path d="M111.354,291.365a1.986,1.986,0,0,1-.188.766l-1.279,1.823,5.229-7.428-3.714,5.258C111.376,291.619,111.365,291.492,111.354,291.365Z" transform="translate(-0.039 -1.604)" style="fill:#942534"/><path d="M104.542,301.509l-8.085,11.326a12.438,12.438,0,0,0,1.005-1.229l10.86-15.428-.02.021Z" transform="translate(-0.039 -1.604)" style="fill:#942534"/><path d="M111.119,289.914c-.5,1.117-1.557,3.441-2.933,6.361l.054-.049C109.6,293.347,110.622,291.02,111.119,289.914Z" transform="translate(-0.039 -1.604)" style="fill:#942534"/><path d="M81.08,232.06c-2.049,2.044-4.17,5.386-3.405,9.138,0,0,2.029-2.12,4.35-4.14-.2-1.066-.418-2.194-.631-3.228C81.274,233.242,81.172,232.649,81.08,232.06Z" transform="translate(-0.039 -1.604)" style="fill:#55ae2d"/><path d="M82.962,241.808a3.092,3.092,0,0,1-.168-.5s-.117-.676-.3-1.69l0-.017c-1.9,1.536-3.536,2.756-3.536,2.756a4.7,4.7,0,0,0-.877,3.4,15,15,0,0,0,.493,2.481A15.1,15.1,0,0,1,82.962,241.808Z" transform="translate(-0.039 -1.604)" style="fill:#55ae2d"/><path d="M107.727,224.778c1.375-.184.38-.774-.181-1.048-.183.392-.383.791-.6,1.2C107.214,224.863,107.475,224.812,107.727,224.778Z" transform="translate(-0.039 -1.604)" style="fill:#55ae2d"/><path d="M104.568,235.388a5.459,5.459,0,0,1,1.72.235c1.64.66,12,6.9,12.648,7.7s.862-1.08.681-3.991-.007-5.367-2.542-5.824c-1.982-.357-7.937-.844-10.449-1.04A7.615,7.615,0,0,1,104.568,235.388Z" transform="translate(-0.039 -1.604)" style="fill:#55ae2d"/><path d="M114.078,229.294a12.11,12.11,0,0,1,3.058,1.226s-1.241-3.315-2.445-4.16-4.835-1.658-7.3.267c-.173.135-.349.258-.524.387a5.62,5.62,0,0,1,.423,2.866C109.619,229.385,112.923,229.019,114.078,229.294Z" transform="translate(-0.039 -1.604)" style="fill:#55ae2d"/><path d="M100.379,236.348c-.074.145-.155.255-.231.393,0,.816.044,1.779.113,2.751,3.761.53,7.723,1.323,11.319,2.141-2.932-2.219-6.649-4.679-9.2-5.109-1.308-.221-1.6-.452-1.339-.648a2.507,2.507,0,0,1-.3-.291C100.623,235.849,100.5,236.107,100.379,236.348Z" transform="translate(-0.039 -1.604)" style="fill:#55ae2d"/><path d="M41.042,231.185c-.694.024-1.2.045-1.362.066-.4.054.07,1.061.943,2.26a2.794,2.794,0,0,1,.445-1.833A2.56,2.56,0,0,1,41.042,231.185Z" transform="translate(-0.039 -1.604)" style="fill:#5aab2c"/><path d="M46.887,235.469c.123-1.988,1.977-1.136,2.2-.784a8.169,8.169,0,0,0,.435,1.778,16.05,16.05,0,0,0,2.912-.781c1.158-.524,1.918.111,2.052.646.09.365-1.519,1.41-2.733,2.183a8.587,8.587,0,0,0,1.61.543q.5.117,1.094.208c2.544.375,3.75,2.158,4.292,4.237a9.176,9.176,0,0,0,2.133-.229c5.779-1.328,5.511-10.2,5.511-10.2a16,16,0,0,0,3.208-1.437c8.183-4.864,4.365-14.49,3.673-15.944-.77-1.616-2.914-2.5-2.877-1.764s0,5.467-1.076,8-2.851,1.181-2.044-.585.464-8.906-.109-10.426-5.778-3.708-6.341-3.325,2.066,3.96,2.985,6.232c.882,2.181-.5,8.557-.8,9.686-.013.047-.026.1-.035.129-.056.184-.131.124-.22-.125a47.457,47.457,0,0,1-1.044-6.093c-.566-4.223-2.012-7.222-3.7-8.838s-8-1.506-8.592-.874,3.824,3.786,5.564,6.685a9.373,9.373,0,0,1,1.136,4.2c.111,2-.271,3.744-.784,3.92-.535.184-1.154-1.42-2.349-3.891A45.883,45.883,0,0,0,49.822,213c-3.535-5.3-6.341-3.326-9.177-2.946s-.964,1.051-.164,1.066,5.759,4.018,6.127,6.3-2.079.524-5.029-1.782-4.876-.636-6.4-.124a48.524,48.524,0,0,0-4.8,2.24c.958,2.081,3.289,3.327,5.865,4.075a32.44,32.44,0,0,0,9.559,1.041c1.826-.122,2.11,1.99,1.177,2.36s-5.153-.414-6.858-.308-5.564-.728-6.038-.6,1.546,2.372,3.844,4.4,6.839.618,8.66,0a10.24,10.24,0,0,1,5.048-.37c1.142.277-1.4,1.908-3.128,2.323a36.236,36.236,0,0,1-4.967.414l3.34,4.367Z" transform="translate(-0.039 -1.604)" style="fill:#5aab2c"/><path d="M50.2,245.528a21.292,21.292,0,0,0-7.872,2.393s9.262,2.249,9.979,3.349c.509-2.374.886-4.3.98-5.2A5.671,5.671,0,0,0,50.2,245.528Z" transform="translate(-0.039 -1.604)" style="fill:#5aab2c"/><path d="M37.892,265.44a28.851,28.851,0,0,0,1.786,4.176,19.965,19.965,0,0,1,3.57-6.433,7.173,7.173,0,0,1,3.439-2.274c1.36-.35,2.592-.624,3.636-.8.537-2.338,1.12-4.893,1.63-7.212a2.731,2.731,0,0,1-1.406.221c-1.73-.095-8.983-2.965-9.662-2.547s-4.412,7.95-3.887,8.207,10.176-5.207,12.744-1.3c0,0-9.569,1.2-9.927,1.576a8.351,8.351,0,0,0-2.146,5.1A4.09,4.09,0,0,0,37.892,265.44Z" transform="translate(-0.039 -1.604)" style="fill:#5aab2c"/><path d="M49.611,263.211c-3.377,1.766-7.752,4.214-8.176,7.314L45,273.317A11.059,11.059,0,0,1,48.531,268c.1-.419.194-.8.254-1.089C48.953,266.11,49.251,264.79,49.611,263.211Z" transform="translate(-0.039 -1.604)" style="fill:#5aab2c"/><path d="M58.531,268.813l.167-.117-.162-.172Z" transform="translate(-0.039 -1.604)" style="fill:#5aab2c"/><path d="M59.859,266.982c.457-.708,1.013-1.58,1.585-2.5l-1.155-1.047s-.594-.8.219-.9a4.533,4.533,0,0,1,1.7.72c.615-1.007,1.2-2,1.658-2.83a13.582,13.582,0,0,0-1.56-.466s-.018-.031-.042-.079c-.146-.3-.56-1.395,1.089-1.91a6.1,6.1,0,0,1,1.876-.174,17.692,17.692,0,0,1,3.118-4.1,10.019,10.019,0,0,0-2.384.521,5.534,5.534,0,0,1,6.256-2.859l.225-.087c-.677-.695-3.528-3.4-6.046-2.513-2.879,1.019-4.8,5.9-5.249,6.2-.412.28-1.842.872-2.291-1.032-.095,3.5-.2,8.723-.269,11.964.05.022.089.019.14.046A6,6,0,0,1,59.859,266.982Z" transform="translate(-0.039 -1.604)" style="fill:#5aab2c"/><path d="M111.166,292.131a1.986,1.986,0,0,0,.188-.766,9.232,9.232,0,0,0-.141-1.466l-.094.015c-.5,1.106-1.524,3.433-2.879,6.312l.124-.113-.062.086.02-.021.027-.029,1.538-2.195Z" transform="translate(-0.039 -1.604)" style="fill:#441c0c"/><path d="M59.659,293.4c.73.069,1.351.13,1.877.184,2.889-3.567,5.974-7.779,6.971-10.6a43.789,43.789,0,0,1-5.274,2.626C61.905,288.521,60.683,291.181,59.659,293.4Z" transform="translate(-0.039 -1.604)" style="fill:#441c0c"/><path d="M100.7,244.1a3,3,0,0,0,1.1,2.083,9.173,9.173,0,0,1,3.21.908c2.658,1.071,13.526,6.411,16.071,8.646a22.61,22.61,0,0,1,4.3,5.378c2.35-6.225,2.415-10.107,1.744-12.5-.861-3.078-2.934-3.709-2.934-3.709s-5.608-1.68-12.607-3.269c-3.6-.818-7.558-1.611-11.319-2.141C100.4,241.42,100.618,243.354,100.7,244.1Z" transform="translate(-0.039 -1.604)" style="fill:#441c0c"/><path d="M85.4,246.948c-.021-1.2-.113-2.458-.185-3.294a3.169,3.169,0,0,1-2.255-1.846,15.1,15.1,0,0,0-4.388,6.43c-.1.282-.194.546-.274.8,3.6-1.361,7.065-2.661,7.065-2.661S85.379,246.6,85.4,246.948Z" transform="translate(-0.039 -1.604)" style="fill:#441c0c"/><path d="M46.7,290.788l8.892,6.257,2.237.932c1.03-1.174,2.342-2.708,3.7-4.392-.526-.054-1.147-.115-1.877-.184C56.14,293.071,51.514,290.833,46.7,290.788Z" transform="translate(-0.039 -1.604)" style="fill:#441c0c"/><path d="M100.7,244.1c-.078-.747-.3-2.681-.435-4.609-.069-.972-.116-1.935-.113-2.751a11.816,11.816,0,0,1-6.121,5.434c-1.3.785-3.753,1.238-7.234,1.587a4.607,4.607,0,0,1-1.576-.108c.072.836.164,2.091.185,3.294.087,1.335.313,4.635.465,5.535.187,1.135,1.577,6.669,1.623,7.321s.562.684,2.64-.747,7.391-4.862,8.642-6.211,3.4-3.94,2.919-6.653a1.062,1.062,0,0,1,.108-.009A3,3,0,0,1,100.7,244.1Z" transform="translate(-0.039 -1.604)" style="fill:#f2b98b"/><path d="M49.882,262.031c-.093.4-.185.8-.271,1.18-.36,1.579-.658,2.9-.826,3.7-.06.289-.151.67-.254,1.089-1.221,4.986-4.92,18.337,1.617,20.253l5.933.366s3.7-1.477,7.152-3.007a43.789,43.789,0,0,0,5.274-2.626,6.386,6.386,0,0,0,.283-1.027s1.121-5.44.578-7.317a16.158,16.158,0,0,0-3.475-3.553c-.073-.054-.152-.105-.226-.159-3.14,3.806-7.194,10.121-7.194,10.121l.042-14.6s.022,0,.06.006l.011-.567c.066-3.241.174-8.462.269-11.964.043-1.574.084-2.8.117-3.335a22.7,22.7,0,0,0-.223-7.092c-.542-2.079-1.748-3.862-4.292-4.237q-.591-.09-1.094-.208c-.02,0-.039.007-.058.009-5.213.866-6.36-3.346-6.36-3.346l-.064-.255-3.34-4.367-.577-.754s-.841-.8-1.291-.484a1.64,1.64,0,0,0-.631,1.328,2.56,2.56,0,0,0,.026.493,2.794,2.794,0,0,0-.445,1.833,3.1,3.1,0,0,0,.085.494c.35,1.39,2.7,6.726,2.7,6.726a5.707,5.707,0,0,0,4.061,2.437c2.663.219,6.057.1,5.838,2.764,0,.037-.013.1-.017.143-.094.9-.471,2.821-.98,5.2-.112.522-.231,1.066-.354,1.623-.51,2.319-1.093,4.874-1.63,7.212C50.17,260.775,50.023,261.412,49.882,262.031Z" transform="translate(-0.039 -1.604)" style="fill:#ffc998"/><path d="M49.522,236.463a8.169,8.169,0,0,1-.435-1.778c-.223-.352-2.077-1.2-2.2.784l-.006-.007.064.255s1.147,4.212,6.36,3.346c.019,0,.038-.007.058-.009a8.587,8.587,0,0,1-1.61-.543A4.247,4.247,0,0,1,49.522,236.463Z" transform="translate(-0.039 -1.604)" style="fill:#e46325"/><path d="M58.783,268.637l-.085.059-.167.117.005-.289c.007-.37.019-1.084.039-2.067-.038,0-.06-.006-.06-.006l-.042,14.6s4.054-6.315,7.194-10.121a11.048,11.048,0,0,0-6.907-2.258Z" transform="translate(-0.039 -1.604)" style="fill:#e5a57a"/><path d="M72.216,251.356c-.336.131-.649.252-.9.353a9.362,9.362,0,0,0-2.968,1.985,17.692,17.692,0,0,0-3.118,4.1c-.3.528-.572,1.046-.794,1.521-.027.058-.074.142-.1.2-.134.275-.28.564-.465.9-.455.83-1.043,1.823-1.658,2.83-.252.413-.507.825-.761,1.232-.572.915-1.128,1.787-1.585,2.5-.592.918-1.005,1.546-1.076,1.655l-.023.034a11.048,11.048,0,0,1,6.907,2.258c.074.054.153.105.226.159,1.836-2.942,3.984-6.645,4.172-8.151.337-2.675,3.676-6.6,3.676-6.6s-2.477,7.758-3.7,13.535l.347-1.283a5.065,5.065,0,0,0,3.021-.034,9.8,9.8,0,0,1,9.388,2.551,5.534,5.534,0,0,0,5.61,1.524,9.176,9.176,0,0,1,3.584-.255,9.8,9.8,0,0,1,1.47-4.484,3.523,3.523,0,0,0-2.983-.305A38.654,38.654,0,0,1,85,268.874s-2.845-1.137.5-2.461c0,0,7.8-2.288,9.6-2.5s8.533-2.326,14.671,5.138a70.948,70.948,0,0,1,6.329,9.4l4.508-10.271c3.675-6.689,2.506-.536.675,3.5-1.42,3.13-1.21,3.8-.35,6.64l1.894-2.73,5.061-7.3c-1.033-3.233-1.254-5.085-2.5-7.174a22.61,22.61,0,0,0-4.3-5.378c-2.545-2.235-13.413-7.575-16.071-8.646a9.173,9.173,0,0,0-3.21-.908,1.062,1.062,0,0,0-.108.009c.482,2.713-1.667,5.3-2.919,6.653s-6.565,4.783-8.642,6.211-2.594,1.4-2.64.747-1.436-6.186-1.623-7.321c-.152-.9-.378-4.2-.465-5.535-.023-.35-.037-.572-.037-.572s-3.466,1.3-7.065,2.661l-1.171.444c-1.747.662-3.433,1.3-4.688,1.788Z" transform="translate(-0.039 -1.604)" style="fill:#597ef7"/><path d="M104.858,278.831a9.8,9.8,0,0,1-9.388-2.551,5.529,5.529,0,0,0-5.61-1.524,9.8,9.8,0,0,1-9.389-2.551,5.526,5.526,0,0,0-5.609-1.524,9.019,9.019,0,0,1-4.981-.018c-.18.914-.319,1.754-.406,2.494a7.236,7.236,0,0,0,3.318-.043,9.794,9.794,0,0,1,9.389,2.551,5.532,5.532,0,0,0,5.609,1.524,9.792,9.792,0,0,1,9.389,2.551,5.533,5.533,0,0,0,5.61,1.524,9.01,9.01,0,0,1,5.033.027c.367.1.694.211,1,.326-.372-1.01-.752-1.968-1.134-2.859A5.14,5.14,0,0,0,104.858,278.831Z" transform="translate(-0.039 -1.604)" style="fill:#597ef7"/><path d="M94.054,316.2l2.4-3.365,8.085-11.326-11.862-.592s-4.647-.123-5.764,2-2.1,4.8-6.027,4.5c-2.5-.19-3.43-5.633,2.563-9.589S94.189,295.1,94.189,295.1l14,1.179c1.376-2.92,2.431-5.244,2.933-6.361a.6.6,0,0,1-.064.008l.112-.256c-.34-1.6-.752-3.16-1.2-4.653l-.108-.1a5.532,5.532,0,0,0-5.609-1.524,9.792,9.792,0,0,1-9.389-2.551,5.533,5.533,0,0,0-5.61-1.524,9.794,9.794,0,0,1-9.388-2.55,5.532,5.532,0,0,0-5.61-1.525c-1.172.279-2.733-.051-4.878-.614l.09-1.347a12.321,12.321,0,0,0-.093,1.366c.543,1.877-.578,7.317-.578,7.317a6.386,6.386,0,0,1-.283,1.027c-1,2.821-4.082,7.033-6.971,10.6-1.363,1.684-2.675,3.218-3.7,4.392l-2.237-.932-.048-.021-.029-.012,2.168,1.518,23.893,16.73,3.669,2.568a6.63,6.63,0,0,0,8.807-1.628Z" transform="translate(-0.039 -1.604)" style="fill:#597ef7"/><path d="M103.4,276.708a9.344,9.344,0,0,1,3.216-.3c-1.214-2.469-2.3-4.093-2.851-4.4,0,0-1.823,4.27-3.444,4.291a11.308,11.308,0,0,1-1.227-.082,5.248,5.248,0,0,0,1.285.521A5.073,5.073,0,0,0,103.4,276.708Z" transform="translate(-0.039 -1.604)" style="fill:#597ef7"/><path d="M74.862,270.681a5.526,5.526,0,0,1,5.609,1.524,9.8,9.8,0,0,0,9.389,2.551,5.529,5.529,0,0,1,5.61,1.524,9.8,9.8,0,0,0,9.388,2.551,5.14,5.14,0,0,1,2.834-.073c-.363-.844-.724-1.634-1.074-2.347a9.344,9.344,0,0,0-3.216.3,5.073,5.073,0,0,1-3.021.034,5.248,5.248,0,0,1-1.285-.521c-2.55-.284-7.319-1.352-7.121-3.737,0-.037.01-.069.013-.106a9.176,9.176,0,0,0-3.584.255,5.534,5.534,0,0,1-5.61-1.524,9.8,9.8,0,0,0-9.388-2.551,5.065,5.065,0,0,1-3.021.034l-.347,1.283c-.057.272-.1.527-.157.788A9.019,9.019,0,0,0,74.862,270.681Z" transform="translate(-0.039 -1.604)" style="fill:#00c3ff"/><path d="M107.823,281.291a9.01,9.01,0,0,0-5.033-.027,5.533,5.533,0,0,1-5.61-1.524,9.792,9.792,0,0,0-9.389-2.551,5.532,5.532,0,0,1-5.609-1.524,9.794,9.794,0,0,0-9.389-2.551,7.236,7.236,0,0,1-3.318.043c0,.039-.009.079-.014.118l-.09,1.347c2.145.563,3.706.893,4.878.614a5.532,5.532,0,0,1,5.61,1.525,9.794,9.794,0,0,0,9.388,2.55,5.533,5.533,0,0,1,5.61,1.524,9.792,9.792,0,0,0,9.389,2.551,5.532,5.532,0,0,1,5.609,1.524l.108.1c-.358-1.183-.74-2.318-1.137-3.4C108.517,281.5,108.19,281.391,107.823,281.291Z" transform="translate(-0.039 -1.604)" style="fill:#fff"/><path d="M69.881,270.663c.052-.261.1-.516.157-.788,1.226-5.777,3.7-13.535,3.7-13.535s-3.339,3.922-3.676,6.6c-.188,1.506-2.336,5.209-4.172,8.151a16.158,16.158,0,0,1,3.475,3.553,12.321,12.321,0,0,1,.093-1.366c0-.039.01-.079.014-.118C69.562,272.417,69.7,271.577,69.881,270.663Z" transform="translate(-0.039 -1.604)" style="fill:#4c73e0"/><path d="M111.186,289.763l-.067.151.094-.015C111.2,289.854,111.2,289.808,111.186,289.763Z" transform="translate(-0.039 -1.604)" style="fill:#4c73e0"/><path d="M111.186,289.763c-.007-.032-.012-.065-.019-.1l-.112.256a.6.6,0,0,0,.064-.008Z" transform="translate(-0.039 -1.604)" style="fill:#4c73e0"/><path d="M121.274,271.676c1.831-4.037,3-10.19-.675-3.5l-4.508,10.271c.947,1.641,1.192,2.662,1.9,4.019l2.938-4.149C120.064,275.471,119.854,274.806,121.274,271.676Z" transform="translate(-0.039 -1.604)" style="fill:#4c73e0"/><path d="M108.3,296.2l.062-.086-.124.113-.054.049-14-1.179s-4.743-1.223-10.737,2.732-5.063,9.4-2.563,9.589c3.924.3,4.911-2.38,6.027-4.5s5.764-2,5.764-2l11.862.592Z" transform="translate(-0.039 -1.604)" style="fill:#441c0c"/><path d="M116.091,278.446a70.948,70.948,0,0,0-6.329-9.4c-6.138-7.464-12.866-5.355-14.671-5.138s-9.6,2.5-9.6,2.5c-3.341,1.324-.5,2.461-.5,2.461a38.654,38.654,0,0,0,5.48-1.285,3.523,3.523,0,0,1,2.983.305,9.8,9.8,0,0,0-1.47,4.484c0,.037-.01.069-.013.106-.2,2.385,4.571,3.453,7.121,3.737a11.308,11.308,0,0,0,1.227.082c1.621-.021,3.444-4.291,3.444-4.291.55.306,1.637,1.93,2.851,4.4.35.713.711,1.5,1.074,2.347.382.891.762,1.849,1.134,2.859.4,1.078.779,2.213,1.137,3.4.452,1.493.864,3.05,1.2,4.653.007.032.012.065.019.1s.017.091.027.136a9.232,9.232,0,0,1,.141,1.466c.011.127.022.254.048.419l3.714-5.258,2.87-4.061C117.283,281.108,117.038,280.087,116.091,278.446Z" transform="translate(-0.039 -1.604)" style="fill:#ffc998"/><path d="M86.793,243.762c3.481-.349,5.931-.8,7.234-1.587a11.816,11.816,0,0,0,6.121-5.434c.076-.138.157-.248.231-.393a2.826,2.826,0,0,1-.4-.547c-2.863-5.081,1.44-10.08,1.44-10.08.885-2.722-.2-5.755-.969-7.389-2.207-2.359-5.868-.64-6.61-.138-1.149.777-3.5.572-3.5.572a7.371,7.371,0,0,0,2.786-1.225,8.536,8.536,0,0,1,4.3-1s-.7-1.634-3.873-.72c-1.1.982-3.126,2.582-4.919,2.817-2.6.339-4.524.078-4.7,1.788-.039.379-.126.968-.236,1.663.173.047.307.093.342.107a.522.522,0,0,1-.4.964c-.025-.01-.071-.023-.107-.034-.074.462-.151.941-.228,1.433.013,0,.026,0,.038,0a.934.934,0,0,1,.355,1.234,1.134,1.134,0,0,1-.682.727,15.31,15.31,0,0,0-.217,3.016,88.159,88.159,0,0,1,.365,9.2,6.008,6.008,0,0,1-.663.885c.18,1.014.3,1.69.3,1.69a3.092,3.092,0,0,0,.168.5,3.169,3.169,0,0,0,2.255,1.846A4.607,4.607,0,0,0,86.793,243.762Zm5.146-16.481c-.192.545-.659.876-1.044.741s-.54-.687-.347-1.231.659-.877,1.043-.742S92.131,226.736,91.939,227.281Zm-2.23-4.068a4.745,4.745,0,0,1,4.89,1.974.522.522,0,0,1-.55.789.528.528,0,0,1-.333-.232,3.743,3.743,0,0,0-3.786-1.511.522.522,0,0,1-.221-1.02Zm-6.4,8.332c-.282-.7.4-1.443,1.2-2.3.267-.288.544-.585.786-.885a2.773,2.773,0,0,0,.59-3.246c-.06-.2-.122-.405-.182-.628a.348.348,0,1,1,.672-.18c.058.215.118.416.176.607a3.443,3.443,0,0,1-.715,3.884c-.257.319-.542.626-.818.922-.525.565-1.18,1.268-1.061,1.564.058.146.423.5,2.54.633a.348.348,0,1,1-.043.694,7.8,7.8,0,0,1-2.412-.42A1.238,1.238,0,0,1,83.311,231.545Zm.351,3.108,5.774.536s-1.264,2.673-3.631,2.228C83.983,237.074,83.662,234.653,83.662,234.653Zm4.6,3.827c1.439-.049,2.635.771,2.672,1.833s-1.1,1.963-2.539,2.012-2.635-.77-2.671-1.832S86.82,238.53,88.258,238.48Z" transform="translate(-0.039 -1.604)" style="fill:#ffc998"/><path d="M81.986,222.14a2.572,2.572,0,0,1,1.708-.056c.11-.695.2-1.284.236-1.663.179-1.71,2.1-1.449,4.7-1.788,1.793-.235,3.817-1.835,4.919-2.817a13.688,13.688,0,0,0-2.455,1.007c-5.292,2.722-8.377-.814-8.78-.457-.27.238-.546,2.432-.7,3.855-.035.943-.068,1.781-.088,2.258l.005-.005A1.737,1.737,0,0,1,81.986,222.14Z" transform="translate(-0.039 -1.604)" style="fill:#f2b98b"/><path d="M83.16,238.735a88.159,88.159,0,0,0-.365-9.2,15.31,15.31,0,0,1,.217-3.016.574.574,0,0,1-.368.011.934.934,0,0,1-.356-1.234c.186-.528.633-.845,1.013-.741.077-.492.154-.971.228-1.433a1.692,1.692,0,0,0-1.121-.027.856.856,0,0,0-.447.54.5.5,0,0,1-.473.319.474.474,0,0,0-.084.013,8.744,8.744,0,0,1-.468,1.92c-.383,1-.271,3.517.144,6.174.092.589.194,1.182.314,1.77.213,1.034.43,2.162.631,3.228.176.938.339,1.827.469,2.545l0,.017A6.008,6.008,0,0,0,83.16,238.735Z" transform="translate(-0.039 -1.604)" style="fill:#f2b98b"/><path d="M101.417,225.721s-4.3,5-1.44,10.08a2.826,2.826,0,0,0,.4.547c.124-.241.244-.5.363-.763-1.091-1.15-1.339-3.5-.468-5.876a8.1,8.1,0,0,1,1.766-2.872l0-.042c.392-4.643-.383-7.166-1.6-8.463C101.215,219.966,102.3,223,101.417,225.721Z" transform="translate(-0.039 -1.604)" style="fill:#f2b98b"/><path d="M106,225.917a2.316,2.316,0,0,1,.269.247q.355-.621.678-1.238c.213-.405.413-.8.6-1.2a12.422,12.422,0,0,0,1.07-3.057c.672-4.174,2.1-15.075-12.578-14.477a22.241,22.241,0,0,0-2.552.5l2.528-.48C107.81,207.064,106.446,222.527,106,225.917Z" transform="translate(-0.039 -1.604)" style="fill:#263367"/><path d="M91.1,216.823a13.688,13.688,0,0,1,2.455-1.007c3.171-.914,3.873.72,3.873.72a8.536,8.536,0,0,0-4.3,1,7.371,7.371,0,0,1-2.786,1.225s2.347.205,3.5-.572c.742-.5,4.4-2.221,6.61.138,1.213,1.3,1.988,3.82,1.6,8.463l0,.042a4.876,4.876,0,0,1,1.479-1.066c3.74-17.315-9.567-19-10.062-19.059a2.459,2.459,0,0,1-2.015.818c-1.087-.176-3.277-3.471-6.458-2.815-3.588.74-7.55,5-4.16,10.457,0,0-1.447,4.908.672,6.267,0,0,.046-.517.121-1.218.154-1.423.43-3.617.7-3.855C82.72,216.009,85.805,219.545,91.1,216.823Z" transform="translate(-0.039 -1.604)" style="fill:#263367"/><path d="M88.391,242.325c1.439-.049,2.576-.95,2.539-2.012s-1.233-1.882-2.672-1.833-2.575.951-2.538,2.013S86.953,242.375,88.391,242.325Z" transform="translate(-0.039 -1.604)" style="fill:#3c322d"/><path d="M105.907,226.581l-2.425-.625c.015-.064.023-.122.037-.185a4.876,4.876,0,0,0-1.479,1.066,8.1,8.1,0,0,0-1.766,2.872c-.871,2.38-.623,4.726.468,5.876a2.507,2.507,0,0,0,.3.291,2.246,2.246,0,0,0,.553.311,3.071,3.071,0,0,0,2.971-.8,7.615,7.615,0,0,0,2.058-2.923c.052-.126.115-.242.163-.373a8.65,8.65,0,0,0,.5-2.212,5.62,5.62,0,0,0-.423-2.866,3,3,0,0,0-.592-.85,2.316,2.316,0,0,0-.269-.247C105.949,226.336,105.907,226.581,105.907,226.581Zm.179,5.12c-.712,1.946-2.184,3.2-3.289,2.792s-1.423-2.309-.711-4.256,2.185-3.2,3.289-2.792S106.8,229.755,106.086,231.7Z" transform="translate(-0.039 -1.604)" style="fill:#fffffd"/><path d="M103.519,225.771c-.014.063-.022.121-.037.185l2.425.625s.042-.245.1-.664c.443-3.39,1.807-18.853-9.989-19.7l-2.528.48-.052.009.023,0C93.952,206.768,107.259,208.456,103.519,225.771Z" transform="translate(-0.039 -1.604)" style="fill:#fffffd"/><path d="M105.375,227.445c-1.1-.4-2.577.846-3.289,2.792s-.393,3.852.711,4.256,2.577-.846,3.289-2.792S106.48,227.849,105.375,227.445Z" transform="translate(-0.039 -1.604)" style="fill:#efeeec"/><path d="M89.436,235.189l-5.774-.536s.321,2.421,2.143,2.764C88.172,237.862,89.436,235.189,89.436,235.189Z" transform="translate(-0.039 -1.604)" style="fill:#fafbff"/><path d="M91.591,226.049c-.384-.135-.852.2-1.043.742s-.037,1.1.347,1.231.852-.2,1.044-.741S91.975,226.185,91.591,226.049Z" transform="translate(-0.039 -1.604)" style="fill:#3c322d"/><path d="M83.694,225.791a.934.934,0,0,0-.355-1.234c-.012,0-.025,0-.038,0-.38-.1-.827.213-1.013.741a.934.934,0,0,0,.356,1.234.574.574,0,0,0,.368-.011A1.134,1.134,0,0,0,83.694,225.791Z" transform="translate(-0.039 -1.604)" style="fill:#3c322d"/><path d="M86.454,232.614a.348.348,0,1,0,.043-.694c-2.117-.131-2.482-.487-2.54-.633-.119-.3.536-1,1.061-1.564.276-.3.561-.6.818-.922a3.443,3.443,0,0,0,.715-3.884c-.058-.191-.118-.392-.176-.607a.348.348,0,1,0-.672.18c.06.223.122.43.182.628a2.773,2.773,0,0,1-.59,3.246c-.242.3-.519.6-.786.885-.794.853-1.48,1.591-1.2,2.3a1.238,1.238,0,0,0,.731.649A7.8,7.8,0,0,0,86.454,232.614Z" transform="translate(-0.039 -1.604)" style="fill:#d3a17f"/><path d="M89.93,224.233a3.743,3.743,0,0,1,3.786,1.511.522.522,0,0,0,.72.163.522.522,0,0,0,.163-.72,4.745,4.745,0,0,0-4.89-1.974.522.522,0,0,0,.221,1.02Z" transform="translate(-0.039 -1.604)" style="fill:#02004e"/><path d="M81.961,223.634a.856.856,0,0,1,.447-.54,1.692,1.692,0,0,1,1.121.027c.036.011.082.024.107.034a.522.522,0,0,0,.4-.964c-.035-.014-.169-.06-.342-.107a2.572,2.572,0,0,0-1.708.056,1.737,1.737,0,0,0-.452.334l-.005.005a1.968,1.968,0,0,0-.553.811.521.521,0,0,0,.32.664.383.383,0,0,0,.064.018c.015,0,.029,0,.044-.006a.474.474,0,0,1,.084-.013A.5.5,0,0,0,81.961,223.634Z" transform="translate(-0.039 -1.604)" style="fill:#02004e"/><path d="M38.176,7.857A9.271,9.271,0,0,1,41.2,7.343H71.642a9.924,9.924,0,0,1,16.47,0h16.826a9.3,9.3,0,0,1,9.3,9.3V79.35a9.271,9.271,0,0,1-.514,3.025,9.291,9.291,0,0,0,6.27-8.782V10.882A9.288,9.288,0,0,0,111.04,1.6H46.612A9.288,9.288,0,0,0,38.176,7.857Z" transform="translate(-0.039 -1.604)" style="fill:#001b2e"/><path d="M39.213,62.115a9.266,9.266,0,0,1,0,3.435c-.382,1.526,2.766,8.682,4.293,10.494s2.1-5.247,2.1-5.247,1.717-18.317,9.349-19.844l7.633-1.526s.065-1.025.068-2.282l-2.292-1.807.9-1.314c-5.53-.058-10-6.381-10-14.18a18.105,18.105,0,0,1,2.082-8.61A.466.466,0,0,1,53.131,21a.471.471,0,0,1,.277-.6,4.459,4.459,0,0,1,.525-.146,12.353,12.353,0,0,1,1.505-1.888l-.115.1-.434-.81a5.411,5.411,0,0,1-1.86-1.5,4.028,4.028,0,0,1-.816-3.382c.536-2.345,3.238-3.737,6.015-3.1a5.222,5.222,0,0,1,4.07,3.788,13.461,13.461,0,0,1,3.921-.583,13.782,13.782,0,0,1,1.386.073,7.275,7.275,0,0,1,2.359.108c0-.061-.009-.12-.009-.181a9.878,9.878,0,0,1,1.687-5.536H41.2a9.322,9.322,0,0,0-9.294,9.3V49.4C34.363,51.776,38.658,56.809,39.213,62.115Z" transform="translate(-0.039 -1.604)" style="fill:#993a47"/><path d="M31.907,79.35a9.254,9.254,0,0,0,2.927,6.758L31.907,74.827Z" transform="translate(-0.039 -1.604)" style="fill:#993a47"/><path d="M54.291,87.251l.143,1.394V87.3Z" transform="translate(-0.039 -1.604)" style="fill:#993a47"/><path d="M56.39,17.233A12.9,12.9,0,0,1,61.4,13.777a4.236,4.236,0,0,0-3.378-3.188,5.133,5.133,0,0,0-1.148-.131,3.7,3.7,0,0,0-3.656,2.274l2.254,4.17A5.113,5.113,0,0,0,56.39,17.233Z" transform="translate(-0.039 -1.604)" style="fill:#993a47"/><path d="M114.233,16.638a9.3,9.3,0,0,0-9.3-9.3H88.112a9.922,9.922,0,0,1-9.258,15.405,11.746,11.746,0,0,1-1.146,7.991l4.105,2.705-3.456,5.047a12.1,12.1,0,0,1,.751,2.942s1.807.759,1.748,2.1c-.011.257-.054.7-.117,1.243,3.059-.9,6.311-1.286,8.465.07,5.375,3.384,9.484,18.688,9.484,18.688l9.524,24.505a9.322,9.322,0,0,0,6.021-8.69Z" transform="translate(-0.039 -1.604)" style="fill:#993a47"/><path d="M53.774,15.586l.015.016-.542-1.012A3.509,3.509,0,0,0,53.774,15.586Z" transform="translate(-0.039 -1.604)" style="fill:#993a47"/><path d="M1.149,37.871l12.22,31.54L34.2,60.965,31.88,55.5c-1.393-2.9-2.965-5.93-3.639-6.364-1.336-.858-2.957-4.021-2.194-5.111,0,0,.7.7,1.628,1.57L21.593,31.271ZM21.2,42.523,9.044,46.291l-.279-.9,12.158-3.768ZM19.53,37.307l.278.9L7.652,41.972l-.279-.9Zm4.694,12.878L16.438,52.6l-.279-.9,7.786-2.413Zm-1.609-3.862-7.786,2.413-.279-.9,7.786-2.413Z" transform="translate(-0.039 -1.604)" style="fill:#fff"/><path d="M34.442,61.066S33.248,58.35,31.88,55.5L34.2,60.965l-20.83,8.446L1.149,37.871l20.444-6.6L27.675,45.6c.213.2.438.412.668.625L21.8,30.814.662,37.639,5.637,50.48,9.662,60.87l2.9,7.477.532,1.373.068.176L31.5,62.459Z" transform="translate(-0.039 -1.604)" style="fill:#afafaf"/><rect x="7.227" y="39.17" width="12.727" height="0.939" transform="matrix(0.955, -0.297, 0.297, 0.955, -11.194, 4.218)" style="fill:#d6d6d6"/><rect x="8.619" y="43.489" width="12.728" height="0.939" transform="matrix(0.955, -0.296, 0.296, 0.955, -12.38, 4.802)" style="fill:#d6d6d6"/><rect x="14.507" y="46.612" width="8.151" height="0.939" transform="translate(-13.144 6.007) rotate(-17.22)" style="fill:#d6d6d6"/><rect x="16.116" y="50.473" width="8.151" height="0.939" transform="translate(-14.252 6.687) rotate(-17.27)" style="fill:#d6d6d6"/><path d="M48.085,70.893l-2.48-.1s-.573,7.06-2.1,5.247-4.675-8.968-4.293-10.494a9.266,9.266,0,0,0,0-3.435c-.555-5.306-4.85-10.339-7.306-12.719-.5-.486-.935-.871-1.236-1.114-.689-.558-1.542-1.326-2.328-2.058-.23-.213-.455-.424-.668-.625-.924-.874-1.628-1.57-1.628-1.57-.763,1.09.858,4.253,2.194,5.111.674.434,2.246,3.466,3.639,6.364,1.368,2.846,2.562,5.562,2.562,5.562L31.5,62.459,29,63.642l2.9,11.185,2.927,11.281.658,2.537H54.434l-.143-1.394C53.093,86.81,44.44,83.161,48.085,70.893Z" transform="translate(-0.039 -1.604)" style="fill:#fc9c9d"/><path d="M74.087,55.911a21.818,21.818,0,0,1-1.86-3.1C69.606,55.691,65,58.837,59.982,53.5l2.605-4.07-7.633,1.526C47.322,52.48,45.605,70.8,45.605,70.8l2.48.1C44.44,83.161,53.093,86.81,54.291,87.251l.143.051v1.343H92.081Z" transform="translate(-0.039 -1.604)" style="fill:#efddab"/><path d="M80.248,51.494,87.67,62c1.772,2.223,3.152,3.936,3.152,3.936l7.866-2.4s-4.109-15.3-9.484-18.688c-2.154-1.356-5.406-.97-8.465-.07-.224,1.956-.7,5.284-.836,6.535A.454.454,0,0,1,80.248,51.494Z" transform="translate(-0.039 -1.604)" style="fill:#efddab"/><path d="M69.964,13.06c.043.009.087.009.13.019A6.838,6.838,0,0,1,73.726,15.2a12.267,12.267,0,0,1,5.128,7.553,9.923,9.923,0,1,0-8.9-9.869C69.955,12.94,69.963,13,69.964,13.06Z" transform="translate(-0.039 -1.604)" style="fill:#3e3f4f"/><path d="M56.39,17.233c.036.009.069.025.1.033.055.013.109.013.163.024a7.867,7.867,0,0,1,4.383-1.609,2.534,2.534,0,0,0,.356-1.9A12.9,12.9,0,0,0,56.39,17.233Z" transform="translate(-0.039 -1.604)" style="fill:#3e3f4f"/><path d="M62.251,15.219a3.842,3.842,0,0,1-.174.493,7.333,7.333,0,0,1,1.286.234c.03-.083.055-.168.09-.249Z" transform="translate(-0.039 -1.604)" style="fill:#3e3f4f"/><path d="M71.967,22.1a6.389,6.389,0,0,1-2.009.417A18.487,18.487,0,0,1,71.4,29.263l1.268-1.847,1.679,1.106-2.761-6.249Z" transform="translate(-0.039 -1.604)" style="fill:#3e3f4f"/><path d="M64.241,16.263A11.028,11.028,0,0,1,69.527,21.6a5.512,5.512,0,0,0,2.433-.474,3.394,3.394,0,0,0,1.991-2.279c.468-2.055-1.355-4.23-4.066-4.849a6.569,6.569,0,0,0-1.455-.166,5.493,5.493,0,0,0-2.322.492A3.475,3.475,0,0,0,64.241,16.263Z" transform="translate(-0.039 -1.604)" style="fill:#3e3f4f"/><path d="M62.387,14.262l1.551.618a4.723,4.723,0,0,1,1.772-1.41,6.2,6.2,0,0,1,1.9-.518,13.782,13.782,0,0,0-1.386-.073,13.461,13.461,0,0,0-3.921.583A3.779,3.779,0,0,1,62.387,14.262Z" transform="translate(-0.039 -1.604)" style="fill:#3e3f4f"/><path d="M73.726,15.2a4.382,4.382,0,0,1,1.14,3.857,4.287,4.287,0,0,1-2.415,2.866l3.34,7.558,1.917,1.263a11.746,11.746,0,0,0,1.146-7.991A12.267,12.267,0,0,0,73.726,15.2Z" transform="translate(-0.039 -1.604)" style="fill:#3e3f4f"/><path d="M71.273,48.837,69,52.149l-6.349-5c0,1.257-.068,2.282-.068,2.282L59.982,53.5c5.02,5.34,9.624,2.194,12.245-.684A7.4,7.4,0,0,1,71.273,48.837Z" transform="translate(-0.039 -1.604)" style="fill:#e59c9c"/><path d="M64.241,16.263a2.874,2.874,0,0,0-.123.336,3.4,3.4,0,0,0,.8,2.917,5.879,5.879,0,0,0,3.262,1.932,6.521,6.521,0,0,0,1.343.148A11.028,11.028,0,0,0,64.241,16.263Z" transform="translate(-0.039 -1.604)" style="fill:#f1a69b"/><path d="M59.676,16.933a3.293,3.293,0,0,0,1.365-1.252,7.867,7.867,0,0,0-4.383,1.609A4.7,4.7,0,0,0,59.676,16.933Z" transform="translate(-0.039 -1.604)" style="fill:#f1a69b"/><path d="M71.4,29.263a18.487,18.487,0,0,0-1.438-6.743c-.109,0-.212.034-.322.034a7.476,7.476,0,0,1-1.662-.19,6.816,6.816,0,0,1-3.779-2.254,4.314,4.314,0,0,1-.993-3.72,4.051,4.051,0,0,1,.161-.444,7.333,7.333,0,0,0-1.286-.234,4.124,4.124,0,0,1-1.978,2.06,5.446,5.446,0,0,1-2.451.565,6.114,6.114,0,0,1-1.362-.155c-.162-.038-.313-.1-.469-.149l-.379.332a12.353,12.353,0,0,0-1.505,1.888,3.077,3.077,0,0,1,2.328.239,4.737,4.737,0,0,1,1.927,3,.471.471,0,0,1-.376.547.521.521,0,0,1-.087.008.47.47,0,0,1-.461-.383,3.847,3.847,0,0,0-1.471-2.355,2.371,2.371,0,0,0-2.058-.027.447.447,0,0,1-.389-.046,18.105,18.105,0,0,0-2.082,8.61c0,7.8,4.471,14.122,10,14.18Zm-9.619-.633a1.215,1.215,0,1,1,1.214,1.214A1.213,1.213,0,0,1,61.777,28.63Zm-.6-5a5.3,5.3,0,0,1,4.479-.06,4,4,0,0,1,1.876,2.477.469.469,0,0,1-.359.557.44.44,0,0,1-.1.011.47.47,0,0,1-.458-.368,3.091,3.091,0,0,0-1.417-1.858,4.442,4.442,0,0,0-3.688.12.47.47,0,1,1-.332-.879Zm-3.728,5.836c1.859-1.364.554-4.384.541-4.415a.47.47,0,0,1,.859-.381c.067.152,1.624,3.741-.844,5.553-.27.2-.584.492-.543.761.069.451,1,.97,1.611,1.179a.47.47,0,0,1-.152.914.475.475,0,0,1-.152-.025c-.21-.071-2.052-.732-2.235-1.925A1.76,1.76,0,0,1,57.447,29.466Zm-3.013-4.479A1.215,1.215,0,1,1,53.22,26.2,1.214,1.214,0,0,1,54.434,24.987ZM59.608,37.72a3.152,3.152,0,0,1-.837.111A5.785,5.785,0,0,1,55.4,36.443a.47.47,0,1,1,.567-.749c1.317.995,2.457,1.374,3.388,1.123a2.613,2.613,0,0,0,1.556-1.39.469.469,0,0,1,.868.358A3.529,3.529,0,0,1,59.608,37.72Z" transform="translate(-0.039 -1.604)" style="fill:#f1a69b"/><path d="M61.507,24.509a4.442,4.442,0,0,1,3.688-.12,3.091,3.091,0,0,1,1.417,1.858.47.47,0,0,0,.458.368.44.44,0,0,0,.1-.011.469.469,0,0,0,.359-.557,4,4,0,0,0-1.876-2.477,5.3,5.3,0,0,0-4.479.06.47.47,0,1,0,.332.879Z" transform="translate(-0.039 -1.604)" style="fill:#3e3f4f"/><path d="M53.735,21.28a2.371,2.371,0,0,1,2.058.027,3.847,3.847,0,0,1,1.471,2.355.47.47,0,0,0,.461.383.521.521,0,0,0,.087-.008.471.471,0,0,0,.376-.547,4.737,4.737,0,0,0-1.927-3,3.077,3.077,0,0,0-2.328-.239,4.459,4.459,0,0,0-.525.146.471.471,0,0,0-.277.6.466.466,0,0,0,.215.231A.447.447,0,0,0,53.735,21.28Z" transform="translate(-0.039 -1.604)" style="fill:#3e3f4f"/><path d="M58.767,33.052a.475.475,0,0,0,.152.025.47.47,0,0,0,.152-.914c-.609-.209-1.542-.728-1.611-1.179-.041-.269.273-.563.543-.761,2.468-1.812.911-5.4.844-5.553a.47.47,0,0,0-.859.381c.013.031,1.318,3.051-.541,4.415a1.76,1.76,0,0,0-.915,1.661C56.715,32.32,58.557,32.981,58.767,33.052Z" transform="translate(-0.039 -1.604)" style="fill:#d3877f"/><path d="M61.775,35.785a.469.469,0,0,0-.868-.358,2.613,2.613,0,0,1-1.556,1.39c-.931.251-2.071-.128-3.388-1.123a.47.47,0,1,0-.567.749,5.785,5.785,0,0,0,3.375,1.388,3.152,3.152,0,0,0,.837-.111A3.529,3.529,0,0,0,61.775,35.785Z" transform="translate(-0.039 -1.604)" style="fill:#d3877f"/><circle cx="62.952" cy="27.026" r="1.214" style="fill:#3e3f4f"/><circle cx="54.395" cy="24.597" r="1.214" style="fill:#3e3f4f"/><path d="M71.967,22.1l-.385.17,2.761,6.249,1.448.954-3.34-7.558c-.034.016-.06.039-.094.055C72.235,22.031,72.1,22.054,71.967,22.1Z" transform="translate(-0.039 -1.604)" style="fill:#fff"/><path d="M74.343,28.522l-1.679-1.106L71.4,29.263,61.265,44.024l-.9,1.314,2.292,1.807,6.349,5,2.269-3.312a2.564,2.564,0,0,1,.144-.551L68.6,38.324s.7-1.269,1.576-.569c0,0-1.437-5.446,1.12-5.7,0,0,1.623-2.611,3.2.552a17.211,17.211,0,0,1,3.864,5.884l3.456-5.047-4.105-2.705-1.917-1.263Z" transform="translate(-0.039 -1.604)" style="fill:#2c5071"/><path d="M74.493,32.607l3.152,8.78-.9.273-2.253-9.053c-1.576-3.163-3.2-.552-3.2-.552L75.37,42.371l-.887.308-3.4-10.553.206-.071c-2.557.254-1.12,5.7-1.12,5.7l.117-.06,2.559,5.7-.493.276-2.183-5.919c-.876-.7-1.576.569-1.576.569l2.819,9.962a2.564,2.564,0,0,0-.144.551,7.4,7.4,0,0,0,.954,3.976,21.818,21.818,0,0,0,1.86,3.1L92.081,88.645h16.367l-.236-.6L98.688,63.535l-7.866,2.4S89.442,64.226,87.67,62l12.964,18.356a.468.468,0,0,1-.113.654.457.457,0,0,1-.27.087.469.469,0,0,1-.383-.2L79.481,52.036a.469.469,0,0,1,.113-.654.453.453,0,0,1,.309-.07c.138-1.251.612-4.579.836-6.535.063-.546.106-.986.117-1.243.059-1.342-1.748-2.1-1.748-2.1a12.1,12.1,0,0,0-.751-2.942A17.211,17.211,0,0,0,74.493,32.607Z" transform="translate(-0.039 -1.604)" style="fill:#fc9c9d"/><path d="M79.9,51.312a.453.453,0,0,0-.309.07.469.469,0,0,0-.113.654L99.868,80.9a.469.469,0,0,0,.383.2.457.457,0,0,0,.27-.087.468.468,0,0,0,.113-.654L87.67,62,80.248,51.494A.454.454,0,0,0,79.9,51.312Z" transform="translate(-0.039 -1.604)" style="fill:#d3877f"/><polygon points="76.708 40.055 77.606 39.783 74.455 31.003 76.708 40.055" style="fill:#d3877f"/><polygon points="71.05 30.522 74.444 41.074 75.332 40.766 71.255 30.451 71.05 30.522" style="fill:#d3877f"/><polygon points="72.812 41.794 70.252 36.09 70.135 36.151 72.319 42.069 72.812 41.794" style="fill:#d3877f"/><path d="M55.469,16.9l-2.254-4.17c-.028.085-.066.165-.087.253a2.884,2.884,0,0,0,.119,1.605l.542,1.012A4.524,4.524,0,0,0,55.469,16.9Z" transform="translate(-0.039 -1.604)" style="fill:#515151"/><path d="M55.817,18.033a5.946,5.946,0,0,1-.928-.376l.434.81.115-.1Z" transform="translate(-0.039 -1.604)" style="fill:#515151"/><path d="M63.938,14.88l.333.133-.347.872-.471-.188c-.035.081-.06.166-.09.249a4.051,4.051,0,0,0-.161.444,4.314,4.314,0,0,0,.993,3.72,6.816,6.816,0,0,0,3.779,2.254,7.476,7.476,0,0,0,1.662.19c.11,0,.213-.029.322-.034a6.389,6.389,0,0,0,2.009-.417c.128-.049.268-.072.39-.13.034-.016.06-.039.094-.055a4.287,4.287,0,0,0,2.415-2.866,4.382,4.382,0,0,0-1.14-3.857,6.838,6.838,0,0,0-3.632-2.116c-.043-.01-.087-.01-.13-.019a7.275,7.275,0,0,0-2.359-.108,6.2,6.2,0,0,0-1.9.518A4.723,4.723,0,0,0,63.938,14.88Zm4.492-1.052a6.569,6.569,0,0,1,1.455.166c2.711.619,4.534,2.794,4.066,4.849a3.394,3.394,0,0,1-1.991,2.279,5.512,5.512,0,0,1-2.433.474,6.521,6.521,0,0,1-1.343-.148,5.879,5.879,0,0,1-3.262-1.932,3.4,3.4,0,0,1-.8-2.917,2.874,2.874,0,0,1,.123-.336,3.475,3.475,0,0,1,1.867-1.943A5.493,5.493,0,0,1,68.43,13.828Z" transform="translate(-0.039 -1.604)" style="fill:#fff"/><path d="M55.817,18.033c.156.05.307.111.469.149a6.114,6.114,0,0,0,1.362.155,5.446,5.446,0,0,0,2.451-.565,4.124,4.124,0,0,0,1.978-2.06,3.842,3.842,0,0,0,.174-.493l-.493-.2.347-.872.282.112a3.779,3.779,0,0,0-.089-.8,5.222,5.222,0,0,0-4.07-3.788c-2.777-.635-5.479.757-6.015,3.1a4.028,4.028,0,0,0,.816,3.382,5.411,5.411,0,0,0,1.86,1.5A5.946,5.946,0,0,0,55.817,18.033Zm-2.043-2.447a3.509,3.509,0,0,1-.527-1,2.884,2.884,0,0,1-.119-1.605c.021-.088.059-.168.087-.253a3.7,3.7,0,0,1,3.656-2.274,5.133,5.133,0,0,1,1.148.131A4.236,4.236,0,0,1,61.4,13.777a2.534,2.534,0,0,1-.356,1.9,3.293,3.293,0,0,1-1.365,1.252,4.7,4.7,0,0,1-3.018.357c-.054-.011-.108-.011-.163-.024-.036-.008-.069-.024-.1-.033a5.113,5.113,0,0,1-.921-.331,4.524,4.524,0,0,1-1.68-1.3Z" transform="translate(-0.039 -1.604)" style="fill:#fff"/><polygon points="63.886 14.281 64.232 13.409 63.899 13.276 62.348 12.658 62.066 12.545 61.719 13.418 62.213 13.614 63.415 14.093 63.886 14.281" style="fill:#fff"/><polyline points="0.395 179.523 15.987 159.498 145.006 98.657 130.942 61.052 119.936 57.077" style="fill:none;stroke:#8e0000;stroke-miterlimit:10;stroke-dasharray:5"/><path d="M-1.255,25.968" transform="translate(-0.039 -1.604)" style="fill:none;stroke:#8e0000;stroke-miterlimit:10;stroke-dasharray:5"/><polyline points="0.012 27.727 19.503 27.727 31.885 33.918" style="fill:none;stroke:#8e0000;stroke-miterlimit:10;stroke-dasharray:5"/></svg>