<svg id="Capa_1" data-name="Capa 1" xmlns="http://www.w3.org/2000/svg" width="667.629" height="392.422" viewBox="0 0 667.629 392.422"><g style="opacity:0.1"><circle cx="471.225" cy="299.47" r="6.791" style="fill:none;stroke:#8e0429;stroke-miterlimit:10;stroke-width:5px"/><circle cx="640.081" cy="286.967" r="8.214" style="fill:none;stroke:#8e0429;stroke-miterlimit:10;stroke-width:5px"/><path d="M665.844,177.05a8.308,8.308,0,0,0-9.346,7.118c-.615,4.547,3.975,9.125,8.521,9.74" transform="translate(-0.82 0.631)" style="fill:none;stroke:#8e0429;stroke-miterlimit:10;stroke-width:5px"/><circle cx="640.207" cy="195.205" r="8.307" style="fill:none;stroke:#8e0429;stroke-miterlimit:10;stroke-width:5px"/><circle cx="577.417" cy="326.516" r="4.454" style="fill:none;stroke:#8e0429;stroke-miterlimit:10;stroke-width:5px"/><circle cx="520.592" cy="283.067" r="7.659" style="fill:none;stroke:#8e0429;stroke-miterlimit:10;stroke-width:5px"/><circle cx="479.013" cy="321.613" r="8.283" style="fill:none;stroke:#8e0429;stroke-miterlimit:10;stroke-width:5px"/><circle cx="518.414" cy="330.838" r="10.328" style="fill:none;stroke:#8e0429;stroke-miterlimit:10;stroke-width:5px"/><line x1="315.849" y1="339.644" x2="367.39" y2="388.466" style="fill:none;stroke:#8e0429;stroke-miterlimit:10;stroke-width:5px"/><line x1="343.365" y1="321.819" x2="402.716" y2="389.194" style="fill:none;stroke:#8e0429;stroke-miterlimit:10;stroke-width:5px"/><polyline points="640.527 387.191 643.626 331.156 605.598 284.186 611.484 252.767 626.091 246.777 664.381 259.728" style="fill:none;stroke:#8e0429;stroke-miterlimit:10;stroke-width:5px"/><polyline points="435.857 388.648 416.97 364.408 380.282 364.408" style="fill:none;stroke:#8e0429;stroke-miterlimit:10;stroke-width:5px"/><polygon points="586.446 375.173 552.759 389.194 537.225 356.014 570.821 342.239 586.446 375.173" style="fill:none;stroke:#8e0429;stroke-miterlimit:10;stroke-width:5px"/><polyline points="609.025 387.738 614.378 327.792 579.958 279.912 581.9 244.422 664.745 211.109" style="fill:none;stroke:#8e0429;stroke-miterlimit:10;stroke-width:5px"/><polyline points="466.448 389.012 427.288 332.535 466.922 339.909" style="fill:none;stroke:#8e0429;stroke-miterlimit:10;stroke-width:5px"/><polyline points="633.291 197.757 606.025 208.936 605.899 216.951 564.026 234.12 559.684 285.949 590.048 328.099 590.443 351.256 524.226 378.407 490.523 368.338 466.922 339.909 474.24 327.24" style="fill:none;stroke:#8e0429;stroke-miterlimit:10;stroke-width:5px"/><polyline points="527.043 288.527 538.622 302.548 535.973 312.734 527.083 324.342" style="fill:none;stroke:#8e0429;stroke-miterlimit:10;stroke-width:5px"/><line x1="646.541" y1="295.267" x2="665.838" y2="315.083" style="fill:none;stroke:#8e0429;stroke-miterlimit:10;stroke-width:5px"/></g><g style="opacity:0.1"><circle cx="46.285" cy="12.716" r="9.125" style="fill:none;stroke:#8e0429;stroke-miterlimit:10;stroke-width:5px"/><circle cx="55.758" cy="51.953" r="9.125" style="fill:none;stroke:#8e0429;stroke-miterlimit:10;stroke-width:5px"/><circle cx="33.619" cy="41.894" r="9.125" style="fill:none;stroke:#8e0429;stroke-miterlimit:10;stroke-width:5px"/><circle cx="46.511" cy="86.695" r="9.125" style="fill:none;stroke:#8e0429;stroke-miterlimit:10;stroke-width:5px"/><path d="M.951,47.018c13.3.7,27.337-28.97,26.962-47.6" transform="translate(-0.82 0.631)" style="fill:none;stroke:#8e0429;stroke-miterlimit:10;stroke-width:5px"/><path d="M84.162-.355c-.766,24.732-1.233,50.523-2,75.255l21.6-5.979" transform="translate(-0.82 0.631)" style="fill:none;stroke:#8e0429;stroke-miterlimit:10;stroke-width:5px"/><polyline points="101.045 71.907 110.079 23.812 110.279 0.076" style="fill:none;stroke:#8e0429;stroke-miterlimit:10;stroke-width:5px"/><path d="M42.824,93.057S13.686,141.6,1.085,141.131" transform="translate(-0.82 0.631)" style="fill:none;stroke:#8e0429;stroke-miterlimit:10;stroke-width:5px"/><path d="M57.516,15.139a16.069,16.069,0,0,1,5.671,29.722" transform="translate(-0.82 0.631)" style="fill:none;stroke:#8e0429;stroke-miterlimit:10;stroke-width:5px"/><path d="M30.955,51.785c-9.435,22.494-9.267,62.542-29.937,61.542" transform="translate(-0.82 0.631)" style="fill:none;stroke:#8e0429;stroke-miterlimit:10;stroke-width:5px"/></g><text transform="translate(25.92 167.004) scale(0.99 1)" style="font-size:14px;fill:#303030;font-family:Poppins-SemiBold, Poppins;font-weight:600">Su<tspan x="-22.624" y="13">Empresa</tspan></text><text transform="translate(451.805 91.521) scale(0.99 1)" style="font-size:14px;fill:#303030;font-family:Poppins-SemiBold, Poppins;font-weight:600">Operadores</text><text transform="translate(502.251 191.496) scale(0.99 1)" style="font-size:14px;fill:#303030;font-family:Poppins-SemiBold, Poppins;font-weight:600">Operadores</text><text transform="translate(453.524 292.103) scale(0.99 1)" style="font-size:14px;fill:#303030;font-family:Poppins-SemiBold, Poppins;font-weight:600">Operadores</text><text transform="translate(111.539 106.077)" style="font-size:15.85333251953125px;fill:#303030;font-family:Poppins-SemiBold, Poppins;font-weight:600">PBX</text><text transform="translate(407.897 208.687)" style="font-size:15.85333251953125px;fill:#303030;font-family:Poppins-SemiBold, Poppins;font-weight:600">PBX</text><text transform="translate(142.451 194.929)" style="font-size:15.85333251953125px;fill:#303030;font-family:Poppins-SemiBold, Poppins;font-weight:600">SIP</text><text transform="translate(212.853 189.718)" style="font-size:15.85333251953125px;fill:#303030;font-family:Poppins-SemiBold, Poppins;font-weight:600">Schnelke</text><text transform="translate(338.519 190.762)" style="font-size:15.85333251953125px;fill:#303030;font-family:Poppins-SemiBold, Poppins;font-weight:600">SIP</text><text transform="translate(310.487 303.521) rotate(-0.201)" style="font-size:15.85333251953125px;fill:#303030;font-family:Poppins-SemiBold, Poppins;font-weight:600">VOIP</text><text transform="translate(313.056 89.87)" style="font-size:15.85333251953125px;fill:#303030;font-family:Poppins-SemiBold, Poppins;font-weight:600">PTSN</text><rect x="457.161" y="104.991" width="17.223" height="19.563" style="fill:#9ed0ff"/><polygon points="457.127 124.473 474.383 124.473 474.383 132.639 457.127 132.639 457.127 124.473" style="fill:#73bcff"/><path d="M474.456,99.093H458.835a2.064,2.064,0,0,0-2.064,2.064v34.054a2.064,2.064,0,0,0,2.064,2.064h15.621a2.064,2.064,0,0,0,2.064-2.064V101.157A2.064,2.064,0,0,0,474.456,99.093Zm-10.444,2.634a.659.659,0,0,1,.658-.659h3.95a.659.659,0,0,1,.659.659h0a.659.659,0,0,1-.659.658h-3.95a.659.659,0,0,1-.658-.658Zm-1.975-.659a.659.659,0,1,1-.658.659A.658.658,0,0,1,462.037,101.068Zm4.608,34.89a1.317,1.317,0,1,1,1.317-1.316A1.316,1.316,0,0,1,466.645,135.958Zm8.558-11.849v7.9H458.087V104.36H475.2v19.749Z" transform="translate(-0.82 0.631)" style="fill:#7a8c98"/><path d="M464.67,102.385h3.95a.658.658,0,0,0,.658-.658h0a.658.658,0,0,0-.658-.659h-3.95a.659.659,0,0,0-.658.659h0A.659.659,0,0,0,464.67,102.385Z" transform="translate(-0.82 0.631)" style="fill:#464655"/><circle cx="461.217" cy="102.357" r="0.658" style="fill:#464655"/><circle cx="465.825" cy="135.272" r="1.317" style="fill:#464655"/><path d="M485.237,100.7h45.482v38.544H483.387V102.553c-.139-2.015.828-1.85,1.85-1.85Z" transform="translate(-0.82 0.631)" style="fill:#8d9ca8"/><path d="M484.492,100.7h25.634v38.545H483.449V102.548c-.078-2.015.467-1.85,1.043-1.85Z" transform="translate(-0.82 0.631)" style="fill:#7a8c98"/><path d="M488.412,97.121h8.325a1.233,1.233,0,0,1,1.233,1.233v33.817a1.233,1.233,0,0,1-1.233,1.233h-8.325a1.233,1.233,0,0,1-1.234-1.233V98.354a1.233,1.233,0,0,1,1.234-1.233Z" transform="translate(-0.82 0.631)" style="fill:#465a61"/><path d="M502.544,103.712H526.9v9.823H501.825v-9.1a.719.719,0,0,1,.719-.719Z" transform="translate(-0.82 0.631)" style="fill:#293939"/><path d="M503.264,105.151h22.2v6.943h-22.2Z" transform="translate(-0.82 0.631)" style="fill:#73bcff"/><path d="M501.824,116.782h6.322v3.929h-6.322Z" transform="translate(-0.82 0.631)" style="fill:#465a61"/><path d="M511.2,116.782h6.321v3.929H511.2Z" transform="translate(-0.82 0.631)" style="fill:#465a61"/><path d="M520.583,116.782H526.9v3.929h-6.321Z" transform="translate(-0.82 0.631)" style="fill:#465a61"/><path d="M501.824,123.335h6.322v3.928h-6.322Z" transform="translate(-0.82 0.631)" style="fill:#465a61"/><path d="M511.2,123.335h6.321v3.928H511.2Z" transform="translate(-0.82 0.631)" style="fill:#465a61"/><path d="M520.583,123.335H526.9v3.928h-6.321Z" transform="translate(-0.82 0.631)" style="fill:#465a61"/><path d="M501.824,129.887h6.322v3.929h-6.322Z" transform="translate(-0.82 0.631)" style="fill:#465a61"/><path d="M511.2,129.887h6.321v3.929H511.2Z" transform="translate(-0.82 0.631)" style="fill:#465a61"/><path d="M520.583,129.887H526.9v3.929h-6.321Z" transform="translate(-0.82 0.631)" style="fill:#465a61"/><path d="M112.216,109.723h79.4v21.441H113.64a1.425,1.425,0,0,1-1.424-1.425" transform="translate(-0.82 0.631)" style="fill:#8d9ca8"/><path d="M151.093,109.723H112.216v21.441h38.877" transform="translate(-0.82 0.631)" style="fill:#7a8c98"/><path d="M144.007,116.5h3.843v7.543h-3.843Z" transform="translate(-0.82 0.631)" style="fill:#465a61"/><path d="M135.743,116.5h3.843v7.543h-3.843Z" transform="translate(-0.82 0.631)" style="fill:#465a61"/><path d="M127.527,116.5h3.843v7.543h-3.843Z" transform="translate(-0.82 0.631)" style="fill:#465a61"/><path d="M119.311,116.5h3.843v7.543h-3.843Z" transform="translate(-0.82 0.631)" style="fill:#465a61"/><path d="M158.853,118.522H162.7v3.843h-3.844Z" transform="translate(-0.82 0.631)" style="fill:#fff"/><path d="M164.587,118.522h3.843v3.843h-3.843Z" transform="translate(-0.82 0.631)" style="fill:#c63448"/><path d="M171.025,118.522h13.533v3.843H171.025Z" transform="translate(-0.82 0.631)" style="fill:#c63448"/><path d="M153.135,118.522h3.844v3.843h-3.844Z" transform="translate(-0.82 0.631)" style="fill:#fff"/><path d="M410.4,211.427h50.5v13.636H411.3a.906.906,0,0,1-.905-.906" transform="translate(-0.82 0.631)" style="fill:#8d9ca8"/><path d="M435.12,211.427H410.4v13.636H435.12" transform="translate(-0.82 0.631)" style="fill:#7a8c98"/><path d="M430.613,215.739h2.444v4.8h-2.444Z" transform="translate(-0.82 0.631)" style="fill:#465a61"/><path d="M425.357,215.739H427.8v4.8h-2.445Z" transform="translate(-0.82 0.631)" style="fill:#465a61"/><path d="M420.132,215.739h2.445v4.8h-2.445Z" transform="translate(-0.82 0.631)" style="fill:#465a61"/><path d="M414.907,215.739h2.444v4.8h-2.444Z" transform="translate(-0.82 0.631)" style="fill:#465a61"/><path d="M440.055,217.022H442.5v2.445h-2.444Z" transform="translate(-0.82 0.631)" style="fill:#fff"/><path d="M443.7,217.022h2.445v2.445H443.7Z" transform="translate(-0.82 0.631)" style="fill:#c63448"/><path d="M447.8,217.022H456.4v2.445H447.8Z" transform="translate(-0.82 0.631)" style="fill:#c63448"/><path d="M436.419,217.022h2.444v2.445h-2.444Z" transform="translate(-0.82 0.631)" style="fill:#fff"/><path d="M63.465,149.74H41.142v-53.3H63.56v44.538" transform="translate(-0.82 0.631)" style="fill:#8e0429"/><path d="M44.686,88.278H41.142l-2.928,23.409,2.929,37.361,3.543-.5Z" transform="translate(-0.82 0.631)" style="fill:#ad0e30"/><path d="M13.145,88.219v5.507H9.8v56.637l18.9,2.108,12.445-1.641V88.219Z" transform="translate(-0.82 0.631)" style="fill:#c63448"/><path d="M20.051,96.487h4.118v5.856H20.051Z" transform="translate(-0.82 0.631)" style="fill:#f3fffb"/><path d="M30.3,96.487h4.118v5.856H30.3Z" transform="translate(-0.82 0.631)" style="fill:#f3fffb"/><path d="M20.051,108.2h4.118v5.856H20.051Z" transform="translate(-0.82 0.631)" style="fill:#f3fffb"/><path d="M30.3,108.2h4.118v5.856H30.3Z" transform="translate(-0.82 0.631)" style="fill:#f3fffb"/><path d="M20.051,119.911h4.118v5.856H20.051Z" transform="translate(-0.82 0.631)" style="fill:#f3fffb"/><path d="M30.3,119.911h4.118v5.856H30.3Z" transform="translate(-0.82 0.631)" style="fill:#f3fffb"/><path d="M20.051,131.623h4.118v5.856H20.051Z" transform="translate(-0.82 0.631)" style="fill:#f3fffb"/><path d="M30.3,131.623h4.118v5.856H30.3Z" transform="translate(-0.82 0.631)" style="fill:#f3fffb"/><path d="M49.972,108.2h4.117v5.856H49.972Z" transform="translate(-0.82 0.631)" style="fill:#d6d6d6"/><path d="M49.972,119.911h4.117v5.856H49.972Z" transform="translate(-0.82 0.631)" style="fill:#d6d6d6"/><path d="M63.465,148.55H40.811l-1.133,2.677,1.133,1.441H63.465Z" transform="translate(-0.82 0.631)" style="fill:#8d9ca8"/><path d="M9.8,148.55H41.142v4.118H9.8Z" transform="translate(-0.82 0.631)" style="fill:#7a8c98"/><path d="M313.482,312.494H348.2v29.418H312.07V313.906c-.106-1.538.632-1.412,1.412-1.412Z" transform="translate(-0.82 0.631)" style="fill:#8d9ca8"/><path d="M312.913,312.491h19.565v29.418H312.117V313.9c-.059-1.538.357-1.412.8-1.412Z" transform="translate(-0.82 0.631)" style="fill:#7a8c98"/><path d="M315.9,309.761h6.354a.941.941,0,0,1,.942.941v25.809a.942.942,0,0,1-.942.942H315.9a.941.941,0,0,1-.941-.942V310.7a.941.941,0,0,1,.941-.941Z" transform="translate(-0.82 0.631)" style="fill:#465a61"/><path d="M326.692,314.791h18.591v7.5H326.142V315.34a.549.549,0,0,1,.55-.549Z" transform="translate(-0.82 0.631)" style="fill:#293939"/><path d="M327.241,315.889h16.944v5.3H327.241Z" transform="translate(-0.82 0.631)" style="fill:#9ed0ff"/><path d="M326.142,324.766h4.825v3h-4.825Z" transform="translate(-0.82 0.631)" style="fill:#465a61"/><path d="M333.3,324.766h4.824v3H333.3Z" transform="translate(-0.82 0.631)" style="fill:#465a61"/><path d="M340.459,324.766h4.824v3h-4.824Z" transform="translate(-0.82 0.631)" style="fill:#465a61"/><path d="M326.142,329.767h4.825v3h-4.825Z" transform="translate(-0.82 0.631)" style="fill:#465a61"/><path d="M333.3,329.767h4.824v3H333.3Z" transform="translate(-0.82 0.631)" style="fill:#465a61"/><path d="M340.459,329.767h4.824v3h-4.824Z" transform="translate(-0.82 0.631)" style="fill:#465a61"/><path d="M326.142,334.768h4.825v3h-4.825Z" transform="translate(-0.82 0.631)" style="fill:#465a61"/><path d="M333.3,334.768h4.824v3H333.3Z" transform="translate(-0.82 0.631)" style="fill:#465a61"/><path d="M340.459,334.768h4.824v3h-4.824Z" transform="translate(-0.82 0.631)" style="fill:#465a61"/><path d="M304.3,312.991a1.58,1.58,0,1,0,.415-2.2A1.579,1.579,0,0,0,304.3,312.991Z" transform="translate(-0.82 0.631)" style="fill:#9ed0ff"/><path d="M297.581,300.346a14.619,14.619,0,0,1,8.621-2.58l.535.017-.071,2.14a12.427,12.427,0,0,0-7.885,2.181l-.235.16a12.619,12.619,0,0,0-4.649,6.374l-2.009-.72A15.556,15.556,0,0,1,297.581,300.346Z" transform="translate(-0.82 0.631)" style="fill:#9ed0ff"/><path d="M296.026,308.843a10.574,10.574,0,0,1,10.055-6.863l.52.015-.064,2.148a8.378,8.378,0,0,0-5.352,1.408l-.035.024a8.308,8.308,0,0,0-3.284,4.487l-2.016-.729Z" transform="translate(-0.82 0.631)" style="fill:#9ed0ff"/><path d="M302.332,307.307a6.188,6.188,0,0,1,3.623-1.121l.526.023-.07,2.14a4.2,4.2,0,0,0-2.885.706c-.07.048-.125.1-.194.146a4.236,4.236,0,0,0-1.489,2.278l-2.024-.723A7.283,7.283,0,0,1,302.332,307.307Z" transform="translate(-0.82 0.631)" style="fill:#9ed0ff"/><path d="M304.714,310.8l1.781,2.611a1.58,1.58,0,1,1-1.781-2.611Z" transform="translate(-0.82 0.631)" style="fill:#73bcff"/><path d="M302.332,307.307l1.194,1.748c-.07.048-.125.1-.194.146a4.24,4.24,0,0,0-1.489,2.278l-2.024-.723a7.283,7.283,0,0,1,2.513-3.449Z" transform="translate(-0.82 0.631)" style="fill:#73bcff"/><path d="M299.957,303.826l1.193,1.749a8.308,8.308,0,0,0-3.284,4.487l-2.016-.729.176-.49A10.531,10.531,0,0,1,299.957,303.826Z" transform="translate(-0.82 0.631)" style="fill:#73bcff"/><path d="M297.581,300.346l1.2,1.758-.235.16a12.619,12.619,0,0,0-4.649,6.374l-2.009-.72A15.556,15.556,0,0,1,297.581,300.346Z" transform="translate(-0.82 0.631)" style="fill:#73bcff"/><polygon points="336.129 119.973 330.076 119.973 332.557 112.255 333.648 112.255 336.129 119.973" style="fill:#5a5a5a"/><polygon points="343.894 137.851 342.158 139.638 333.103 130.955 324.047 139.638 322.311 137.851 331.317 129.243 327.273 125.373 329.009 123.586 333.103 127.506 337.196 123.586 338.933 125.373 334.889 129.243 343.894 137.851" style="fill:#5a5a5a"/><polygon points="336.129 119.973 333.103 119.973 333.103 112.255 333.648 112.255 336.129 119.973" style="fill:#444"/><polygon points="343.894 137.851 342.158 139.638 333.103 130.955 333.103 127.506 337.196 123.586 338.933 125.373 334.889 129.243 343.894 137.851" style="fill:#444"/><polygon points="344.192 138.348 341.86 139.141 333.103 113.545 324.345 139.141 322.013 138.348 331.937 109.377 333.103 109.774 334.269 109.377 344.192 138.348" style="fill:#6e6e6e"/><polygon points="344.192 138.348 341.86 139.141 333.103 113.545 333.103 109.774 334.269 109.377 344.192 138.348" style="fill:#5a5a5a"/><path d="M324.274,116.311a13.663,13.663,0,0,1,0-19.3l1.754,1.754a11.181,11.181,0,0,0,0,15.789Z" transform="translate(-0.82 0.631)" style="fill:#9ed0ff"/><path d="M343.571,116.311l-1.754-1.754a11.181,11.181,0,0,0,0-15.789l1.754-1.754A13.663,13.663,0,0,1,343.571,116.311Z" transform="translate(-0.82 0.631)" style="fill:#73bcff"/><path d="M327.784,112.8a8.688,8.688,0,0,1,0-12.279l1.754,1.754a6.208,6.208,0,0,0,0,8.771Z" transform="translate(-0.82 0.631)" style="fill:#9ed0ff"/><path d="M340.062,112.8l-1.754-1.754a6.211,6.211,0,0,0,0-8.771l1.754-1.754a8.69,8.69,0,0,1,0,12.279Z" transform="translate(-0.82 0.631)" style="fill:#73bcff"/><path d="M333.923,102.941a3.722,3.722,0,1,0,3.721,3.721A3.717,3.717,0,0,0,333.923,102.941Z" transform="translate(-0.82 0.631)" style="fill:#9ed0ff"/><rect x="318.217" y="137.504" width="29.77" height="2.481" style="fill:#c63448"/><rect x="333.103" y="137.504" width="14.885" height="2.481" style="fill:#8e0429"/><path d="M337.644,106.662a3.716,3.716,0,0,1-3.721,3.722v-7.443A3.716,3.716,0,0,1,337.644,106.662Z" transform="translate(-0.82 0.631)" style="fill:#73bcff"/><path d="M172.05,211.27a1.276,1.276,0,0,1-1.013-1.089,12.7,12.7,0,0,0-23.385-5.2,1.282,1.282,0,0,1-1.571.5,7.335,7.335,0,0,0-9.8,4.665,1.278,1.278,0,0,1-1.226.905h-.388a10.165,10.165,0,1,0,0,20.329h35.3a10.165,10.165,0,0,0,2.077-20.116Z" transform="translate(-0.82 0.631)" style="fill:#9ed0ff"/><path d="M172.05,211.27a1.276,1.276,0,0,1-1.013-1.089,12.7,12.7,0,0,0-18.718-9.614v30.82h17.654a10.166,10.166,0,0,0,2.077-20.117Z" transform="translate(-0.82 0.631)" style="fill:#73bcff"/><path d="M159.066,232.052V223.71a1.192,1.192,0,0,0-1.191-1.192H145.958a1.192,1.192,0,0,0-1.192,1.192v8.342Z" transform="translate(-0.82 0.631)" style="fill:#b5b5b5"/><path d="M157.875,227.285v-4.767H147.149a1.192,1.192,0,0,0-1.191,1.192v4.767h10.725A1.192,1.192,0,0,0,157.875,227.285Z" transform="translate(-0.82 0.631)" style="fill:#ccc"/><path d="M147.149,222.518v4.767a1.192,1.192,0,0,0,1.192,1.192h7.15a1.192,1.192,0,0,0,1.192-1.192v-4.767" transform="translate(-0.82 0.631)" style="fill:#f3a748"/><path d="M148.038,222.518h7.756v4.171h-7.756Z" transform="translate(-0.82 0.631)" style="fill:#f9d266"/><path d="M159.066,232.052h-14.3v6.555l2.383,4.17v4.767h9.534v-4.767l2.383-4.17Z" transform="translate(-0.82 0.631)" style="fill:#474747"/><path d="M148.341,247.544v2.384h7.15v-2.384" transform="translate(-0.82 0.631)" style="fill:#939393"/><path d="M154.3,249.928v8.342h-4.767v-8.342" transform="translate(-0.82 0.631)" style="fill:#ccc"/><path d="M153.406,255.29v-5.362h-2.979v6.554h1.787A1.192,1.192,0,0,0,153.406,255.29Z" transform="translate(-0.82 0.631)" style="fill:#ddd"/><path d="M147.149,244.565h9.534v1.192h-9.534Z" transform="translate(-0.82 0.631)" style="fill:#686868"/><path d="M146.809,242.182l.34.595v.6h9.534v-.6l.34-.595Z" transform="translate(-0.82 0.631)" style="fill:#686868"/><path d="M148.937,224.306h1.192v2.383h-1.192Z" transform="translate(-0.82 0.631)" style="fill:#686868"/><path d="M151.32,224.306h1.192v2.383H151.32Z" transform="translate(-0.82 0.631)" style="fill:#686868"/><path d="M153.7,224.306H154.9v2.383H153.7Z" transform="translate(-0.82 0.631)" style="fill:#686868"/><rect x="149.309" y="231.491" width="3.575" height="7.15" rx="1.192" style="fill:#f0ae42"/><path d="M152.81,235.791V230.86h-.6a1.192,1.192,0,0,0-1.192,1.192v4.334h1.192A.6.6,0,0,0,152.81,235.791Z" transform="translate(-0.82 0.631)" style="fill:#f9d266"/><path d="M154.9,248.14v-.6h-5.959v1.192H154.3A.6.6,0,0,0,154.9,248.14Z" transform="translate(-0.82 0.631)" style="fill:#b5b5b5"/><path d="M354.024,233.86v6.354h-3.63V233.86" transform="translate(-0.82 0.631)" style="fill:#ccc"/><path d="M352.663,237.945V233.86h-2.269v4.993h1.361A.909.909,0,0,0,352.663,237.945Z" transform="translate(-0.82 0.631)" style="fill:#ddd"/><path d="M366.216,205.621a.97.97,0,0,1-.771-.83,9.672,9.672,0,0,0-17.812-3.958.975.975,0,0,1-1.2.384,5.587,5.587,0,0,0-7.463,3.552.974.974,0,0,1-.934.69h-.3a7.742,7.742,0,0,0,0,15.484h26.891a7.743,7.743,0,0,0,1.581-15.322Z" transform="translate(-0.82 0.631)" style="fill:#9ed0ff"/><path d="M366.216,205.621a.97.97,0,0,1-.771-.829,9.671,9.671,0,0,0-14.257-7.323v23.474h13.447a7.743,7.743,0,0,0,1.581-15.322Z" transform="translate(-0.82 0.631)" style="fill:#73bcff"/><path d="M357.655,220.245v-6.354a.907.907,0,0,0-.908-.907h-9.076a.907.907,0,0,0-.908.907v6.354Z" transform="translate(-0.82 0.631)" style="fill:#b5b5b5"/><path d="M355.84,216.614v-3.63h-8.169a.907.907,0,0,0-.908.907v3.631h8.169A.908.908,0,0,0,355.84,216.614Z" transform="translate(-0.82 0.631)" style="fill:#ccc"/><path d="M348.578,212.984v3.63a.908.908,0,0,0,.908.908h5.446a.908.908,0,0,0,.908-.908v-3.63" transform="translate(-0.82 0.631)" style="fill:#f3a748"/><path d="M348.578,212.984h5.907v3.177h-5.907Z" transform="translate(-0.82 0.631)" style="fill:#f9d266"/><path d="M357.655,220.245H346.763v4.992l1.815,3.177v3.631h7.262v-3.631l1.815-3.177Z" transform="translate(-0.82 0.631)" style="fill:#474747"/><path d="M349.486,232.045v1.815h5.446v-1.815" transform="translate(-0.82 0.631)" style="fill:#939393"/><path d="M348.578,229.776h7.262v.907h-7.262Z" transform="translate(-0.82 0.631)" style="fill:#686868"/><path d="M348.319,227.96l.259.454v.454h7.262v-.454l.259-.454Z" transform="translate(-0.82 0.631)" style="fill:#686868"/><path d="M349.94,214.345h.907v1.816h-.907Z" transform="translate(-0.82 0.631)" style="fill:#686868"/><path d="M351.755,214.345h.908v1.816h-.908Z" transform="translate(-0.82 0.631)" style="fill:#686868"/><path d="M353.571,214.345h.907v1.816h-.907Z" transform="translate(-0.82 0.631)" style="fill:#686868"/><rect x="350.027" y="219.968" width="2.723" height="5.446" rx="0.908" style="fill:#f0ae42"/><path d="M352.209,223.093v-3.756h-.454a.909.909,0,0,0-.908.908v3.3h.908A.453.453,0,0,0,352.209,223.093Z" transform="translate(-0.82 0.631)" style="fill:#f9d266"/><path d="M354.024,232.5v-.454h-4.538v.908h4.085A.453.453,0,0,0,354.024,232.5Z" transform="translate(-0.82 0.631)" style="fill:#b5b5b5"/><path d="M561.167,131.036l-7.091,2.528-.269.94a3.557,3.557,0,0,1-3.223,2.432v.632H565.29Z" transform="translate(-0.82 0.631)" style="fill:#adaca7"/><path d="M563.964,134.5l-.991-3.468-4.088-2.528-4.087,2.528-.722,2.528h7.091l.269.94a3.556,3.556,0,0,0,3.222,2.432l1.264.632,1.265-.632A3.557,3.557,0,0,1,563.964,134.5Z" transform="translate(-0.82 0.631)" style="fill:#8f8f8b"/><path d="M574.771,131.036H577.3a2.536,2.536,0,0,0,2.528-2.528v-5.057l-5.057-5.056Z" transform="translate(-0.82 0.631)" style="fill:#adaca7"/><path d="M537.943,128.508a2.535,2.535,0,0,0,2.528,2.528h34.3a2.536,2.536,0,0,0,2.529-2.528v-15.17l-39.357,10.113Z" transform="translate(-0.82 0.631)" style="fill:#cbc9c2"/><path d="M577.3,98.168h-2.529l2.529,25.283h2.528V100.7A2.536,2.536,0,0,0,577.3,98.168Z" transform="translate(-0.82 0.631)" style="fill:#404242"/><path d="M577.3,100.7a2.536,2.536,0,0,0-2.529-2.529h-34.3a2.536,2.536,0,0,0-2.528,2.529v22.754H577.3v-2.528l-18.415-10.114Z" transform="translate(-0.82 0.631)" style="fill:#565959"/><path d="M577.3,100.7h-2.528l-15.887,10.114,15.886,10.114,2.529,0V100.7Z" transform="translate(-0.82 0.631)" style="fill:#73bcff"/><path d="M574.771,100.7l-34.293,0-.007,20.229,34.3,0V100.7Z" transform="translate(-0.82 0.631)" style="fill:#9ed0ff"/><circle cx="558.065" cy="127.875" r="1.264" style="fill:#fff"/><path d="M571.948,138.2H545.823a.632.632,0,1,1,0-1.264h26.125a.632.632,0,0,1,0,1.264Z" transform="translate(-0.82 0.631)" style="fill:#8f8f8b"/><rect x="457.161" y="304.993" width="17.223" height="19.563" style="fill:#9ed0ff"/><polygon points="457.127 324.476 474.383 324.476 474.383 332.641 457.127 332.641 457.127 324.476" style="fill:#73bcff"/><path d="M474.456,299.1H458.835a2.064,2.064,0,0,0-2.064,2.064v34.053a2.064,2.064,0,0,0,2.064,2.064h15.621a2.064,2.064,0,0,0,2.064-2.064V301.16A2.064,2.064,0,0,0,474.456,299.1Zm-10.444,2.633a.659.659,0,0,1,.658-.659h3.95a.659.659,0,0,1,.659.659h0a.659.659,0,0,1-.659.658h-3.95a.659.659,0,0,1-.658-.658Zm-1.975-.658a.658.658,0,1,1-.658.658A.657.657,0,0,1,462.037,301.071Zm4.608,34.889a1.317,1.317,0,1,1,1.317-1.316A1.316,1.316,0,0,1,466.645,335.96Zm8.558-11.849v7.9H458.087V304.362H475.2v19.749Z" transform="translate(-0.82 0.631)" style="fill:#7a8c98"/><path d="M464.67,302.387h3.95a.658.658,0,0,0,.658-.658h0a.658.658,0,0,0-.658-.659h-3.95a.659.659,0,0,0-.658.659h0A.659.659,0,0,0,464.67,302.387Z" transform="translate(-0.82 0.631)" style="fill:#464655"/><circle cx="461.217" cy="302.36" r="0.658" style="fill:#464655"/><circle cx="465.825" cy="335.275" r="1.317" style="fill:#464655"/><path d="M485.237,300.705h45.482v38.544H483.387V302.555c-.139-2.015.828-1.85,1.85-1.85Z" transform="translate(-0.82 0.631)" style="fill:#8d9ca8"/><path d="M484.492,300.7h25.634v38.544H483.449V302.551c-.078-2.016.467-1.85,1.043-1.85Z" transform="translate(-0.82 0.631)" style="fill:#7a8c98"/><path d="M488.412,297.123h8.325a1.233,1.233,0,0,1,1.233,1.234v33.816a1.233,1.233,0,0,1-1.233,1.233h-8.325a1.233,1.233,0,0,1-1.234-1.233V298.357a1.233,1.233,0,0,1,1.234-1.234Z" transform="translate(-0.82 0.631)" style="fill:#465a61"/><path d="M502.544,303.714H526.9v9.823H501.825v-9.1a.719.719,0,0,1,.719-.72Z" transform="translate(-0.82 0.631)" style="fill:#293939"/><path d="M503.264,305.153h22.2V312.1h-22.2Z" transform="translate(-0.82 0.631)" style="fill:#9ed0ff"/><path d="M501.824,316.784h6.322v3.929h-6.322Z" transform="translate(-0.82 0.631)" style="fill:#465a61"/><path d="M511.2,316.784h6.321v3.929H511.2Z" transform="translate(-0.82 0.631)" style="fill:#465a61"/><path d="M520.583,316.784H526.9v3.929h-6.321Z" transform="translate(-0.82 0.631)" style="fill:#465a61"/><path d="M501.824,323.337h6.322v3.928h-6.322Z" transform="translate(-0.82 0.631)" style="fill:#465a61"/><path d="M511.2,323.337h6.321v3.928H511.2Z" transform="translate(-0.82 0.631)" style="fill:#465a61"/><path d="M520.583,323.337H526.9v3.928h-6.321Z" transform="translate(-0.82 0.631)" style="fill:#465a61"/><path d="M501.824,329.889h6.322v3.929h-6.322Z" transform="translate(-0.82 0.631)" style="fill:#465a61"/><path d="M511.2,329.889h6.321v3.929H511.2Z" transform="translate(-0.82 0.631)" style="fill:#465a61"/><path d="M520.583,329.889H526.9v3.929h-6.321Z" transform="translate(-0.82 0.631)" style="fill:#465a61"/><path d="M561.167,331.038l-7.091,2.529-.269.939a3.557,3.557,0,0,1-3.223,2.432v.632H565.29Z" transform="translate(-0.82 0.631)" style="fill:#adaca7"/><path d="M563.964,334.506l-.991-3.468-4.088-2.528-4.087,2.528-.722,2.529h7.091l.269.939a3.556,3.556,0,0,0,3.222,2.432l1.264.632,1.265-.632A3.557,3.557,0,0,1,563.964,334.506Z" transform="translate(-0.82 0.631)" style="fill:#8f8f8b"/><path d="M574.771,331.038H577.3a2.535,2.535,0,0,0,2.528-2.528v-5.056l-5.057-5.057Z" transform="translate(-0.82 0.631)" style="fill:#adaca7"/><path d="M537.943,328.51a2.535,2.535,0,0,0,2.528,2.528h34.3a2.536,2.536,0,0,0,2.529-2.528V313.34l-39.357,10.114Z" transform="translate(-0.82 0.631)" style="fill:#cbc9c2"/><path d="M577.3,298.171h-2.529l2.529,25.283h2.528V300.7A2.535,2.535,0,0,0,577.3,298.171Z" transform="translate(-0.82 0.631)" style="fill:#404242"/><path d="M577.3,300.7a2.536,2.536,0,0,0-2.529-2.528h-34.3a2.535,2.535,0,0,0-2.528,2.528v22.755H577.3v-2.529l-18.415-10.114Z" transform="translate(-0.82 0.631)" style="fill:#565959"/><path d="M577.3,300.7l-2.528,0-15.887,10.114,15.886,10.114H577.3V300.7Z" transform="translate(-0.82 0.631)" style="fill:#73bcff"/><path d="M574.771,300.7l-34.293,0-.007,20.228h34.3V300.7Z" transform="translate(-0.82 0.631)" style="fill:#9ed0ff"/><circle cx="558.065" cy="327.877" r="1.264" style="fill:#fff"/><path d="M571.948,338.2H545.823a.632.632,0,1,1,0-1.264h26.125a.632.632,0,0,1,0,1.264Z" transform="translate(-0.82 0.631)" style="fill:#8f8f8b"/><rect x="504.855" y="205.051" width="17.223" height="19.563" style="fill:#9ed0ff"/><polygon points="504.821 224.534 522.077 224.534 522.077 232.7 504.821 232.7 504.821 224.534" style="fill:#73bcff"/><path d="M522.15,199.154H506.529a2.064,2.064,0,0,0-2.064,2.064v34.053a2.064,2.064,0,0,0,2.064,2.064H522.15a2.064,2.064,0,0,0,2.064-2.064V201.218A2.064,2.064,0,0,0,522.15,199.154Zm-10.444,2.633a.659.659,0,0,1,.659-.658h3.949a.659.659,0,0,1,.659.658h0a.659.659,0,0,1-.659.659h-3.949a.659.659,0,0,1-.659-.659Zm-1.975-.658a.659.659,0,1,1-.658.658A.659.659,0,0,1,509.731,201.129Zm4.608,34.89a1.317,1.317,0,1,1,1.317-1.317A1.317,1.317,0,0,1,514.339,236.019Zm8.558-11.85v7.9H505.782V204.42H522.9v19.749Z" transform="translate(-0.82 0.631)" style="fill:#7a8c98"/><path d="M512.365,202.446h3.949a.659.659,0,0,0,.659-.659h0a.659.659,0,0,0-.659-.658h-3.949a.659.659,0,0,0-.659.658h0A.659.659,0,0,0,512.365,202.446Z" transform="translate(-0.82 0.631)" style="fill:#464655"/><circle cx="508.911" cy="202.418" r="0.658" style="fill:#464655"/><circle cx="513.519" cy="235.333" r="1.317" style="fill:#464655"/><path d="M532.931,200.764h45.483v38.544H531.081V202.613c-.139-2.015.828-1.849,1.85-1.849Z" transform="translate(-0.82 0.631)" style="fill:#8d9ca8"/><path d="M532.186,200.759H557.82V239.3H531.143V202.609c-.078-2.015.467-1.85,1.043-1.85Z" transform="translate(-0.82 0.631)" style="fill:#7a8c98"/><path d="M536.106,197.182h8.325a1.234,1.234,0,0,1,1.234,1.233v33.816a1.234,1.234,0,0,1-1.234,1.234h-8.325a1.233,1.233,0,0,1-1.234-1.234V198.415a1.233,1.233,0,0,1,1.234-1.233Z" transform="translate(-0.82 0.631)" style="fill:#465a61"/><path d="M550.239,203.772H574.6V213.6H549.519v-9.1a.72.72,0,0,1,.72-.72Z" transform="translate(-0.82 0.631)" style="fill:#293939"/><path d="M550.958,205.212h22.2v6.943h-22.2Z" transform="translate(-0.82 0.631)" style="fill:#9ed0ff"/><path d="M549.519,216.843h6.321v3.928h-6.321Z" transform="translate(-0.82 0.631)" style="fill:#465a61"/><path d="M558.9,216.843h6.322v3.928H558.9Z" transform="translate(-0.82 0.631)" style="fill:#465a61"/><path d="M568.277,216.843H574.6v3.928h-6.321Z" transform="translate(-0.82 0.631)" style="fill:#465a61"/><path d="M549.519,223.4h6.321v3.929h-6.321Z" transform="translate(-0.82 0.631)" style="fill:#465a61"/><path d="M558.9,223.4h6.322v3.929H558.9Z" transform="translate(-0.82 0.631)" style="fill:#465a61"/><path d="M568.277,223.4H574.6v3.929h-6.321Z" transform="translate(-0.82 0.631)" style="fill:#465a61"/><path d="M549.519,229.948h6.321v3.929h-6.321Z" transform="translate(-0.82 0.631)" style="fill:#465a61"/><path d="M558.9,229.948h6.322v3.929H558.9Z" transform="translate(-0.82 0.631)" style="fill:#465a61"/><path d="M568.277,229.948H574.6v3.929h-6.321Z" transform="translate(-0.82 0.631)" style="fill:#465a61"/><path d="M608.861,231.1l-7.091,2.528-.269.94A3.557,3.557,0,0,1,598.278,237v.632h14.707Z" transform="translate(-0.82 0.631)" style="fill:#adaca7"/><path d="M611.658,234.565l-.991-3.468-4.087-2.528-4.088,2.528-.722,2.528h7.091l.269.94A3.557,3.557,0,0,0,612.353,237l1.264.632,1.264-.632A3.557,3.557,0,0,1,611.658,234.565Z" transform="translate(-0.82 0.631)" style="fill:#8f8f8b"/><path d="M622.466,231.1h2.528a2.535,2.535,0,0,0,2.528-2.528v-5.057l-5.056-5.057Z" transform="translate(-0.82 0.631)" style="fill:#adaca7"/><path d="M585.637,228.569a2.536,2.536,0,0,0,2.528,2.528h34.3a2.536,2.536,0,0,0,2.528-2.528V213.4l-39.357,10.113Z" transform="translate(-0.82 0.631)" style="fill:#cbc9c2"/><path d="M624.994,198.229h-2.528l2.528,25.283h2.528V200.757A2.535,2.535,0,0,0,624.994,198.229Z" transform="translate(-0.82 0.631)" style="fill:#404242"/><path d="M624.994,200.757a2.536,2.536,0,0,0-2.528-2.528h-34.3a2.536,2.536,0,0,0-2.528,2.528v22.755h39.357v-2.528L606.58,210.869Z" transform="translate(-0.82 0.631)" style="fill:#565959"/><path d="M624.994,200.757l-2.528,0L606.58,210.869l15.886,10.115,2.528,0V200.757Z" transform="translate(-0.82 0.631)" style="fill:#73bcff"/><path d="M622.383,200.618l-34.292.276.157,20.228,34.3-.279-.163-20.225Z" transform="translate(-0.82 0.631)" style="fill:#9ed0ff"/><circle cx="605.76" cy="227.935" r="1.264" style="fill:#fff"/><path d="M619.642,238.26H593.517a.632.632,0,1,1,0-1.264h26.125a.632.632,0,1,1,0,1.264Z" transform="translate(-0.82 0.631)" style="fill:#8f8f8b"/><path d="M275.368,210.261a1.547,1.547,0,0,1-1.229-1.323,15.415,15.415,0,0,0-28.389-6.308,1.556,1.556,0,0,1-1.907.611A8.9,8.9,0,0,0,231.95,208.9a1.554,1.554,0,0,1-1.49,1.1h-.471a12.339,12.339,0,0,0,0,24.678h42.858a12.34,12.34,0,0,0,2.521-24.419Z" transform="translate(-0.82 0.631)" style="fill:#9ed0ff"/><path d="M275.368,210.261a1.547,1.547,0,0,1-1.229-1.323,15.417,15.417,0,0,0-22.724-11.671v37.414h21.432a12.34,12.34,0,0,0,2.521-24.42Z" transform="translate(-0.82 0.631)" style="fill:#73bcff"/><path d="M270.743,230.914a.816.816,0,0,0,.834-.717.61.61,0,0,0-.182-.458q-.669.612-1.389,1.184c.245,0,.491,0,.737-.009Z" transform="translate(-0.82 0.631)" style="fill:#3498ac"/><path d="M279.286,212.668a.7.7,0,0,0-.377-.319q.04.618.042,1.232A.682.682,0,0,0,279.286,212.668Z" transform="translate(-0.82 0.631)" style="fill:#3498ac"/><path d="M264.823,194.092a.584.584,0,0,0-.069-.183.569.569,0,0,0-.033-.052v0a.79.79,0,0,0-.89-.4.922.922,0,0,0-.151.043.827.827,0,0,0-.421.338l-.019.009q.887.279,1.742.615C264.929,194.339,264.877,194.215,264.823,194.092Z" transform="translate(-0.82 0.631)" style="fill:#3498ac"/><path d="M235.788,199.02a1.007,1.007,0,0,0-.156.018.79.79,0,0,0-.671.707q-.009.332-.01.662.657-.633,1.368-1.226a.837.837,0,0,0-.531-.161Z" transform="translate(-0.82 0.631)" style="fill:#3498ac"/><path d="M242.465,235.959a.817.817,0,0,0,1.045.346q.344-.133.684-.273-.882-.254-1.735-.565a.607.607,0,0,0,.006.492Z" transform="translate(-0.82 0.631)" style="fill:#3498ac"/><path d="M235.282,231.909a.7.7,0,0,0,.758.7.932.932,0,0,0,.572-.2q-.667-.474-1.294-.989Q235.3,231.668,235.282,231.909Z" transform="translate(-0.82 0.631)" style="fill:#3498ac"/><path d="M226.467,210.539a69.994,69.994,0,0,0,13.116,5.883h0a40.735,40.735,0,0,0-4.265,15q.627.515,1.294.989a.706.706,0,0,0,.282-.5,39.267,39.267,0,0,1,3.851-14.356,31.193,31.193,0,0,0,4.3,4.571A34.541,34.541,0,0,0,254.608,228a38.814,38.814,0,0,1-11.682,7.029.811.811,0,0,0-.467.437q.852.31,1.735.565a40.292,40.292,0,0,0,11.939-7.442,40.284,40.284,0,0,0,13.874,2.333q.719-.572,1.388-1.184a.812.812,0,0,0-.6-.226,38.788,38.788,0,0,1-13.479-2.049,34.531,34.531,0,0,0,6.6-9.076q.109-.22.216-.443a58.7,58.7,0,0,0,14.745-4.331c.023-.01.045-.021.067-.033q0-.615-.041-1.232a.923.923,0,0,0-.693.024,56.774,56.774,0,0,1-13.394,4.049,28.1,28.1,0,0,0,.158-21.96q-.855-.336-1.742-.615a51.3,51.3,0,0,0-22.651,20.686,26.477,26.477,0,0,1-4.012-14.836.62.62,0,0,0-.257-.516q-.709.592-1.368,1.226a27.642,27.642,0,0,0,3.847,14.257,50.838,50.838,0,0,1-9.934-4.6M255.8,226.9a33.115,33.115,0,0,1-9.577-5.794,30.005,30.005,0,0,1-3.767-3.929,55.784,55.784,0,0,0,9.9,1.39,57.553,57.553,0,0,0,9.939-.365A33.154,33.154,0,0,1,255.8,226.9Zm7.763-31.645a26.97,26.97,0,0,1-.551,21.447,55.774,55.774,0,0,1-10.471.465,53.7,53.7,0,0,1-10.755-1.635,49.456,49.456,0,0,1,21.777-20.277Z" transform="translate(-0.82 0.631)" style="fill:#78d2f5"/><ellipse cx="255.935" cy="228.758" rx="2.468" ry="2.127" transform="translate(-40.366 54.678) rotate(-11.196)" style="fill:#c63448"/><ellipse cx="263.54" cy="217.726" rx="2.468" ry="2.127" transform="matrix(0.981, -0.194, 0.194, 0.981, -38.08, 55.945)" style="fill:#c63448"/><ellipse cx="240.472" cy="216.758" rx="2.468" ry="2.127" transform="matrix(0.981, -0.194, 0.194, 0.981, -38.331, 51.447)" style="fill:#c63448"/><path d="M263.546,192.987a2.151,2.151,0,1,1-2.008,2.565A2.32,2.32,0,0,1,263.546,192.987Z" transform="translate(-0.82 0.631)" style="fill:#c63448"/><path d="M235.107,198.493a2.15,2.15,0,1,1-2.007,2.565A2.318,2.318,0,0,1,235.107,198.493Z" transform="translate(-0.82 0.631)" style="fill:#c63448"/><path d="M235.622,230.72a2.151,2.151,0,1,1-2.008,2.566A2.318,2.318,0,0,1,235.622,230.72Z" transform="translate(-0.82 0.631)" style="fill:#c63448"/><path d="M242.736,234.4a2.15,2.15,0,1,1-2.007,2.566A2.32,2.32,0,0,1,242.736,234.4Z" transform="translate(-0.82 0.631)" style="fill:#c63448"/><path d="M270.65,228.878a2.15,2.15,0,1,1-2.007,2.566A2.32,2.32,0,0,1,270.65,228.878Z" transform="translate(-0.82 0.631)" style="fill:#c63448"/><ellipse cx="279.078" cy="213.534" rx="2.468" ry="2.127" transform="matrix(0.981, -0.194, 0.194, 0.981, -36.97, 58.882)" style="fill:#c63448"/><path d="M218.327,235.825a.7.7,0,0,0-.322-.942,16.432,16.432,0,0,1-5.514-4.371A16.626,16.626,0,0,1,214.8,207.14a16.4,16.4,0,0,1,9.508-3.729,2.112,2.112,0,1,0,.306-1.424,18.01,18.01,0,0,0-7.228,34.16A.7.7,0,0,0,218.327,235.825Zm8.14-33.41a.7.7,0,1,1-.769.631A.7.7,0,0,1,226.467,202.415Z" transform="translate(-0.82 0.631)" style="fill:#80aaff"/><path d="M286.091,211.315a.7.7,0,0,0,.1.99,16.43,16.43,0,0,1,4.365,5.519,16.626,16.626,0,0,1-7.6,22.221,16.4,16.4,0,0,1-10.109,1.45,2.113,2.113,0,1,0-.625,1.316,18.01,18.01,0,0,0,14.865-31.594A.7.7,0,0,0,286.091,211.315Zm-15.58,30.655a.7.7,0,1,1,.893-.438A.7.7,0,0,1,270.511,241.97Z" transform="translate(-0.82 0.631)" style="fill:#80aaff"/><line x1="101.932" y1="121.465" x2="68.861" y2="121.465" style="fill:none;stroke:#000;stroke-linejoin:round;stroke-width:2px;stroke-dasharray:3"/><line x1="201.543" y1="220.981" x2="182.25" y2="220.981" style="fill:none;stroke:#000;stroke-linejoin:round;stroke-width:2px;stroke-dasharray:3"/><line x1="323.416" y1="218.876" x2="296.288" y2="218.876" style="fill:none;stroke:#000;stroke-linejoin:round;stroke-width:2px;stroke-dasharray:3"/><line x1="401.836" y1="218.876" x2="374.709" y2="218.876" style="fill:none;stroke:#000;stroke-linejoin:round;stroke-width:2px;stroke-dasharray:3"/><line x1="493.575" y1="218.876" x2="466.447" y2="218.876" style="fill:none;stroke:#000;stroke-linejoin:round;stroke-width:2px;stroke-dasharray:3"/><line x1="445.556" y1="318.817" x2="357.717" y2="318.817" style="fill:none;stroke:#000;stroke-linejoin:round;stroke-width:2px;stroke-dasharray:3"/><line x1="442.193" y1="118.815" x2="354.354" y2="118.815" style="fill:none;stroke:#000;stroke-linejoin:round;stroke-width:2px;stroke-dasharray:3"/><line x1="314.549" y1="142.217" x2="286.269" y2="175.465" style="fill:none;stroke:#000;stroke-linejoin:round;stroke-width:2px;stroke-dasharray:3"/><line x1="275.576" y1="253.802" x2="306.6" y2="286.981" style="fill:none;stroke:#000;stroke-linejoin:round;stroke-width:2px;stroke-dasharray:3"/><line x1="151.288" y1="138.65" x2="151.288" y2="175.3" style="fill:none;stroke:#000;stroke-linejoin:round;stroke-width:2px;stroke-dasharray:3"/><path d="M257.708,168.823" transform="translate(-0.82 0.631)" style="fill:none;stroke:#8e0429;stroke-miterlimit:10;stroke-width:0.8500000238418579px"/><path d="M232.011,152.606a8.923,8.923,0,0,1,4.829-4.728,9.019,9.019,0,0,1,5.9-.1,9.269,9.269,0,0,1,2.034.915,10.335,10.335,0,0,1,4.829-1.372,10.672,10.672,0,0,1,6.812,2.338,10.462,10.462,0,0,1,1.474,1.424,10.141,10.141,0,0,1,7.728,1.576,8.416,8.416,0,0,1,1.779,1.83c6.7-.552,12.13,3.521,12.912,8.388a9.112,9.112,0,0,1-14.59,8.591,7.018,7.018,0,0,1-1.576-1.779,10.267,10.267,0,0,1-4.219.051,10.03,10.03,0,0,1-2.084-.661,10.252,10.252,0,0,1-7.118,4.27,10.779,10.779,0,0,1-6.913-2.084,11.344,11.344,0,0,1-1.373-1.119,5.118,5.118,0,0,1-3.025.432,3.46,3.46,0,0,1-1.372-.61,10.012,10.012,0,0,1-5.262,2.746,10.4,10.4,0,0,1-9.913-4.271c-2.36-3.273-3.318-8.776-.076-12.277,3.2-3.452,8.285-2.592,8.693-2.516Z" transform="translate(-0.82 0.631)" style="fill:none;stroke:#8e0429;stroke-miterlimit:10;stroke-width:0.8500000238418579px"/><polyline points="278.011 170.165 277.553 169.708 278.062 165.946" style="fill:none;stroke:#8e0429;stroke-miterlimit:10;stroke-width:0.8500000238418579px"/><circle cx="278.149" cy="165.341" r="0.458" style="fill:none;stroke:#8e0429;stroke-miterlimit:10;stroke-width:0.8500000238418579px"/><circle cx="275.633" cy="163.286" r="0.458" style="fill:none;stroke:#8e0429;stroke-miterlimit:10;stroke-width:0.8500000238418579px"/><circle cx="274.422" cy="167.995" r="0.458" style="fill:none;stroke:#8e0429;stroke-miterlimit:10;stroke-width:0.8500000238418579px"/><circle cx="262.228" cy="168.148" r="0.458" style="fill:none;stroke:#8e0429;stroke-miterlimit:10;stroke-width:0.8500000238418579px"/><circle cx="270.705" cy="170.064" r="0.656" style="fill:none;stroke:#8e0429;stroke-miterlimit:10;stroke-width:0.8500000238418579px"/><circle cx="259.267" cy="152.982" r="0.656" style="fill:none;stroke:#8e0429;stroke-miterlimit:10;stroke-width:0.8500000238418579px"/><circle cx="243.715" cy="158.053" r="0.794" style="fill:none;stroke:#8e0429;stroke-miterlimit:10;stroke-width:0.8500000238418579px"/><circle cx="239.655" cy="162.305" r="0.699" style="fill:none;stroke:#8e0429;stroke-miterlimit:10;stroke-width:0.8500000238418579px"/><circle cx="236.185" cy="155.308" r="0.802" style="fill:none;stroke:#8e0429;stroke-miterlimit:10;stroke-width:0.8500000238418579px"/><circle cx="236.204" cy="151.667" r="0.802" style="fill:none;stroke:#8e0429;stroke-miterlimit:10;stroke-width:0.8500000238418579px"/><circle cx="237.882" cy="149.894" r="0.802" style="fill:none;stroke:#8e0429;stroke-miterlimit:10;stroke-width:0.8500000238418579px"/><circle cx="240.341" cy="149.856" r="0.802" style="fill:none;stroke:#8e0429;stroke-miterlimit:10;stroke-width:0.8500000238418579px"/><circle cx="233.478" cy="156.662" r="0.802" style="fill:none;stroke:#8e0429;stroke-miterlimit:10;stroke-width:0.8500000238418579px"/><circle cx="227.473" cy="160.322" r="0.802" style="fill:none;stroke:#8e0429;stroke-miterlimit:10;stroke-width:0.8500000238418579px"/><circle cx="224.671" cy="162.629" r="0.802" style="fill:none;stroke:#8e0429;stroke-miterlimit:10;stroke-width:0.8500000238418579px"/><circle cx="226.768" cy="163.048" r="0.802" style="fill:none;stroke:#8e0429;stroke-miterlimit:10;stroke-width:0.8500000238418579px"/><circle cx="223.546" cy="165.584" r="0.802" style="fill:none;stroke:#8e0429;stroke-miterlimit:10;stroke-width:0.8500000238418579px"/><circle cx="235.556" cy="160.665" r="0.699" style="fill:none;stroke:#8e0429;stroke-miterlimit:10;stroke-width:0.8500000238418579px"/><circle cx="238.225" cy="158.606" r="0.699" style="fill:none;stroke:#8e0429;stroke-miterlimit:10;stroke-width:0.8500000238418579px"/><circle cx="250.766" cy="159.292" r="0.43" style="fill:none;stroke:#8e0429;stroke-miterlimit:10;stroke-width:0.8500000238418579px"/><circle cx="254.253" cy="153.326" r="0.74" style="fill:none;stroke:#8e0429;stroke-miterlimit:10;stroke-width:0.8500000238418579px"/><circle cx="259.382" cy="155.247" r="0.8" style="fill:none;stroke:#8e0429;stroke-miterlimit:10;stroke-width:0.8500000238418579px"/><circle cx="256.198" cy="157.516" r="0.998" style="fill:none;stroke:#8e0429;stroke-miterlimit:10;stroke-width:0.8500000238418579px"/><polyline points="274.402 173.266 273.995 172.656 274.351 168.589" style="fill:none;stroke:#8e0429;stroke-miterlimit:10;stroke-width:0.8500000238418579px"/><polyline points="278.71 161.37 276.943 161.37 275.927 162.794" style="fill:none;stroke:#8e0429;stroke-miterlimit:10;stroke-width:0.8500000238418579px"/><polyline points="276.181 158.117 273.182 161.218 272.47 164.98 266.878 169.809 266.674 173.012" style="fill:none;stroke:#8e0429;stroke-miterlimit:10;stroke-width:0.8500000238418579px"/><polyline points="271.911 155.931 270.284 163.76 263.624 169.25 263.319 170.318" style="fill:none;stroke:#8e0429;stroke-miterlimit:10;stroke-width:0.8500000238418579px"/><polyline points="269.318 155.067 268.098 161.37 259.659 168.183 230.275 168.183 228.547 164.624 229.97 158.829 232.677 157.234" style="fill:none;stroke:#8e0429;stroke-miterlimit:10;stroke-width:0.8500000238418579px"/><polyline points="253.66 172.656 251.83 171.334 245.577 171.334 244.357 172.656" style="fill:none;stroke:#8e0429;stroke-miterlimit:10;stroke-width:0.8500000238418579px"/><polyline points="266.573 155.118 265.454 160.405 258.49 165.997 247.001 165.997 245.018 162.133 246.696 156.541 245.018 153.948 243.493 153.948 238.969 157.964" style="fill:none;stroke:#8e0429;stroke-miterlimit:10;stroke-width:0.8500000238418579px"/><polygon points="251.983 169.555 255.44 169.555 255.44 160.455 251.932 160.455 251.983 169.555" style="fill:none;stroke:#8e0429;stroke-miterlimit:10;stroke-width:0.8500000238418579px"/><polyline points="264.794 153.287 262.913 159.896 257.371 164.014 249.39 164.014 247.509 160.76 248.831 155.219 247.357 152.118 239.629 152.118 236.986 154.558" style="fill:none;stroke:#8e0429;stroke-miterlimit:10;stroke-width:0.8500000238418579px"/><polyline points="241.053 149.831 243.9 149.831 244.205 150.542 248.577 150.542 250.864 155.016 249.695 159.896 250.508 161.981 257.422 161.981 260.066 159.845 261.133 156.439 260.015 155.575" style="fill:none;stroke:#8e0429;stroke-miterlimit:10;stroke-width:0.8500000238418579px"/><polyline points="261.896 152.118 261.184 153.186 260.066 153.186" style="fill:none;stroke:#8e0429;stroke-miterlimit:10;stroke-width:0.8500000238418579px"/><path d="M251.278,147.471a2.546,2.546,0,0,0,.661,1.271,3.178,3.178,0,0,0,3.456.458" transform="translate(-0.82 0.631)" style="fill:none;stroke:#8e0429;stroke-miterlimit:10;stroke-width:0.8500000238418579px"/><polyline points="253.876 154.05 253.355 155.728 253.965 156.541 255.185 157.253" style="fill:none;stroke:#8e0429;stroke-miterlimit:10;stroke-width:0.8500000238418579px"/><line x1="233.478" y1="149.932" x2="236.884" y2="149.932" style="fill:none;stroke:#8e0429;stroke-miterlimit:10;stroke-width:0.8500000238418579px"/><polyline points="235.308 151.661 233.631 151.661 231.851 155.829 226.463 155.829 221.633 162.997 219.752 163.353" style="fill:none;stroke:#8e0429;stroke-miterlimit:10;stroke-width:0.8500000238418579px"/><polyline points="219.752 161.93 220.413 161.726 222.652 157.176 221.964 156.795" style="fill:none;stroke:#8e0429;stroke-miterlimit:10;stroke-width:0.8500000238418579px"/><line x1="223.514" y1="166.098" x2="223.311" y2="170.47" style="fill:none;stroke:#8e0429;stroke-miterlimit:10;stroke-width:0.8500000238418579px"/><line x1="224.836" y1="171.639" x2="235.918" y2="171.639" style="fill:none;stroke:#8e0429;stroke-miterlimit:10;stroke-width:0.8500000238418579px"/><polyline points="243.442 159.032 242.12 164.167 240.544 165.641 233.192 165.641 232.487 163.429 232.563 163.201 234.927 161.142" style="fill:none;stroke:#8e0429;stroke-miterlimit:10;stroke-width:0.8500000238418579px"/><path d="M227.283,159.367a1.413,1.413,0,0,0-1.932,1.83" transform="translate(-0.82 0.631)" style="fill:none;stroke:#8e0429;stroke-miterlimit:10;stroke-width:0.8500000238418579px"/><polyline points="226.463 164.065 225.141 168.793 225.497 170.572 237.215 170.572" style="fill:none;stroke:#8e0429;stroke-miterlimit:10;stroke-width:0.8500000238418579px"/></svg>