<svg id="Capa_1" data-name="Capa 1" xmlns="http://www.w3.org/2000/svg" width="206.854" height="224.929" viewBox="0 0 206.854 224.929"><path d="M77.359,221.334c.044-.411.094-.82.141-1.23.186-1.625.393-3.244.632-4.853.046-.308.089-.616.137-.924.251-1.626.538-3.242.842-4.85.093-.489.184-.978.281-1.465q.485-2.418,1.047-4.808c.116-.49.238-.978.358-1.466.386-1.566.79-3.124,1.225-4.669.095-.336.195-.669.292-1q.644-2.217,1.356-4.4c.133-.411.263-.823.4-1.232q.8-2.387,1.677-4.733c.144-.387.292-.772.439-1.157.624-1.628,1.269-3.247,1.948-4.847.062-.146.128-.289.191-.435.192-.447.389-.892.585-1.337H31.283a8.042,8.042,0,0,1-8.043-8.042V87.92a8.015,8.015,0,0,1,5.549-7.608v-.248a8.042,8.042,0,0,1,8.042-8.043H68.505c-1.246-6.689-.7-13.608,4.461-18.77,13.585-13.586,26.047-3.279,26.047-3.279,11.993,4.123,8.995,13.961,8.995,13.961l-.084.1a6.088,6.088,0,0,1,.7,4.815,14.343,14.343,0,0,0,.737,1.29,10.324,10.324,0,0,1,.672,1.185c.062.175.1.371.151.553a1.67,1.67,0,0,1,.581-.191l.217.333h17.009a8.042,8.042,0,0,1,8.043,8.043v38.977A145.742,145.742,0,0,1,206.854,91.3V.071H0V225H77.018Q77.167,223.161,77.359,221.334Z" transform="translate(0 -0.071)" style="fill:none"/><path d="M77.018,225h.022c.1-1.224.191-2.451.319-3.666Q77.167,223.159,77.018,225Z" transform="translate(0 -0.071)" style="fill:#f1f8f9"/><path d="M82.314,196.065q.644-2.217,1.356-4.4Q82.961,193.85,82.314,196.065Z" transform="translate(0 -0.071)" style="fill:#f1f8f9"/><path d="M80.8,201.738c.386-1.566.789-3.124,1.225-4.669C81.587,198.614,81.183,200.172,80.8,201.738Z" transform="translate(0 -0.071)" style="fill:#f1f8f9"/><path d="M77.5,220.1q.279-2.437.632-4.853C77.893,216.86,77.686,218.479,77.5,220.1Z" transform="translate(0 -0.071)" style="fill:#f1f8f9"/><path d="M78.269,214.327c.251-1.627.538-3.242.842-4.85C78.807,211.085,78.52,212.7,78.269,214.327Z" transform="translate(0 -0.071)" style="fill:#f1f8f9"/><path d="M88.91,177.922c-.2.445-.393.89-.585,1.337.193-.45.405-.889.6-1.337Z" transform="translate(0 -0.071)" style="fill:#f1f8f9"/><path d="M86.186,184.541c.625-1.628,1.268-3.247,1.948-4.847C87.455,181.294,86.81,182.913,86.186,184.541Z" transform="translate(0 -0.071)" style="fill:#f1f8f9"/><path d="M79.392,208.012q.485-2.418,1.047-4.808Q79.877,205.594,79.392,208.012Z" transform="translate(0 -0.071)" style="fill:#f1f8f9"/><path d="M84.07,190.431q.8-2.385,1.677-4.733Q84.87,188.046,84.07,190.431Z" transform="translate(0 -0.071)" style="fill:#f1f8f9"/><path d="M136.035,126.681c.711,1.608,1.558,3.619,2.374,5.815a2.417,2.417,0,0,1,3.067.353c.092,1.054.22,2.118.321,3.182,2.916-.734,5.869-1.5,8.786-2.229a4.231,4.231,0,0,0,3.971,7.393c-.027,1.559-1.421,2.751-2.687,3.677-3.21,2.421-6.658,4.907-10.4,6.1l.862,1.789a.831.831,0,0,1-.294.073,7.561,7.561,0,0,1-2.637-.328,6.008,6.008,0,0,1-3.363,1.332v3.639a7.96,7.96,0,0,1,3.258,1.062,9.437,9.437,0,0,1-3.3,3.94,8,8,0,0,1-5.5,7.154v.248a8.041,8.041,0,0,1-8.042,8.042h-13.4a3.787,3.787,0,0,0-1.025,3.131c.165.927.761,1.789.733,2.752-.1,1.788-2.182,2.623-3.577,3.778-2.384,1.991-2.98,5.641-5.53,7.393-1.853,1.293-4.31,1.265-6.466,1.926s-4.31,2.815-3.439,4.906a1.922,1.922,0,0,1-2.458-1.559,72.72,72.72,0,0,0-7.346,24c1.889,1.32,3.806-1.7,4.173-3.981.394-2.283,2.384-5.273,4.237-3.916-.38,2.893-.758,5.76-1.131,8.646H206.854V114.505a11.278,11.278,0,0,0-1.931.716c-2.623,1.293-4.741,3.733-7.63,4.192-1.669.266-3.4-.184-5.063.183-2.779.6-4.53,3.237-6.585,5.2-2.366,2.266-5.842,3.815-8.933,2.733s-4.7-5.677-2.228-7.823c1.219-1.055,2.962-1.229,4.4-1.972s2.577-2.7,1.5-3.907c-.468-.523-1.238-.724-1.669-1.284-.468-.605-.422-1.467-.807-2.128-1.468-2.577-5.549.89-8.328-.146l-1.229.119c3.329-1.6,6.145-4.109,9.428-5.8,5.65-2.9,12.244-3.155,18.59-3.357l10.488-.326V91.3a145.742,145.742,0,0,0-70.819,27.742Zm16.905,25.574a15.01,15.01,0,0,1-5.1,2.724,4.992,4.992,0,0,1-5.21-1.614l-.293-.6c2.449-.367,2.614-2.091,4.476-2.724,2.118-.7,1.394.064,3.476,0,1.687-.073,2.714,1.156,4.64.257A6.622,6.622,0,0,1,152.94,152.255Zm-5.484-26.945c.981-.23,2.347-.119,2.65-1.082a3.066,3.066,0,0,0,.037-.918c-.037-1.816,1.586-3.32,3.338-3.778a12.314,12.314,0,0,1,5.384.247,6.676,6.676,0,0,1,.513,4.256c-1.219.055-2.439.1-3.659.156.11,2.027-.092,4.576-1.972,5.328-1.687.67-3.889-.577-5.292.56l.9.55a2.843,2.843,0,1,1-1.9-5.319Z" transform="translate(0 -0.071)" style="fill:#f1f8f9"/><path d="M150.29,150.045c-2.082.064-1.358-.7-3.476,0-1.862.633-2.027,2.357-4.476,2.724l.293.6a4.992,4.992,0,0,0,5.21,1.614,15.01,15.01,0,0,0,5.1-2.724,6.622,6.622,0,0,0,1.99-1.953C153,151.2,151.977,149.972,150.29,150.045Z" transform="translate(0 -0.071)" style="fill:#c93e51"/><path d="M139.4,152.505a7.561,7.561,0,0,0,2.637.328.831.831,0,0,0,.294-.073l-.862-1.789c3.742-1.192,7.19-3.678,10.4-6.1,1.266-.926,2.66-2.118,2.687-3.677a4.231,4.231,0,0,1-3.971-7.393c-2.917.734-5.87,1.5-8.786,2.229-.1-1.064-.229-2.128-.321-3.182a2.417,2.417,0,0,0-3.067-.353C141.106,139.757,143.446,149.034,139.4,152.505Z" transform="translate(0 -0.071)" style="fill:#c93e51"/><path d="M84.109,220.27c-.367,2.284-2.284,5.3-4.173,3.981a72.72,72.72,0,0,1,7.346-24,1.922,1.922,0,0,0,2.458,1.559c-.871-2.091,1.284-4.246,3.439-4.906s4.613-.633,6.466-1.926c2.55-1.752,3.146-5.4,5.53-7.393,1.395-1.155,3.476-1.99,3.577-3.778.028-.963-.568-1.825-.733-2.752a3.787,3.787,0,0,1,1.025-3.131H88.928c-.2.448-.41.887-.6,1.337-.063.146-.129.289-.191.435-.68,1.6-1.323,3.219-1.948,4.847-.147.385-.3.77-.439,1.157q-.877,2.347-1.677,4.733c-.137.409-.267.821-.4,1.232q-.711,2.187-1.356,4.4c-.1.335-.2.668-.292,1-.436,1.545-.839,3.1-1.225,4.669-.12.488-.242.976-.358,1.466q-.562,2.389-1.047,4.808c-.1.487-.188.976-.281,1.465-.3,1.608-.591,3.223-.842,4.85-.048.308-.091.616-.137.924q-.357,2.414-.632,4.853c-.047.41-.1.819-.141,1.23-.128,1.215-.22,2.442-.319,3.666H87.215c.373-2.886.751-5.753,1.131-8.646C86.493,215,84.5,217.987,84.109,220.27Z" transform="translate(0 -0.071)" style="fill:#c93e51"/><path d="M135.989,162.478a9.437,9.437,0,0,0,3.3-3.94,7.96,7.96,0,0,0-3.258-1.062v4.548C136.035,162.179,136,162.325,135.989,162.478Z" transform="translate(0 -0.071)" style="fill:#c93e51"/><path d="M149.354,130.629l-.9-.55c1.4-1.137,3.6.11,5.292-.56,1.88-.752,2.082-3.3,1.972-5.328,1.22-.055,2.44-.1,3.659-.156a6.676,6.676,0,0,0-.513-4.256,12.314,12.314,0,0,0-5.384-.247c-1.752.458-3.375,1.962-3.338,3.778a3.066,3.066,0,0,1-.037.918c-.3.963-1.669.852-2.65,1.082a2.843,2.843,0,1,0,1.9,5.319Z" transform="translate(0 -0.071)" style="fill:#c93e51"/><path d="M177.776,104.592c-3.283,1.687-6.1,4.2-9.428,5.8l1.229-.119c2.779,1.036,6.86-2.431,8.328.146.385.661.339,1.523.807,2.128.431.56,1.2.761,1.669,1.284,1.082,1.2-.055,3.173-1.5,3.907s-3.183.917-4.4,1.972c-2.477,2.146-.862,6.741,2.228,7.823s6.567-.467,8.933-2.733c2.055-1.963,3.806-4.6,6.585-5.2,1.66-.367,3.394.083,5.063-.183,2.889-.459,5.007-2.9,7.63-4.192a11.278,11.278,0,0,1,1.931-.716v-13.6l-10.488.326C190.02,101.437,183.426,101.693,177.776,104.592Z" transform="translate(0 -0.071)" style="fill:#c93e51"/><path d="M109.044,177.922h13.4a8.041,8.041,0,0,0,8.042-8.042v-.248a7.954,7.954,0,0,1-2.494.434H36.831a8.041,8.041,0,0,1-8.042-8.042V80.312A8.015,8.015,0,0,0,23.24,87.92v81.96a8.042,8.042,0,0,0,8.043,8.042h77.761Z" transform="translate(0 -0.071)" style="fill:#001b2e"/><path d="M113.888,75.9a4.594,4.594,0,0,1,3.283,1.532c1.423,1.589,3.723,3.942,4.048,4.763s3.231,10.18,3.121,16.036,7.884,20.255,10.4,25.615c.309.66.765,1.636,1.295,2.832V80.064a8.042,8.042,0,0,0-8.043-8.043H110.983A24.683,24.683,0,0,0,113.888,75.9Z" transform="translate(0 -0.071)" style="fill:#5c121c"/><path d="M102.2,96.026c3.225,2.937,13.285,2.65,11.552,11.951-.03.159-.074.312-.109.468a22.26,22.26,0,0,1,5.85,3.638c-.86-3.1-1.82-5.735-2.763-6.623-2.792-2.625-8.266-7.937-8.784-12.7-.137-1.253-.3-2.328-.463-3.248a3.709,3.709,0,0,1-.38.294,8.523,8.523,0,0,1-3.039,1.011,8.661,8.661,0,0,1-.9.1C101.68,92.435,100.466,94.445,102.2,96.026Z" transform="translate(0 -0.071)" style="fill:#5c121c"/><path d="M46.72,147.993a103.7,103.7,0,0,1,.493-10.365c-.025-.028-.058-.054-.081-.082-2.626-3.18,1.092-19.963,5.224-26.339,2.664-4.11,7.912-6.245,11.314-7.247-.081-.135-.126-.216-.126-.216,1.3-10.836,12.139-7.768,13.169-9.454.639-1.046-6.174-11.351-8.208-22.269H36.831a8.042,8.042,0,0,0-8.042,8.043v67.929Z" transform="translate(0 -0.071)" style="fill:#5c121c"/><path d="M122.369,147.993a34.565,34.565,0,0,1-4.069-4.947c.005-.022.007-.042.011-.064a13.914,13.914,0,0,1-3.065,5.011Z" transform="translate(0 -0.071)" style="fill:#5c121c"/><path d="M133.756,153.846c-4.538-.431-8.319-2.8-11.387-5.853h-7.123a28.228,28.228,0,0,1-2.4,2.383c-.04.051-.073.1-.109.152-.123,1.374-1.172,12.405.076,19.068l-.4.47h15.583a8.149,8.149,0,0,0,8-7.588c.009-.153.046-.3.046-.454v-8.187A11.2,11.2,0,0,1,133.756,153.846Z" transform="translate(0 -0.071)" style="fill:#ffefd3"/><path d="M57.41,164.463c-8.636,3.8-10.613-6.622-10.69-16.47H28.789v14.031a8.041,8.041,0,0,0,8.042,8.042h23.2c.61-.779.957-3.929,1.057-7.726A22.732,22.732,0,0,1,57.41,164.463Z" transform="translate(0 -0.071)" style="fill:#ffefd3"/><path d="M64.664,135.607a.121.121,0,0,1-.031-.029c-.1,0-.1-.019-.106-.131-.088-.12-.152-.235-.006-.136,0-.029,0-.043,0-.079a18.905,18.905,0,0,1,1.413-8.785l-.185.015c-.024-.3-.092-1.749.686-2.337a4.254,4.254,0,0,0-.733-.954l.813-.816a5.33,5.33,0,0,1,.833,1.065,32.514,32.514,0,0,1,4.441-6.306c.3-.319.453-.25.773.052s-.176.435-.478.755a32.994,32.994,0,0,0-4.493,6.256,1.1,1.1,0,0,1,.023.211.872.872,0,0,1-.475.648c-.05.1-.1.2-.148.3a3.177,3.177,0,0,0-.094,1.042l-.4.031a16.71,16.71,0,0,0-1.544,8.6c.018.15.035.254.04.34.053-.047.12-.112.184-.173.031-.135.01-.2.091-.086,2.57-2.479,12.651-13.442,13.67-16.076,1.132-2.949-3.188-4.862-4.416-6.712a3.684,3.684,0,0,1-.4-.881c-6.252-1-9.766-6.329-10.445-7.458-3.4,1-8.65,3.137-11.314,7.247-4.132,6.376-7.85,23.159-5.224,26.339.023.028.056.054.081.082.264-2.78.536-4.6.536-4.6C53.121,130.713,64.2,135.719,64.664,135.607Zm2.464-4.988a2.067,2.067,0,0,0-.235,1.331l-1.148.089c-.024-.3-.092-1.748.686-2.336a4.254,4.254,0,0,0-.733-.954l.813-.816c.458.456,1.21,1.326,1.1,2.033A.876.876,0,0,1,67.128,130.619Zm9.587-13.453c.458.456,1.21,1.326,1.1,2.033a.876.876,0,0,1-.482.653,2.067,2.067,0,0,0-.235,1.331l-1.148.089c-.024-.3-.092-1.748.685-2.336a4.216,4.216,0,0,0-.732-.954Zm-3.882,6.792a2.073,2.073,0,0,0-.236,1.332l-1.148.088c-.024-.3-.092-1.748.686-2.336a4.254,4.254,0,0,0-.733-.954l.813-.816c.458.456,1.21,1.326,1.1,2.033A.87.87,0,0,1,72.833,123.958Zm-15.558-.97a2.073,2.073,0,0,0-.236,1.332l-1.148.089c-.024-.3-.092-1.749.686-2.337a4.254,4.254,0,0,0-.733-.954l.813-.816c.458.456,1.21,1.327,1.1,2.033A.872.872,0,0,1,57.275,122.988Zm3.1,7a2.07,2.07,0,0,0-.235,1.332L59,131.406c-.024-.3-.092-1.749.686-2.337a4.254,4.254,0,0,0-.733-.954l.813-.816c.458.456,1.21,1.327,1.1,2.033A.874.874,0,0,1,60.379,129.985ZM71.254,111.5c.458.456,1.21,1.326,1.1,2.033a.876.876,0,0,1-.482.653,2.068,2.068,0,0,0-.235,1.332l-1.148.088c-.024-.3-.092-1.748.685-2.336a4.216,4.216,0,0,0-.732-.954Zm-3.04,5.249c.458.456,1.21,1.326,1.1,2.033a.872.872,0,0,1-.481.653,2.067,2.067,0,0,0-.235,1.331l-1.149.089c-.023-.3-.092-1.748.686-2.336a4.254,4.254,0,0,0-.733-.954Zm-3.423-9.641c.458.456,1.21,1.326,1.1,2.033a.874.874,0,0,1-.481.653,2.066,2.066,0,0,0-.236,1.332l-1.148.088c-.024-.3-.092-1.748.686-2.336a4.254,4.254,0,0,0-.733-.954Zm-.906,7.035a.876.876,0,0,1,.812,0c.142.073.742-.193,1.214-.594l.748.876c-.229.2-1.358,1.1-2.292.822a4.273,4.273,0,0,0-.339,1.154l-1.138-.176C62.989,115.592,63.249,114.472,63.885,114.145Zm-.578,4.639a.876.876,0,0,1-.482.653,2.067,2.067,0,0,0-.235,1.331l-1.148.089c-.024-.3-.092-1.748.685-2.336a4.216,4.216,0,0,0-.732-.954l.813-.816C62.666,117.207,63.418,118.077,63.307,118.784Zm-4.779-9.774c.644.057,1.779.244,2.146.857a.875.875,0,0,1,.049.81c-.063.147.241.729.672,1.173l-.825.8c-.212-.216-1.191-1.284-.97-2.234a4.3,4.3,0,0,0-1.174-.263Zm-1.341,5.208a.874.874,0,0,1,.41.7c.01.159.544.541,1.129.743l-.373,1.09c-.286-.1-1.642-.608-1.874-1.554a4.222,4.222,0,0,0-1.166.3l-.428-1.069C55.485,114.182,56.582,113.836,57.187,114.218Zm-2.45-5.055c.458.456,1.21,1.327,1.1,2.033a.877.877,0,0,1-.482.654,2.065,2.065,0,0,0-.235,1.331l-1.148.089c-.024-.3-.092-1.749.686-2.337a4.254,4.254,0,0,0-.733-.954ZM52.05,116.2c.458.456,1.21,1.326,1.1,2.033a.877.877,0,0,1-.481.653,2.066,2.066,0,0,0-.236,1.332l-1.148.088c-.024-.3-.092-1.748.686-2.336a4.254,4.254,0,0,0-.733-.954Zm0,8.6c.458.456,1.21,1.326,1.1,2.032a.877.877,0,0,1-.481.654,2.065,2.065,0,0,0-.236,1.331l-1.148.089c-.024-.3-.092-1.749.686-2.337a4.3,4.3,0,0,0-.733-.954Z" transform="translate(0 -0.071)" style="fill:#fff"/><path d="M114.8,130.844a16.56,16.56,0,0,0,.631,1.89C115.243,132.249,115.019,131.59,114.8,130.844Z" transform="translate(0 -0.071)" style="fill:#fff"/><path d="M112.266,150.046l.008-.088.066-.058c8.662-7.564,5.18-11.563,3.348-14.825-.284-.506-.623-1.194-.846-1.624-1.642-3.171-2.291-14.643-2.353-15.126.01.077.661,5.031,1.556,9.344a16.208,16.208,0,0,1,8.117-1.646c-.007-.027-.016-.069-.021-.081s-.012-.028,0,0c.029.046.122.136.338.1,0,0-1.3-7.875-2.984-13.957a22.26,22.26,0,0,0-5.85-3.638c-1.464,6.662-7.277,11.729-10.241,13.931a1.272,1.272,0,0,1-2.021-.858L99.568,107.55c-.559,2.12-1.784,3.849-4.311,4.021a12.667,12.667,0,0,1-7.608-2.467c-.479-.318-.918-.644-1.335-.967l-.049-.036q-.784.514-1.543.944c5.194,6.948,1.289,11.417,1.289,11.417-2.464,17.328-14.853,34.932-24.922,41.878-.1,3.8-.447,6.947-1.057,7.726H82.226c-.086-.291-.453-1.692.186-2.428a4.241,4.241,0,0,0-.915-.781l.626-.967c.543.351,1.459,1.046,1.5,1.76a.873.873,0,0,1-.335.739,2.066,2.066,0,0,0,.046,1.351l-1.105.326h30.182C111.081,162.979,112.253,150.183,112.266,150.046Zm7.856-26.088a2.068,2.068,0,0,0-.235,1.332l-1.148.088c-.024-.3-.092-1.748.685-2.336a4.216,4.216,0,0,0-.732-.954l.813-.816c.458.456,1.21,1.326,1.1,2.033A.874.874,0,0,1,120.122,123.958Zm-1.089-9.6c.458.456,1.21,1.326,1.1,2.033a.874.874,0,0,1-.481.653,2.065,2.065,0,0,0-.236,1.331l-1.148.089c-.024-.3-.092-1.748.686-2.336a4.254,4.254,0,0,0-.733-.954Zm-2.563,7.136a2.068,2.068,0,0,0-.235,1.332l-1.148.088c-.024-.3-.092-1.748.685-2.336a4.216,4.216,0,0,0-.732-.954l.813-.816c.458.456,1.21,1.326,1.1,2.033A.876.876,0,0,1,116.47,121.49Zm-1.436-10.746c.459.456,1.21,1.327,1.1,2.033a.872.872,0,0,1-.481.653,2.068,2.068,0,0,0-.235,1.332l-1.149.089c-.023-.3-.091-1.749.686-2.337a4.254,4.254,0,0,0-.733-.954Zm-23.01,53.008-1.105.325c-.086-.29-.453-1.691.186-2.428a4.294,4.294,0,0,0-.915-.781l.626-.967c.543.351,1.459,1.047,1.5,1.761a.873.873,0,0,1-.336.739A2.076,2.076,0,0,0,92.024,163.752Zm-.459,4.849-1.105.325c-.086-.29-.453-1.691.186-2.428a4.269,4.269,0,0,0-.915-.781l.626-.966c.543.351,1.459,1.046,1.5,1.76a.873.873,0,0,1-.335.739A2.066,2.066,0,0,0,91.565,168.6Zm-3.208-10.7-1.105.325c-.086-.29-.453-1.692.186-2.428a4.241,4.241,0,0,0-.915-.781l.626-.967c.543.351,1.459,1.046,1.5,1.76a.875.875,0,0,1-.335.74A2.066,2.066,0,0,0,88.357,157.9Zm-.42,6.186-1.105.325c-.085-.29-.452-1.691.186-2.428a4.241,4.241,0,0,0-.915-.781l.626-.967c.543.351,1.459,1.046,1.5,1.76a.875.875,0,0,1-.335.74A2.066,2.066,0,0,0,87.937,164.087Zm-.52,5.32-1.1.325c-.086-.29-.453-1.691.185-2.428a4.257,4.257,0,0,0-.914-.781l.625-.967c.543.351,1.459,1.046,1.5,1.76a.879.879,0,0,1-.336.74A2.066,2.066,0,0,0,87.417,169.407ZM84.54,148.3a.875.875,0,0,1-.521.623,2.067,2.067,0,0,0-.316,1.314l-1.152.018c0-.3.016-1.751.828-2.29a4.224,4.224,0,0,0-.673-1l.862-.764C84,146.687,84.694,147.6,84.54,148.3Zm-5.589,20.3-1.1.325c-.086-.29-.453-1.691.185-2.428a4.26,4.26,0,0,0-.914-.781l.626-.966c.542.351,1.459,1.046,1.5,1.76a.877.877,0,0,1-.336.739A2.066,2.066,0,0,0,78.951,168.6Zm-.1-7.778a2.065,2.065,0,0,0-.317,1.314l-1.151.018c-.006-.3.015-1.751.828-2.29a4.287,4.287,0,0,0-.673-1l.862-.764c.429.483,1.126,1.4.971,2.1A.876.876,0,0,1,78.853,160.823ZM79.342,156a2.067,2.067,0,0,0-.316,1.314l-1.152.018c0-.3.016-1.75.828-2.29a4.275,4.275,0,0,0-.673-1l.862-.764c.429.483,1.126,1.4.972,2.1A.874.874,0,0,1,79.342,156Zm9.091-7.033-1.152.018c-.005-.3.016-1.751.829-2.29a4.287,4.287,0,0,0-.673-1l.861-.765c.43.484,1.127,1.4.972,2.1a.876.876,0,0,1-.52.623A2.065,2.065,0,0,0,88.433,148.968Zm2.767-1.03.626-.966c.543.35,1.459,1.046,1.5,1.76a.874.874,0,0,1-.335.739,2.066,2.066,0,0,0,.046,1.351l-1.105.325c-.086-.29-.453-1.691.186-2.428A4.269,4.269,0,0,0,91.2,147.938Zm8.887-.239.626-.967c.543.351,1.459,1.046,1.5,1.76a.875.875,0,0,1-.335.74,2.059,2.059,0,0,0,.046,1.351l-1.105.325c-.086-.29-.453-1.691.186-2.428A4.266,4.266,0,0,0,100.087,147.7Zm4.148-.805.625-.967c.543.351,1.459,1.046,1.5,1.76a.877.877,0,0,1-.336.739,2.066,2.066,0,0,0,.046,1.351l-1.1.326c-.086-.291-.453-1.692.185-2.428A4.232,4.232,0,0,0,104.235,146.894Zm7.194,3-1.1.325c-.086-.29-.453-1.691.185-2.428a4.26,4.26,0,0,0-.914-.781l.626-.966c.542.35,1.459,1.046,1.5,1.76a.878.878,0,0,1-.336.739A2.066,2.066,0,0,0,111.429,149.9Zm-.856,8.045-1.083.391c-.1-.285-.554-1.661.04-2.435a4.291,4.291,0,0,0-.96-.725l.567-1c.562.318,1.519.957,1.6,1.667a.873.873,0,0,1-.29.758A2.061,2.061,0,0,0,110.573,157.943Zm-.924,10.873-1.105.325c-.086-.29-.453-1.691.186-2.428a4.241,4.241,0,0,0-.915-.781l.626-.967c.543.351,1.459,1.046,1.5,1.76a.875.875,0,0,1-.335.74A2.066,2.066,0,0,0,109.649,168.816Zm-3.418-7.613.626-.967c.543.351,1.459,1.046,1.5,1.76a.875.875,0,0,1-.335.74,2.066,2.066,0,0,0,.046,1.351l-1.105.325c-.085-.29-.452-1.691.186-2.428A4.241,4.241,0,0,0,106.231,161.2Zm-.058-4.347-1.105.325c-.085-.29-.453-1.691.186-2.428a4.269,4.269,0,0,0-.915-.781l.626-.967c.543.351,1.459,1.046,1.5,1.76a.875.875,0,0,1-.335.74A2.066,2.066,0,0,0,106.173,156.856ZM103.417,168.6l-1.105.325c-.085-.29-.452-1.691.186-2.428a4.269,4.269,0,0,0-.915-.781l.626-.966c.543.351,1.459,1.046,1.5,1.76a.873.873,0,0,1-.335.739A2.066,2.066,0,0,0,103.417,168.6Zm-1.885-5.534-1.1.325c-.086-.29-.453-1.691.186-2.428a4.294,4.294,0,0,0-.915-.781l.626-.966c.543.351,1.459,1.046,1.5,1.76a.875.875,0,0,1-.336.739A2.066,2.066,0,0,0,101.532,163.067Zm-3.409-14.24a.875.875,0,0,1-.335.74,2.066,2.066,0,0,0,.046,1.351l-1.105.325c-.085-.29-.453-1.691.186-2.428a4.241,4.241,0,0,0-.915-.781l.626-.967C97.169,147.418,98.085,148.113,98.123,148.827Zm-.879,8.834-1.105.326c-.086-.291-.453-1.692.185-2.429a4.26,4.26,0,0,0-.914-.781l.626-.966c.542.351,1.459,1.046,1.5,1.76a.874.874,0,0,1-.336.739A2.062,2.062,0,0,0,97.244,157.661Zm-.783,3.195a.877.877,0,0,1-.336.739,2.069,2.069,0,0,0,.046,1.352l-1.1.325c-.086-.291-.453-1.692.185-2.428a4.232,4.232,0,0,0-.914-.781l.626-.967C95.506,159.447,96.422,160.142,96.461,160.856Zm-4.409-2.535c-.086-.29-.453-1.691.186-2.428a4.269,4.269,0,0,0-.915-.781l.626-.967c.543.351,1.459,1.047,1.5,1.761a.874.874,0,0,1-.335.739A2.066,2.066,0,0,0,93.157,158Zm8.42-3.568a4.269,4.269,0,0,0-.915-.781l.626-.967c.543.351,1.459,1.046,1.5,1.76a.875.875,0,0,1-.335.74,2.066,2.066,0,0,0,.046,1.351l-1.105.325C100.2,156.891,99.834,155.49,100.472,154.753Zm-4.754,10.118c.543.351,1.459,1.047,1.5,1.761a.874.874,0,0,1-.335.739,2.066,2.066,0,0,0,.046,1.351l-1.105.325c-.085-.29-.452-1.691.186-2.428a4.269,4.269,0,0,0-.915-.781ZM113.7,137.685c.563.317,1.52.954,1.6,1.664a.874.874,0,0,1-.289.759,2.066,2.066,0,0,0,.129,1.346l-1.082.392c-.1-.284-.556-1.66.036-2.435a4.271,4.271,0,0,0-.961-.723Zm-.738-5.853a.875.875,0,0,1-.29.759,2.069,2.069,0,0,0,.13,1.346l-1.083.392c-.1-.284-.556-1.66.036-2.435a4.248,4.248,0,0,0-.961-.723l.565-1C111.923,130.484,112.88,131.122,112.962,131.832Zm-2.689-9.12c.563.317,1.52.955,1.6,1.665a.875.875,0,0,1-.289.759,2.066,2.066,0,0,0,.129,1.346l-1.083.392c-.1-.284-.556-1.66.036-2.435a4.248,4.248,0,0,0-.961-.723Zm-.329,16.847a.873.873,0,0,1-.289.758,2.066,2.066,0,0,0,.129,1.346l-1.083.392c-.1-.284-.556-1.66.036-2.435a4.248,4.248,0,0,0-.961-.723l.566-1C108.905,138.211,109.862,138.848,109.944,139.559Zm-1.073-6.668a.875.875,0,0,1-.289.759,2.073,2.073,0,0,0,.129,1.346l-1.083.392c-.1-.284-.555-1.66.037-2.435a4.271,4.271,0,0,0-.961-.723l.565-1C107.832,131.543,108.79,132.181,108.871,132.891Zm-2.657-9.593c.564.317,1.521.954,1.6,1.665a.874.874,0,0,1-.29.758,2.069,2.069,0,0,0,.13,1.346l-1.083.392c-.1-.284-.556-1.66.036-2.435a4.248,4.248,0,0,0-.961-.723Zm-.36,17.319a.875.875,0,0,1-.29.759,2.069,2.069,0,0,0,.13,1.346l-1.083.392c-.1-.284-.556-1.66.036-2.435a4.248,4.248,0,0,0-.961-.723l.565-1C104.815,139.27,105.772,139.907,105.854,140.617Zm-1.041-7.14a.873.873,0,0,1-.289.758,2.066,2.066,0,0,0,.129,1.346l-1.083.392c-.1-.284-.556-1.66.037-2.435a4.271,4.271,0,0,0-.961-.723l.565-1C103.774,132.129,104.731,132.766,104.813,133.477Zm-3.395-8.525c.563.317,1.52.954,1.6,1.665a.873.873,0,0,1-.289.758,2.066,2.066,0,0,0,.129,1.346l-1.083.392c-.1-.284-.556-1.66.036-2.435a4.248,4.248,0,0,0-.961-.723ZM101.8,141.2a.873.873,0,0,1-.289.758,2.073,2.073,0,0,0,.129,1.346l-1.082.392c-.1-.284-.556-1.66.036-2.434a4.27,4.27,0,0,0-.961-.724l.565-1C100.756,139.855,101.714,140.493,101.8,141.2Zm-1.939-5.422-1.082.392c-.1-.284-.556-1.66.036-2.435a4.271,4.271,0,0,0-.961-.723l.565-1c.563.316,1.52.954,1.6,1.664a.874.874,0,0,1-.289.759A2.066,2.066,0,0,0,99.856,135.781ZM98.81,113.555c.459.456,1.21,1.327,1.1,2.033a.874.874,0,0,1-.481.654,2.063,2.063,0,0,0-.235,1.331l-1.148.089c-.024-.3-.092-1.749.685-2.337a4.245,4.245,0,0,0-.732-.954Zm-1.039,8.126c.458.456,1.21,1.326,1.1,2.033a.872.872,0,0,1-.481.653,2.073,2.073,0,0,0-.236,1.332l-1.148.088c-.023-.3-.092-1.748.686-2.336a4.254,4.254,0,0,0-.733-.954ZM97,141.4a.874.874,0,0,1-.29.758,2.073,2.073,0,0,0,.129,1.346l-1.082.392c-.1-.284-.556-1.66.036-2.435a4.248,4.248,0,0,0-.961-.723l.565-1C95.959,140.055,96.917,140.692,97,141.4Zm-1.614-8.522a2.068,2.068,0,0,0-.235,1.332L94,134.3c-.024-.3-.092-1.748.685-2.336a4.216,4.216,0,0,0-.732-.954l.813-.816c.458.456,1.21,1.326,1.1,2.033A.874.874,0,0,1,95.385,132.881Zm-1.218-17.768c.458.456,1.21,1.326,1.1,2.032a.877.877,0,0,1-.481.654,2.065,2.065,0,0,0-.236,1.331l-1.148.089c-.024-.3-.092-1.748.686-2.337a4.275,4.275,0,0,0-.733-.953Zm-1.039,8.126c.458.456,1.21,1.326,1.1,2.032a.876.876,0,0,1-.482.654,2.067,2.067,0,0,0-.235,1.331l-1.148.089c-.024-.3-.092-1.749.685-2.337a4.235,4.235,0,0,0-.732-.953Zm-.279,16.715a.877.877,0,0,1-.482.654,2.065,2.065,0,0,0-.235,1.331l-1.148.089c-.024-.3-.092-1.749.686-2.337a4.254,4.254,0,0,0-.733-.954l.813-.816C92.208,138.377,92.96,139.248,92.849,139.954Zm-2.107-5.515a2.071,2.071,0,0,0-.236,1.331l-1.148.089c-.023-.3-.092-1.748.686-2.337a4.275,4.275,0,0,0-.733-.953l.813-.816c.458.456,1.21,1.326,1.1,2.032A.872.872,0,0,1,90.742,134.439Zm-1.063-21.093c.458.456,1.21,1.326,1.1,2.033a.874.874,0,0,1-.481.653,2.066,2.066,0,0,0-.236,1.332l-1.148.088c-.024-.3-.092-1.748.686-2.336a4.254,4.254,0,0,0-.733-.954Zm-1.039,8.126c.458.456,1.21,1.326,1.1,2.033a.876.876,0,0,1-.482.653,2.068,2.068,0,0,0-.235,1.332l-1.148.088c-.024-.3-.092-1.748.686-2.336a4.254,4.254,0,0,0-.733-.954Zm-.435,20.039a.872.872,0,0,1-.481.654,2.067,2.067,0,0,0-.235,1.331l-1.149.089c-.023-.3-.091-1.748.686-2.337a4.275,4.275,0,0,0-.733-.953l.813-.816C87.564,139.935,88.316,140.805,88.205,141.511Zm-2.569-11.525c.458.456,1.21,1.326,1.1,2.033a.872.872,0,0,1-.481.653A2.073,2.073,0,0,0,86.018,134l-1.148.088c-.023-.3-.092-1.748.686-2.336a4.254,4.254,0,0,0-.733-.954Zm-3.018,7.726c.458.456,1.21,1.326,1.1,2.033a.874.874,0,0,1-.481.654A2.063,2.063,0,0,0,83,141.73l-1.149.088c-.023-.3-.091-1.748.686-2.336a4.245,4.245,0,0,0-.732-.954Zm-4.282,7.217.861-.765c.429.484,1.126,1.4.972,2.1a.872.872,0,0,1-.521.622,2.073,2.073,0,0,0-.316,1.315l-1.152.018c-.005-.3.016-1.751.828-2.29A4.246,4.246,0,0,0,78.336,144.929Zm-4.677,7.078.861-.764c.429.483,1.126,1.4.972,2.1a.874.874,0,0,1-.521.623,2.067,2.067,0,0,0-.316,1.314l-1.152.018c0-.3.016-1.751.828-2.29A4.246,4.246,0,0,0,73.659,152.007Zm-.725,12.516.861-.765c.429.484,1.126,1.4.972,2.1a.872.872,0,0,1-.521.622,2.071,2.071,0,0,0-.316,1.315l-1.152.018c-.005-.3.016-1.751.828-2.29A4.226,4.226,0,0,0,72.934,164.523Zm-.124-4.386.861-.764c.429.483,1.126,1.4.972,2.1a.875.875,0,0,1-.521.623,2.067,2.067,0,0,0-.316,1.314l-1.152.018c0-.3.016-1.751.828-2.29A4.246,4.246,0,0,0,72.81,160.137ZM68.439,158.1l.861-.765c.429.484,1.126,1.4.972,2.1a.876.876,0,0,1-.52.623,2.059,2.059,0,0,0-.317,1.314l-1.152.018c0-.3.016-1.751.828-2.29A4.246,4.246,0,0,0,68.439,158.1Zm-.236,7.694.862-.765c.429.484,1.126,1.4.972,2.1a.875.875,0,0,1-.521.623,2.065,2.065,0,0,0-.317,1.314l-1.151.018c0-.3.016-1.751.828-2.29A4.255,4.255,0,0,0,68.2,165.792Zm-4.371-2.039.862-.765c.429.483,1.126,1.4.972,2.1a.872.872,0,0,1-.521.622,2.073,2.073,0,0,0-.317,1.315l-1.151.018c-.005-.3.016-1.751.828-2.291A4.252,4.252,0,0,0,63.832,163.753Zm19.305.238-1.105.325c-.086-.29-.453-1.691.186-2.428a4.269,4.269,0,0,0-.915-.781l.626-.966c.543.351,1.459,1.046,1.5,1.76a.874.874,0,0,1-.335.739A2.066,2.066,0,0,0,83.137,163.991Zm-.533-7.927c0-.3.016-1.75.829-2.29a4.287,4.287,0,0,0-.673-1l.861-.764c.43.483,1.126,1.4.972,2.1a.875.875,0,0,1-.52.623,2.059,2.059,0,0,0-.317,1.314Z" transform="translate(0 -0.071)" style="fill:#fff"/><path d="M112.736,150.528c.036-.051.069-.1.109-.152-.037.033-.066.064-.1.1Z" transform="translate(0 -0.071)" style="fill:#fff"/><path d="M99.612,99.341c.168,1.246.766,5.141-.044,8.209l1.815,13.968a1.272,1.272,0,0,0,2.021.858c2.964-2.2,8.777-7.269,10.241-13.931.035-.156.079-.309.109-.468,1.733-9.3-8.327-9.014-11.552-11.951-1.736-1.581-.522-3.591.967-5.114a5.218,5.218,0,0,0-.9.127C99.473,92.093,99.336,97.268,99.612,99.341Z" transform="translate(0 -0.071)" style="fill:#2f2526"/><path d="M76.713,94.29c-1.03,1.686-11.869-1.382-13.169,9.454,0,0,.045.081.126.216.679,1.129,4.193,6.463,10.445,7.458a13.52,13.52,0,0,1-.2-5.017s-2.12-6.074.606-8.131c2.742-2.04,8.37.845,8.37.845.287,2.726-4.735.223-5.293,1.244-.574,1.036,4.033,4.83,4.033,4.83s1.084-3.666,2.631-2.853a1.9,1.9,0,0,1,.716,1.414c.148-.2.3-.417.442-.649.064-.1.127-.215.19-.322.1-.171.2-.343.3-.526.07-.129.14-.265.21-.4.094-.182.188-.368.281-.56.068-.14.135-.281.2-.426.1-.216.2-.44.3-.667.056-.13.113-.256.169-.389q.227-.535.447-1.1c.037-.1.074-.2.111-.3.114-.3.227-.6.338-.91.057-.158.113-.319.169-.479.091-.261.182-.524.272-.791.058-.171.115-.344.172-.517.089-.271.176-.544.263-.819.053-.167.106-.332.158-.5q.177-.576.35-1.161.075-.255.148-.511.136-.469.268-.942c.055-.2.109-.395.163-.593q.106-.387.209-.774.079-.3.156-.593c.071-.269.139-.538.207-.8q.067-.264.134-.527c.108-.434.214-.867.316-1.293,1.089-4.539,1.8-8.49,1.932-9.807.332-3.215,3.126-7.031,2.874-12.2a8.993,8.993,0,0,0-.815.627.439.439,0,0,1-.577-.662,9.851,9.851,0,0,1,1.3-.96c-.023-.186-.038-.369-.07-.559a11.8,11.8,0,0,1,3.749-10.18,9.628,9.628,0,0,1,3.859,2.976,16.416,16.416,0,0,1,2.511,3.978,21.843,21.843,0,0,0,2.079,3.4c.051.076.08.15.127.226l.084-.1s3-9.838-8.995-13.961c0,0-12.462-10.307-26.047,3.279-5.162,5.162-5.707,12.081-4.461,18.77C70.539,82.939,77.352,93.244,76.713,94.29Z" transform="translate(0 -0.071)" style="fill:#2f2526"/><path d="M84.815,103.953c-.021.027-.042.052-.063.078l.008-.009C84.778,104,84.8,103.977,84.815,103.953Z" transform="translate(0 -0.071)" style="fill:#2f2526"/><path d="M84.1,106.208l-.045-.043c.094.093.188.184.3.287l-.058-.056C84.219,106.329,84.159,106.271,84.1,106.208Z" transform="translate(0 -0.071)" style="fill:#2f2526"/><path d="M84.955,107.01l-.032-.027c-.043-.038-.074-.07-.116-.107l-.175-.16c.1.093.184.176.294.275-.127,1.084-.3,1.913-.3,1.913.037.048.063.093.1.141q.758-.429,1.543-.944l-.238-.188Q85.436,107.442,84.955,107.01Z" transform="translate(0 -0.071)" style="fill:#2f2526"/><path d="M84.441,104.4l.018-.021c-.08.088-.16.168-.24.245l.028-.025C84.312,104.534,84.377,104.469,84.441,104.4Z" transform="translate(0 -0.071)" style="fill:#2f2526"/><path d="M83.73,105.844l.044.044-.006-.007Z" transform="translate(0 -0.071)" style="fill:#2f2526"/><path d="M83.91,104.9c.012-.01.024-.022.037-.032-.074.06-.147.121-.22.173l.013-.008C83.8,104.989,83.853,104.941,83.91,104.9Z" transform="translate(0 -0.071)" style="fill:#2f2526"/><path d="M57.41,164.463a22.732,22.732,0,0,0,3.679-2.123c10.069-6.946,22.458-24.55,24.922-41.878,0,0,3.905-4.469-1.289-11.417-.036-.048-.062-.093-.1-.141l-3-3.715s-4.607-3.794-4.033-4.83c.558-1.021,5.58,1.482,5.293-1.244,0,0-5.628-2.885-8.37-.845-2.726,2.057-.606,8.131-.606,8.131a13.52,13.52,0,0,0,.2,5.017,3.684,3.684,0,0,0,.4.881c1.228,1.85,5.548,3.763,4.416,6.712-1.019,2.634-11.1,13.6-13.67,16.076.017.023.02.025.049.066.256.358-.193.763-.551,1.02l-14.128,10.47a.8.8,0,0,1-.928-1.3l15.049-9.759a.7.7,0,0,1-.089.02c-.463.112-11.543-4.894-16.915-2.582,0,0-.272,1.823-.536,4.6a103.7,103.7,0,0,0-.493,10.365C46.8,157.841,48.774,168.265,57.41,164.463Z" transform="translate(0 -0.071)" style="fill:#ffc1a4"/><path d="M65,135.428a.4.4,0,0,0,.173-.255c-.064.061-.131.126-.184.173a.443.443,0,0,1,0,.088Z" transform="translate(0 -0.071)" style="fill:#ffc1a4"/><path d="M112.736,150.528l0-.055c.038-.033.067-.064.1-.1a28.228,28.228,0,0,0,2.4-2.383,13.914,13.914,0,0,0,3.065-5.011c1.074-5.227-1.923-7.785-2.828-10.1-.018-.044-.038-.1-.056-.148a16.56,16.56,0,0,1-.631-1.89,25.958,25.958,0,0,1-.753-3.174h0c-.895-4.313-1.546-9.267-1.556-9.344.062.483.711,11.955,2.353,15.126.223.43.562,1.118.846,1.624,1.832,3.262,5.314,7.261-3.348,14.825l-.066.058-.008.088c-.013.137-1.185,12.933.142,20.021h0l.4-.47C111.564,162.933,112.613,151.9,112.736,150.528Z" transform="translate(0 -0.071)" style="fill:#e0cced"/><path d="M114.048,78.774a8.137,8.137,0,0,1-.963-.289l.989.853A2.064,2.064,0,0,1,114.048,78.774Z" transform="translate(0 -0.071)" style="fill:#ffc1a4"/><path d="M110.629,74.286c.019.217.019.444.029.666l3.23.951a24.683,24.683,0,0,1-2.905-3.882l-.217-.333a1.67,1.67,0,0,0-.581.191A11.909,11.909,0,0,1,110.629,74.286Z" transform="translate(0 -0.071)" style="fill:#ffc1a4"/><path d="M124.34,98.234c.11-5.856-2.792-15.215-3.121-16.036s-2.625-3.174-4.048-4.763a4.594,4.594,0,0,0-3.283-1.532l-2.617.007c.233.624.946,1.632,3.074,2.116a.729.729,0,0,1,.343-.251.553.553,0,0,1,.6.186,8.04,8.04,0,0,0,2.809,1.917l.255.287a20.719,20.719,0,0,1-3.465-1.511,1.07,1.07,0,0,0-.048.441,2.187,2.187,0,0,0,1.228,1.613c2.276,1.388,2.5,1.907,2.807,3.2a7,7,0,0,1-.174,2.806s-.328-1.475-.6-2.621c-.235-.989-.347-1.378-2.052-2.459l-2.432,8.278-1.97.6.386.345c3.435.223,3.573,4.807,3.582,4.853-.008-.04-.851-4.065-3.855-4.065h-.027l-.3,0-.3-1.059.52-.077-2.991-2.794a3.87,3.87,0,0,1-1.166,1.788c.164.92.326,2,.463,3.248.518,4.763,5.992,10.075,8.784,12.7.943.888,1.9,3.523,2.763,6.623,1.687,6.082,2.984,13.957,2.984,13.957s.035-.171.112.262l4.233,19.963a.8.8,0,0,1-.648.922.813.813,0,0,1-.138.012.8.8,0,0,1-.785-.66l-3.069-20.428a.609.609,0,0,0-.022-.088,16.208,16.208,0,0,0-8.117,1.646h0a25.958,25.958,0,0,0,.753,3.174c.223.746.447,1.405.631,1.89.018.047.038.1.056.148.905,2.315,3.9,4.873,2.828,10.1,0,.022-.006.042-.011.064a34.565,34.565,0,0,0,4.069,4.947c3.068,3.058,6.849,5.422,11.387,5.853a11.2,11.2,0,0,0,2.279-.009,6.008,6.008,0,0,0,3.363-1.332c4.048-3.471,1.708-12.748-.989-20.009-.816-2.2-1.663-4.207-2.374-5.815-.53-1.2-.986-2.172-1.295-2.832C132.224,118.489,124.23,104.09,124.34,98.234Zm-6.179-3.24c1.221-2.028,1.249-5.9,1.242-5.942h.074c.032.165.742,4.068-.632,6.353-1.219,2.026-1.149,6.087,1.494,7.7A6.125,6.125,0,0,1,118.161,94.994Z" transform="translate(0 -0.071)" style="fill:#ffc1a4"/><path d="M112.9,89.214l2.28-7.761-4.6-3.964a25.172,25.172,0,0,1-.4,2.659c-.135.655-.3,1.289-.452,1.9a21.653,21.653,0,0,0-.686,3.481c-.037.408-.082.818-.153,1.219l2.974,2.779Z" transform="translate(0 -0.071)" style="fill:#2e2ee5"/><path d="M113.612,89.916l2.432-8.278c-.13-.082-.247-.159-.4-.249a3.013,3.013,0,0,1-1.574-2.051l-.989-.853a4.191,4.191,0,0,1-2.43-2c-.014.33-.036.665-.069,1.007l4.6,3.964-2.28,7.761-1.033.316L108.9,86.751a6.96,6.96,0,0,1-.245.973l2.991,2.794Z" transform="translate(0 -0.071)" style="fill:#fff"/><path d="M114.353,78.849c-.108-.022-.2-.05-.3-.075a2.064,2.064,0,0,0,.026.564,3.013,3.013,0,0,0,1.574,2.051c.149.09.266.167.4.249,1.7,1.081,1.817,1.47,2.052,2.459.273,1.146.6,2.62.6,2.621a7,7,0,0,0,.174-2.806c-.308-1.3-.531-1.816-2.807-3.2a2.187,2.187,0,0,1-1.228-1.613,1.07,1.07,0,0,1,.048-.441,20.719,20.719,0,0,0,3.465,1.511l-.255-.287a8.04,8.04,0,0,1-2.809-1.917.553.553,0,0,0-.6-.186.729.729,0,0,0-.343.251c.059.013.107.031.168.043Z" transform="translate(0 -0.071)" style="fill:#f49c84"/><path d="M113.085,78.485a8.137,8.137,0,0,0,.963.289c.1.025.2.053.3.075l.16-.78c-.061-.012-.109-.03-.168-.043-2.128-.484-2.841-1.492-3.074-2.116l2.617-.007-3.23-.951q.033.744,0,1.53A4.191,4.191,0,0,0,113.085,78.485Z" transform="translate(0 -0.071)" style="fill:#f49c84"/><path d="M111.425,91.654l.3,0h.027c3,0,3.847,4.025,3.855,4.065-.009-.046-.147-4.63-3.582-4.853l-.386-.345-.52.077Z" transform="translate(0 -0.071)" style="fill:#f49c84"/><path d="M118.845,95.405c1.374-2.285.664-6.188.632-6.353H119.4c.007.038-.021,3.914-1.242,5.942a6.125,6.125,0,0,0,2.178,8.11C117.7,101.492,117.626,97.431,118.845,95.405Z" transform="translate(0 -0.071)" style="fill:#f49c84"/><path d="M122.162,126.023a.609.609,0,0,1,.022.088l3.069,20.428a.8.8,0,0,0,.785.66.813.813,0,0,0,.138-.012.8.8,0,0,0,.648-.922L122.591,126.3c-.077-.433-.112-.262-.112-.262-.216.038-.309-.052-.338-.1C122.146,125.954,122.155,126,122.162,126.023Z" transform="translate(0 -0.071)" style="fill:#f49c84"/><path d="M122.141,125.942c-.012-.028-.016-.025,0,0Z" transform="translate(0 -0.071)" style="fill:#f49c84"/><path d="M65.171,135.173a.4.4,0,0,1-.173.255l-.009.006c-.013.066-.067.107-.156.135l.006.005h-.032l-.054.012L49.7,145.346a.8.8,0,1,0,.928,1.3l14.128-10.47c.358-.257.807-.662.551-1.02-.029-.041-.032-.043-.049-.066C65.181,134.975,65.2,135.038,65.171,135.173Z" transform="translate(0 -0.071)" style="fill:#f49c84"/><path d="M97.746,90.48c.128.033.244.06.363.088.061.015.128.033.187.046a12.323,12.323,0,0,0,1.676.28h0c-1.365.759-4.567.485-6.489.338-.517-.04-.945-.07-1.216-.069a1.629,1.629,0,0,0-.207.011c-.72.106-3.587,13.894-4.412,17.929a12.667,12.667,0,0,0,7.608,2.467c2.527-.172,3.752-1.9,4.311-4.021.81-3.068.212-6.963.044-8.209-.276-2.073-.139-7.248,2.66-8.3-.022,0-.05.008-.07.014.526-.162,1.241-.561,1.779-.667a8.213,8.213,0,0,0,2.887-.949c1.357-.875,1.6-2.365,1.744-3.944a22.457,22.457,0,0,1,.7-3.551c.155-.608.315-1.238.448-1.882a19.9,19.9,0,0,0,.435-5.738,11.155,11.155,0,0,0-.572-2.85,12.385,12.385,0,0,0-.633-1.1c-.742-1.219-.846-1.428-.794-1.611a5.7,5.7,0,0,0-.323-3.908c-.02.015-.028.041-.051.052a.271.271,0,0,1-.394-.163.6.6,0,0,0-.4-.449,3.074,3.074,0,0,0-1.948.567.3.3,0,0,1-.319.015.263.263,0,0,1-.1-.115.392.392,0,0,1,.158-.471,3.97,3.97,0,0,1,2.359-.67c-.5-.884-.879-1.928-1.46-3.2a16.416,16.416,0,0,0-2.511-3.978,9.628,9.628,0,0,0-3.859-2.976A11.8,11.8,0,0,0,95.6,63.637c.032.19.047.373.07.559a7.831,7.831,0,0,1,6.484-.938.439.439,0,0,1-.3.824,7.023,7.023,0,0,0-6.094,1.109c.252,5.169-2.542,8.985-2.874,12.2-.136,1.317-.843,5.268-1.932,9.807q.42.317.838.6A19.6,19.6,0,0,0,97.746,90.48Zm9.237-7.54c-1.281.5-3.2.047-4.471-.381a7.272,7.272,0,0,1-3.587-2.614,7.958,7.958,0,0,0-.43-.7c9.245-.443,9.33-1.921,9.244-2.231-.01-.02-.012-.041-.023-.061a.31.31,0,0,1,.023.061c.552,1.147-.323,2.256-.587,3.531C106.967,81.441,107.916,82.577,106.983,82.94Zm.7-15.65c.163.654-.072,1.276-.523,1.388s-.949-.327-1.112-.981.071-1.275.522-1.388S107.523,66.636,107.686,67.29Zm-3.309-.577a.219.219,0,0,1,.271.152c.011.036,1.056,3.682,2.487,5.173a1.072,1.072,0,0,1,.33,1.044c-.325,1.27-3.138,2.191-3.457,2.291a.223.223,0,0,1-.066.011.22.22,0,0,1-.066-.429c.8-.254,2.94-1.105,3.164-1.982a.654.654,0,0,0-.221-.631c-1.508-1.57-2.549-5.2-2.593-5.358A.22.22,0,0,1,104.377,66.713Zm-5.23-.242c.615-.153,1.281.4,1.487,1.226a1.394,1.394,0,0,1-.738,1.78c-.615.153-1.281-.4-1.487-1.226A1.394,1.394,0,0,1,99.147,66.471Z" transform="translate(0 -0.071)" style="fill:#ffc1a4"/><path d="M99.973,90.9h0c-1.365.758-4.566.485-6.487.338C95.406,91.38,98.608,91.654,99.973,90.9Z" transform="translate(0 -0.071)" style="fill:#e5ab7a"/><path d="M91.788,87.8a19.6,19.6,0,0,0,5.958,2.685A19.6,19.6,0,0,1,91.788,87.8Z" transform="translate(0 -0.071)" style="fill:#e5ab7a"/><path d="M87.649,109.1c-.479-.318-.918-.645-1.335-.967C86.731,108.46,87.17,108.786,87.649,109.1Z" transform="translate(0 -0.071)" style="fill:#e5ab7a"/><path d="M98.3,90.614c-.059-.013-.126-.031-.187-.046C98.17,90.583,98.237,90.6,98.3,90.614Z" transform="translate(0 -0.071)" style="fill:#e5ab7a"/><path d="M86.118,101.854c.094-.182.188-.368.281-.56C86.306,101.486,86.212,101.672,86.118,101.854Z" transform="translate(0 -0.071)" style="fill:#e5ab7a"/><path d="M87.627,98.413c.114-.3.227-.6.338-.91C87.854,97.813,87.741,98.115,87.627,98.413Z" transform="translate(0 -0.071)" style="fill:#e5ab7a"/><path d="M88.578,95.716c.089-.271.176-.544.263-.819C88.754,95.172,88.667,95.445,88.578,95.716Z" transform="translate(0 -0.071)" style="fill:#e5ab7a"/><path d="M86.6,100.868c.1-.216.2-.44.3-.667C86.8,100.428,86.7,100.652,86.6,100.868Z" transform="translate(0 -0.071)" style="fill:#e5ab7a"/><path d="M88.134,97.024c.092-.261.182-.524.272-.791C88.316,96.5,88.225,96.763,88.134,97.024Z" transform="translate(0 -0.071)" style="fill:#e5ab7a"/><path d="M87.069,99.812q.227-.535.447-1.1Q87.3,99.277,87.069,99.812Z" transform="translate(0 -0.071)" style="fill:#e5ab7a"/><path d="M85.605,102.779c.1-.171.2-.343.3-.526C85.808,102.436,85.707,102.608,85.605,102.779Z" transform="translate(0 -0.071)" style="fill:#e5ab7a"/><path d="M90.634,88.491c.108-.435.214-.867.316-1.293C90.848,87.624,90.742,88.057,90.634,88.491Z" transform="translate(0 -0.071)" style="fill:#e5ab7a"/><path d="M85.415,103.1c-.146.232-.294.446-.442.649v0C85.122,103.551,85.269,103.333,85.415,103.1Z" transform="translate(0 -0.071)" style="fill:#e5ab7a"/><path d="M89.5,92.725q.136-.469.268-.942Q89.635,92.256,89.5,92.725Z" transform="translate(0 -0.071)" style="fill:#e5ab7a"/><path d="M90.293,89.823c.071-.27.139-.537.207-.8C90.432,89.285,90.364,89.554,90.293,89.823Z" transform="translate(0 -0.071)" style="fill:#e5ab7a"/><path d="M89.928,91.19c.071-.258.14-.516.209-.774Q90.035,90.8,89.928,91.19Z" transform="translate(0 -0.071)" style="fill:#e5ab7a"/><path d="M89,94.4q.178-.576.35-1.161Q89.176,93.821,89,94.4Z" transform="translate(0 -0.071)" style="fill:#e5ab7a"/><path d="M84.247,104.6l-.028.025c-.091.088-.182.166-.272.241-.013.01-.025.022-.037.032A4.313,4.313,0,0,0,84.247,104.6Z" transform="translate(0 -0.071)" style="fill:#e5ab7a"/><path d="M83.727,105.037c-.079.054-.157.1-.235.141a2.714,2.714,0,0,0,.248-.149Z" transform="translate(0 -0.071)" style="fill:#e5ab7a"/><path d="M84.441,104.4c.107-.116.213-.244.319-.377l-.008.009c-.1.122-.195.24-.293.347Z" transform="translate(0 -0.071)" style="fill:#e5ab7a"/><path d="M84.955,107.01q.481.43,1.072.9C85.637,107.6,85.272,107.3,84.955,107.01Z" transform="translate(0 -0.071)" style="fill:#e5ab7a"/><path d="M84.29,106.4l.058.056c.087.084.187.175.284.264l.175.16C84.62,106.707,84.446,106.545,84.29,106.4Z" transform="translate(0 -0.071)" style="fill:#e5ab7a"/><path d="M83.768,105.881l.006.007c.081.083.178.179.277.277l.045.043C83.975,106.09,83.864,105.98,83.768,105.881Z" transform="translate(0 -0.071)" style="fill:#e5ab7a"/><path d="M105.718,60.411c.581,1.277.959,2.321,1.46,3.2a1.006,1.006,0,0,1,.112.019,1.133,1.133,0,0,1,.742.814.386.386,0,0,1-.162.4,5.7,5.7,0,0,1,.323,3.908c-.052.183.052.392.794,1.611a12.385,12.385,0,0,1,.633,1.1,11.155,11.155,0,0,1,.572,2.85,19.9,19.9,0,0,1-.435,5.738c-.133.644-.293,1.274-.448,1.882a22.457,22.457,0,0,0-.7,3.551c-.144,1.579-.387,3.069-1.744,3.944a8.213,8.213,0,0,1-2.887.949c-.538.106-1.253.505-1.779.667.02-.006.048-.009.07-.014a5.218,5.218,0,0,1,.9-.127,8.661,8.661,0,0,0,.9-.1,8.523,8.523,0,0,0,3.039-1.011,3.709,3.709,0,0,0,.38-.294,3.87,3.87,0,0,0,1.166-1.788,6.96,6.96,0,0,0,.245-.973c.071-.4.116-.811.153-1.219a21.653,21.653,0,0,1,.686-3.481c.156-.614.317-1.248.452-1.9a25.172,25.172,0,0,0,.4-2.659c.033-.342.055-.677.069-1.007q.036-.786,0-1.53c-.01-.222-.01-.449-.029-.666a11.909,11.909,0,0,0-.444-2.407c-.053-.182-.089-.378-.151-.553a10.324,10.324,0,0,0-.672-1.185,14.343,14.343,0,0,1-.737-1.29,6.088,6.088,0,0,0-.7-4.815c-.047-.076-.076-.15-.127-.226A21.843,21.843,0,0,1,105.718,60.411Z" transform="translate(0 -0.071)" style="fill:#ffeee1"/><path d="M84.1,106.208c.063.063.123.121.194.188.156.149.33.311.517.48.042.037.073.069.116.107a13.083,13.083,0,0,0,.048-3.225c-.051.07-.1.128-.156.2-.018.024-.037.046-.055.069-.106.133-.212.261-.319.377-.064.07-.129.135-.194.2a4.313,4.313,0,0,1-.337.3c-.057.045-.113.093-.17.133a2.714,2.714,0,0,1-.248.149,2.684,2.684,0,0,1-.256.139s.179.2.494.527l.038.037C83.864,105.98,83.975,106.09,84.1,106.208Z" transform="translate(0 -0.071)" style="fill:#e28c79"/><path d="M84.974,103.754l0,0a13.083,13.083,0,0,1-.048,3.225l.032.027c.317.286.682.592,1.072.9l.238.188.049.036c.417.322.856.649,1.335.967.825-4.035,3.692-17.823,4.412-17.929a1.629,1.629,0,0,1,.207-.011c.271,0,.7.029,1.216.069,1.921.147,5.122.42,6.487-.338h0a12.323,12.323,0,0,1-1.676-.28c-.059-.013-.126-.031-.187-.046-.119-.028-.235-.055-.363-.088A19.6,19.6,0,0,1,91.788,87.8q-.418-.281-.838-.6c-.1.426-.208.858-.316,1.293q-.066.263-.134.527c-.068.268-.136.535-.207.8q-.077.3-.156.593c-.069.258-.138.516-.209.774-.054.2-.108.395-.163.593q-.13.472-.268.942-.074.257-.148.511-.173.585-.35,1.161c-.052.168-.1.333-.158.5-.087.275-.174.548-.263.819-.057.173-.114.346-.172.517-.09.267-.18.53-.272.791-.056.16-.112.321-.169.479-.111.31-.224.612-.338.91-.037.1-.074.2-.111.3q-.221.568-.447,1.1c-.056.133-.113.259-.169.389-.1.227-.2.451-.3.667-.068.145-.135.286-.2.426-.093.192-.187.378-.281.56-.07.134-.14.27-.21.4-.1.183-.2.355-.3.526-.063.107-.126.22-.19.322-.146.232-.293.45-.441.652Z" transform="translate(0 -0.071)" style="fill:#f49c84"/><path d="M101.85,64.082a.439.439,0,0,0,.3-.824,7.831,7.831,0,0,0-6.484.938,9.851,9.851,0,0,0-1.3.96.439.439,0,0,0,.577.662,8.993,8.993,0,0,1,.815-.627A7.023,7.023,0,0,1,101.85,64.082Z" transform="translate(0 -0.071)" style="fill:#2f2526"/><path d="M104.819,64.286a.392.392,0,0,0-.158.471.263.263,0,0,0,.1.115.3.3,0,0,0,.319-.015,3.074,3.074,0,0,1,1.948-.567.6.6,0,0,1,.4.449.271.271,0,0,0,.394.163c.023-.011.031-.037.051-.052a.386.386,0,0,0,.162-.4,1.133,1.133,0,0,0-.742-.814,1.006,1.006,0,0,0-.112-.019A3.97,3.97,0,0,0,104.819,64.286Z" transform="translate(0 -0.071)" style="fill:#2f2526"/><path d="M106.819,72.342a.654.654,0,0,1,.221.631c-.224.877-2.36,1.728-3.164,1.982a.22.22,0,0,0,.066.429.223.223,0,0,0,.066-.011c.319-.1,3.132-1.021,3.457-2.291a1.072,1.072,0,0,0-.33-1.044c-1.431-1.491-2.476-5.137-2.487-5.173a.219.219,0,1,0-.422.119C104.27,67.138,105.311,70.772,106.819,72.342Z" transform="translate(0 -0.071)" style="fill:#ce8f5b"/><path d="M107.739,77.016a.31.31,0,0,0-.023-.061C107.727,76.975,107.729,77,107.739,77.016Z" transform="translate(0 -0.071)" style="fill:#fff"/><path d="M107.739,77.016c.086.31,0,1.788-9.244,2.231a7.958,7.958,0,0,1,.43.7,7.272,7.272,0,0,0,3.587,2.614c1.267.428,3.19.88,4.471.381.933-.363-.016-1.5.169-2.393C107.416,79.272,108.291,78.163,107.739,77.016Z" transform="translate(0 -0.071)" style="fill:#fff"/><path d="M99.9,69.477a1.394,1.394,0,0,0,.738-1.78c-.206-.83-.872-1.379-1.487-1.226a1.394,1.394,0,0,0-.738,1.78C98.615,69.081,99.281,69.63,99.9,69.477Z" transform="translate(0 -0.071)" style="fill:#2f2526"/><path d="M106.573,66.309c-.451.113-.685.734-.522,1.388s.661,1.094,1.112.981.686-.734.523-1.388S107.025,66.2,106.573,66.309Z" transform="translate(0 -0.071)" style="fill:#2f2526"/><path d="M60.57,112.654l.825-.8c-.431-.444-.735-1.026-.672-1.173a.875.875,0,0,0-.049-.81c-.367-.613-1.5-.8-2.146-.857l-.1,1.147a4.3,4.3,0,0,1,1.174.263C59.379,111.37,60.358,112.438,60.57,112.654Z" transform="translate(0 -0.071)" style="fill:#f6ebfc"/><path d="M55.313,115.492a4.222,4.222,0,0,1,1.166-.3c.232.946,1.588,1.456,1.874,1.554l.373-1.09c-.585-.2-1.119-.584-1.129-.743a.874.874,0,0,0-.41-.7c-.6-.382-1.7-.036-2.3.2Z" transform="translate(0 -0.071)" style="fill:#f6ebfc"/><path d="M64.367,115.253c.934.282,2.063-.625,2.292-.822l-.748-.876c-.472.4-1.072.667-1.214.594a.876.876,0,0,0-.812,0c-.636.327-.9,1.447-.995,2.086l1.138.176A4.273,4.273,0,0,1,64.367,115.253Z" transform="translate(0 -0.071)" style="fill:#f6ebfc"/><path d="M64.025,111.216l1.148-.088a2.066,2.066,0,0,1,.236-1.332.874.874,0,0,0,.481-.653c.111-.707-.641-1.577-1.1-2.033l-.813.816a4.254,4.254,0,0,1,.733.954C63.933,109.468,64,110.915,64.025,111.216Z" transform="translate(0 -0.071)" style="fill:#f6ebfc"/><path d="M70.488,115.608l1.148-.088a2.068,2.068,0,0,1,.235-1.332.876.876,0,0,0,.482-.653c.111-.707-.641-1.577-1.1-2.033l-.813.816a4.216,4.216,0,0,1,.732.954C70.4,113.86,70.464,115.307,70.488,115.608Z" transform="translate(0 -0.071)" style="fill:#f6ebfc"/><path d="M67.448,120.857l1.149-.089a2.067,2.067,0,0,1,.235-1.331.872.872,0,0,0,.481-.653c.111-.707-.641-1.577-1.1-2.033l-.813.816a4.254,4.254,0,0,1,.733.954C67.356,119.109,67.425,120.556,67.448,120.857Z" transform="translate(0 -0.071)" style="fill:#f6ebfc"/><path d="M55.844,121.118a4.254,4.254,0,0,1,.733.954c-.778.588-.71,2.035-.686,2.337l1.148-.089a2.073,2.073,0,0,1,.236-1.332.872.872,0,0,0,.481-.653c.111-.706-.641-1.577-1.1-2.033Z" transform="translate(0 -0.071)" style="fill:#f6ebfc"/><path d="M51.284,120.3l1.148-.088a2.066,2.066,0,0,1,.236-1.332.877.877,0,0,0,.481-.653c.111-.707-.641-1.577-1.1-2.033l-.813.816a4.254,4.254,0,0,1,.733.954C51.192,118.554,51.26,120,51.284,120.3Z" transform="translate(0 -0.071)" style="fill:#f6ebfc"/><path d="M53.971,113.27l1.148-.089a2.065,2.065,0,0,1,.235-1.331.877.877,0,0,0,.482-.654c.111-.706-.641-1.577-1.1-2.033l-.813.816a4.254,4.254,0,0,1,.733.954C53.879,111.521,53.947,112.968,53.971,113.27Z" transform="translate(0 -0.071)" style="fill:#f6ebfc"/><path d="M62.127,118.521c-.777.588-.709,2.035-.685,2.336l1.148-.089a2.067,2.067,0,0,1,.235-1.331.876.876,0,0,0,.482-.653c.111-.707-.641-1.577-1.1-2.033l-.813.816A4.216,4.216,0,0,1,62.127,118.521Z" transform="translate(0 -0.071)" style="fill:#f6ebfc"/><path d="M66.511,122.355l-.813.816a4.254,4.254,0,0,1,.733.954c-.778.588-.71,2.035-.686,2.337l.185-.015a27.687,27.687,0,0,1,1.414-3.027A5.33,5.33,0,0,0,66.511,122.355Z" transform="translate(0 -0.071)" style="fill:#f6ebfc"/><path d="M67.61,124.388a1.1,1.1,0,0,0-.023-.211c-.155.279-.3.567-.452.859A.872.872,0,0,0,67.61,124.388Z" transform="translate(0 -0.071)" style="fill:#f6ebfc"/><path d="M66.893,126.373a3.177,3.177,0,0,1,.094-1.042c-.172.35-.336.707-.5,1.073Z" transform="translate(0 -0.071)" style="fill:#f6ebfc"/><path d="M65.7,128.749a4.254,4.254,0,0,1,.733.954c-.778.588-.71,2.034-.686,2.336l1.148-.089a2.067,2.067,0,0,1,.235-1.331.876.876,0,0,0,.482-.653c.111-.707-.641-1.577-1.1-2.033Z" transform="translate(0 -0.071)" style="fill:#f6ebfc"/><path d="M58.949,128.115a4.254,4.254,0,0,1,.733.954c-.778.588-.71,2.035-.686,2.337l1.148-.089a2.07,2.07,0,0,1,.235-1.332.874.874,0,0,0,.482-.653c.111-.706-.641-1.577-1.1-2.033Z" transform="translate(0 -0.071)" style="fill:#f6ebfc"/><path d="M51.284,128.9l1.148-.089a2.065,2.065,0,0,1,.236-1.331.877.877,0,0,0,.481-.654c.111-.706-.641-1.576-1.1-2.032l-.813.815a4.3,4.3,0,0,1,.733.954C51.192,127.151,51.26,128.6,51.284,128.9Z" transform="translate(0 -0.071)" style="fill:#f6ebfc"/><path d="M71.4,122.088a4.254,4.254,0,0,1,.733.954c-.778.588-.71,2.035-.686,2.336l1.148-.088a2.073,2.073,0,0,1,.236-1.332.87.87,0,0,0,.481-.653c.111-.707-.641-1.577-1.1-2.033Z" transform="translate(0 -0.071)" style="fill:#f6ebfc"/><path d="M75.949,121.272l1.148-.089a2.067,2.067,0,0,1,.235-1.331.876.876,0,0,0,.482-.653c.111-.707-.641-1.577-1.1-2.033l-.813.816a4.216,4.216,0,0,1,.732.954C75.857,119.524,75.925,120.971,75.949,121.272Z" transform="translate(0 -0.071)" style="fill:#f6ebfc"/><path d="M88.913,117.452l1.148-.088a2.066,2.066,0,0,1,.236-1.332.874.874,0,0,0,.481-.653c.111-.707-.641-1.577-1.1-2.033l-.813.816a4.254,4.254,0,0,1,.733.954C88.821,115.7,88.889,117.151,88.913,117.452Z" transform="translate(0 -0.071)" style="fill:#f6ebfc"/><path d="M93.4,119.219l1.148-.089a2.065,2.065,0,0,1,.236-1.331.877.877,0,0,0,.481-.654c.111-.706-.641-1.576-1.1-2.032l-.813.816a4.275,4.275,0,0,1,.733.953C93.309,117.471,93.377,118.917,93.4,119.219Z" transform="translate(0 -0.071)" style="fill:#f6ebfc"/><path d="M98.045,117.662l1.148-.089a2.063,2.063,0,0,1,.235-1.331.874.874,0,0,0,.481-.654c.111-.706-.64-1.577-1.1-2.033l-.812.816a4.245,4.245,0,0,1,.732.954C97.953,115.913,98.021,117.36,98.045,117.662Z" transform="translate(0 -0.071)" style="fill:#f6ebfc"/><path d="M87.874,125.578l1.148-.088a2.068,2.068,0,0,1,.235-1.332.876.876,0,0,0,.482-.653c.111-.707-.641-1.577-1.1-2.033l-.813.816a4.254,4.254,0,0,1,.733.954C87.782,123.83,87.85,125.277,87.874,125.578Z" transform="translate(0 -0.071)" style="fill:#f6ebfc"/><path d="M92.362,127.345l1.148-.089a2.067,2.067,0,0,1,.235-1.331.876.876,0,0,0,.482-.654c.111-.706-.641-1.576-1.1-2.032l-.813.816a4.235,4.235,0,0,1,.732.953C92.27,125.6,92.338,127.043,92.362,127.345Z" transform="translate(0 -0.071)" style="fill:#f6ebfc"/><path d="M97.005,125.787l1.148-.088a2.073,2.073,0,0,1,.236-1.332.872.872,0,0,0,.481-.653c.111-.707-.641-1.577-1.1-2.033l-.813.816a4.254,4.254,0,0,1,.733.954C96.913,124.039,96.982,125.486,97.005,125.787Z" transform="translate(0 -0.071)" style="fill:#f6ebfc"/><path d="M101.777,129.113l1.083-.392a2.066,2.066,0,0,1-.129-1.346.873.873,0,0,0,.289-.758c-.082-.711-1.039-1.348-1.6-1.665l-.566,1a4.248,4.248,0,0,1,.961.723C101.221,127.453,101.674,128.829,101.777,129.113Z" transform="translate(0 -0.071)" style="fill:#f6ebfc"/><path d="M106.574,127.459l1.083-.392a2.069,2.069,0,0,1-.13-1.346.874.874,0,0,0,.29-.758c-.082-.711-1.039-1.348-1.6-1.665l-.565,1a4.248,4.248,0,0,1,.961.723C106.018,125.8,106.47,127.175,106.574,127.459Z" transform="translate(0 -0.071)" style="fill:#f6ebfc"/><path d="M110.632,126.874l1.083-.392a2.066,2.066,0,0,1-.129-1.346.875.875,0,0,0,.289-.759c-.082-.71-1.039-1.348-1.6-1.665l-.566,1a4.248,4.248,0,0,1,.961.723C110.076,125.214,110.529,126.59,110.632,126.874Z" transform="translate(0 -0.071)" style="fill:#f6ebfc"/><path d="M84.87,134.092,86.018,134a2.073,2.073,0,0,1,.236-1.332.872.872,0,0,0,.481-.653c.111-.707-.641-1.577-1.1-2.033l-.813.816a4.254,4.254,0,0,1,.733.954C84.778,132.344,84.847,133.791,84.87,134.092Z" transform="translate(0 -0.071)" style="fill:#f6ebfc"/><path d="M89.311,132.569a4.275,4.275,0,0,1,.733.953c-.778.589-.709,2.035-.686,2.337l1.148-.089a2.071,2.071,0,0,1,.236-1.331.872.872,0,0,0,.481-.654c.111-.706-.641-1.576-1.1-2.032Z" transform="translate(0 -0.071)" style="fill:#f6ebfc"/><path d="M93.955,131.011a4.216,4.216,0,0,1,.732.954c-.777.588-.709,2.035-.685,2.336l1.148-.088a2.068,2.068,0,0,1,.235-1.332.874.874,0,0,0,.482-.653c.111-.707-.641-1.577-1.1-2.033Z" transform="translate(0 -0.071)" style="fill:#f6ebfc"/><path d="M100.016,133.676c-.082-.71-1.039-1.348-1.6-1.664l-.565,1a4.271,4.271,0,0,1,.961.723c-.592.775-.14,2.151-.036,2.435l1.082-.392a2.066,2.066,0,0,1-.129-1.346A.874.874,0,0,0,100.016,133.676Z" transform="translate(0 -0.071)" style="fill:#f6ebfc"/><path d="M103.607,133.538c-.593.775-.14,2.151-.037,2.435l1.083-.392a2.066,2.066,0,0,1-.129-1.346.873.873,0,0,0,.289-.758c-.082-.711-1.039-1.348-1.6-1.665l-.565,1A4.271,4.271,0,0,1,103.607,133.538Z" transform="translate(0 -0.071)" style="fill:#f6ebfc"/><path d="M106.7,132.23a4.271,4.271,0,0,1,.961.723c-.592.775-.14,2.151-.037,2.435l1.083-.392a2.073,2.073,0,0,1-.129-1.346.875.875,0,0,0,.289-.759c-.081-.71-1.039-1.348-1.6-1.665Z" transform="translate(0 -0.071)" style="fill:#f6ebfc"/><path d="M110.794,131.171a4.248,4.248,0,0,1,.961.723c-.592.775-.14,2.151-.036,2.435l1.083-.392a2.069,2.069,0,0,1-.13-1.346.875.875,0,0,0,.29-.759c-.082-.71-1.039-1.348-1.6-1.665Z" transform="translate(0 -0.071)" style="fill:#f6ebfc"/><path d="M81.852,141.818,83,141.73a2.063,2.063,0,0,1,.235-1.331.874.874,0,0,0,.481-.654c.111-.707-.641-1.577-1.1-2.033l-.812.816a4.245,4.245,0,0,1,.732.954C81.761,140.07,81.829,141.517,81.852,141.818Z" transform="translate(0 -0.071)" style="fill:#f6ebfc"/><path d="M87.026,141.248c-.777.589-.709,2.035-.686,2.337l1.149-.089a2.067,2.067,0,0,1,.235-1.331.872.872,0,0,0,.481-.654c.111-.706-.641-1.576-1.1-2.032l-.813.816A4.275,4.275,0,0,1,87.026,141.248Z" transform="translate(0 -0.071)" style="fill:#f6ebfc"/><path d="M91.67,139.691c-.778.588-.71,2.035-.686,2.337l1.148-.089a2.065,2.065,0,0,1,.235-1.331.877.877,0,0,0,.482-.654c.111-.706-.641-1.577-1.1-2.033l-.813.816A4.254,4.254,0,0,1,91.67,139.691Z" transform="translate(0 -0.071)" style="fill:#f6ebfc"/><path d="M94.831,140.741a4.248,4.248,0,0,1,.961.723c-.592.775-.14,2.151-.036,2.435l1.082-.392a2.073,2.073,0,0,1-.129-1.346A.874.874,0,0,0,97,141.4c-.082-.711-1.04-1.348-1.6-1.665Z" transform="translate(0 -0.071)" style="fill:#f6ebfc"/><path d="M100.589,141.265c-.592.774-.14,2.15-.036,2.434l1.082-.392a2.073,2.073,0,0,1-.129-1.346.873.873,0,0,0,.289-.758c-.081-.71-1.039-1.348-1.6-1.665l-.565,1A4.27,4.27,0,0,1,100.589,141.265Z" transform="translate(0 -0.071)" style="fill:#f6ebfc"/><path d="M103.686,139.956a4.248,4.248,0,0,1,.961.723c-.592.775-.14,2.151-.036,2.435l1.083-.392a2.069,2.069,0,0,1-.13-1.346.875.875,0,0,0,.29-.759c-.082-.71-1.039-1.347-1.6-1.664Z" transform="translate(0 -0.071)" style="fill:#f6ebfc"/><path d="M107.776,138.9a4.248,4.248,0,0,1,.961.723c-.592.775-.139,2.151-.036,2.435l1.083-.392a2.066,2.066,0,0,1-.129-1.346.873.873,0,0,0,.289-.758c-.082-.711-1.039-1.348-1.6-1.665Z" transform="translate(0 -0.071)" style="fill:#f6ebfc"/><path d="M114.1,139.411c-.592.775-.14,2.151-.036,2.435l1.082-.392a2.066,2.066,0,0,1-.129-1.346.874.874,0,0,0,.289-.759c-.082-.71-1.039-1.347-1.6-1.664l-.565,1A4.271,4.271,0,0,1,114.1,139.411Z" transform="translate(0 -0.071)" style="fill:#f6ebfc"/><path d="M78.18,148.216l1.152-.018a2.073,2.073,0,0,1,.316-1.315.872.872,0,0,0,.521-.622c.154-.7-.543-1.613-.972-2.1l-.861.765a4.246,4.246,0,0,1,.672,1C78.2,146.465,78.175,147.913,78.18,148.216Z" transform="translate(0 -0.071)" style="fill:#f6ebfc"/><path d="M82.706,146.968a4.224,4.224,0,0,1,.673,1c-.812.539-.833,1.987-.828,2.29l1.152-.018a2.067,2.067,0,0,1,.316-1.314.875.875,0,0,0,.521-.623c.154-.7-.543-1.613-.972-2.1Z" transform="translate(0 -0.071)" style="fill:#f6ebfc"/><path d="M89.27,147.031c.155-.7-.542-1.613-.972-2.1l-.861.765a4.287,4.287,0,0,1,.673,1c-.813.539-.834,1.987-.829,2.29l1.152-.018a2.065,2.065,0,0,1,.317-1.314A.876.876,0,0,0,89.27,147.031Z" transform="translate(0 -0.071)" style="fill:#f6ebfc"/><path d="M92.115,148.719c-.639.737-.272,2.138-.186,2.428l1.105-.325a2.066,2.066,0,0,1-.046-1.351.874.874,0,0,0,.335-.739c-.038-.714-.954-1.41-1.5-1.76l-.626.966A4.269,4.269,0,0,1,92.115,148.719Z" transform="translate(0 -0.071)" style="fill:#f6ebfc"/><path d="M96.626,147.067l-.626.967a4.241,4.241,0,0,1,.915.781c-.639.737-.271,2.138-.186,2.428l1.105-.325a2.066,2.066,0,0,1-.046-1.351.875.875,0,0,0,.335-.74C98.085,148.113,97.169,147.418,96.626,147.067Z" transform="translate(0 -0.071)" style="fill:#f6ebfc"/><path d="M101,148.48c-.639.737-.272,2.138-.186,2.428l1.105-.325a2.059,2.059,0,0,1-.046-1.351.875.875,0,0,0,.335-.74c-.038-.714-.954-1.409-1.5-1.76l-.626.967A4.266,4.266,0,0,1,101,148.48Z" transform="translate(0 -0.071)" style="fill:#f6ebfc"/><path d="M104.964,150.1l1.1-.326a2.066,2.066,0,0,1-.046-1.351.877.877,0,0,0,.336-.739c-.039-.714-.955-1.409-1.5-1.76l-.625.967a4.232,4.232,0,0,1,.914.781C104.511,148.411,104.878,149.812,104.964,150.1Z" transform="translate(0 -0.071)" style="fill:#f6ebfc"/><path d="M111.719,147.808c-.038-.714-.955-1.41-1.5-1.76l-.626.966a4.26,4.26,0,0,1,.914.781c-.638.737-.271,2.138-.185,2.428l1.1-.325a2.066,2.066,0,0,1-.046-1.351A.878.878,0,0,0,111.719,147.808Z" transform="translate(0 -0.071)" style="fill:#f6ebfc"/><path d="M73.5,155.294l1.152-.018a2.067,2.067,0,0,1,.316-1.314.874.874,0,0,0,.521-.623c.154-.7-.543-1.613-.972-2.1l-.861.764a4.246,4.246,0,0,1,.672,1C73.519,153.543,73.5,154.992,73.5,155.294Z" transform="translate(0 -0.071)" style="fill:#f6ebfc"/><path d="M79.863,155.378c.154-.7-.543-1.613-.972-2.1l-.862.764a4.275,4.275,0,0,1,.673,1c-.812.54-.833,1.988-.828,2.29l1.152-.018A2.067,2.067,0,0,1,79.342,156,.874.874,0,0,0,79.863,155.378Z" transform="translate(0 -0.071)" style="fill:#f6ebfc"/><path d="M84.073,154.732a.875.875,0,0,0,.52-.623c.154-.7-.542-1.613-.972-2.1l-.861.764a4.287,4.287,0,0,1,.673,1c-.813.54-.834,1.988-.829,2.29l1.152-.018A2.059,2.059,0,0,1,84.073,154.732Z" transform="translate(0 -0.071)" style="fill:#f6ebfc"/><path d="M88.646,155.81c-.038-.714-.954-1.409-1.5-1.76l-.626.967a4.241,4.241,0,0,1,.915.781c-.639.736-.272,2.138-.186,2.428l1.105-.325a2.066,2.066,0,0,1-.046-1.351A.875.875,0,0,0,88.646,155.81Z" transform="translate(0 -0.071)" style="fill:#f6ebfc"/><path d="M93.111,156.645a.874.874,0,0,0,.335-.739c-.038-.714-.954-1.41-1.5-1.761l-.626.967a4.269,4.269,0,0,1,.915.781c-.639.737-.272,2.138-.186,2.428l1.1-.325A2.066,2.066,0,0,1,93.111,156.645Z" transform="translate(0 -0.071)" style="fill:#f6ebfc"/><path d="M97.533,155.571c-.038-.714-.955-1.409-1.5-1.76l-.626.966a4.26,4.26,0,0,1,.914.781c-.638.737-.271,2.138-.185,2.429l1.105-.326a2.062,2.062,0,0,1-.047-1.351A.874.874,0,0,0,97.533,155.571Z" transform="translate(0 -0.071)" style="fill:#f6ebfc"/><path d="M101.391,156.856a2.066,2.066,0,0,1-.046-1.351.875.875,0,0,0,.335-.74c-.038-.714-.954-1.409-1.5-1.76l-.626.967a4.269,4.269,0,0,1,.915.781c-.638.737-.271,2.138-.186,2.428Z" transform="translate(0 -0.071)" style="fill:#f6ebfc"/><path d="M106.462,154.765c-.038-.714-.954-1.409-1.5-1.76l-.626.967a4.269,4.269,0,0,1,.915.781c-.639.737-.271,2.138-.186,2.428l1.105-.325a2.066,2.066,0,0,1-.046-1.351A.875.875,0,0,0,106.462,154.765Z" transform="translate(0 -0.071)" style="fill:#f6ebfc"/><path d="M68.283,161.385l1.152-.018a2.059,2.059,0,0,1,.317-1.314.876.876,0,0,0,.52-.623c.154-.7-.543-1.613-.972-2.1l-.861.765a4.246,4.246,0,0,1,.672,1C68.3,159.634,68.278,161.082,68.283,161.385Z" transform="translate(0 -0.071)" style="fill:#f6ebfc"/><path d="M72.654,163.424l1.152-.018a2.067,2.067,0,0,1,.316-1.314.875.875,0,0,0,.521-.623c.154-.7-.543-1.613-.972-2.1l-.861.764a4.246,4.246,0,0,1,.672,1C72.67,161.673,72.649,163.121,72.654,163.424Z" transform="translate(0 -0.071)" style="fill:#f6ebfc"/><path d="M78.4,158.1l-.862.764a4.287,4.287,0,0,1,.673,1c-.813.539-.834,1.987-.828,2.29l1.151-.018a2.065,2.065,0,0,1,.317-1.314.876.876,0,0,0,.52-.623C79.528,159.5,78.831,158.587,78.4,158.1Z" transform="translate(0 -0.071)" style="fill:#f6ebfc"/><path d="M83.426,161.9c-.038-.714-.954-1.409-1.5-1.76l-.626.966a4.269,4.269,0,0,1,.915.781c-.639.737-.272,2.138-.186,2.428l1.105-.325a2.066,2.066,0,0,1-.046-1.351A.874.874,0,0,0,83.426,161.9Z" transform="translate(0 -0.071)" style="fill:#f6ebfc"/><path d="M88.226,162c-.038-.714-.954-1.409-1.5-1.76l-.626.967a4.241,4.241,0,0,1,.915.781c-.638.737-.271,2.138-.186,2.428l1.105-.325a2.066,2.066,0,0,1-.046-1.351A.875.875,0,0,0,88.226,162Z" transform="translate(0 -0.071)" style="fill:#f6ebfc"/><path d="M92.313,161.662c-.038-.714-.954-1.41-1.5-1.761l-.626.967a4.294,4.294,0,0,1,.915.781c-.639.737-.272,2.138-.186,2.428l1.105-.325a2.076,2.076,0,0,1-.047-1.351A.873.873,0,0,0,92.313,161.662Z" transform="translate(0 -0.071)" style="fill:#f6ebfc"/><path d="M94.338,160.063a4.232,4.232,0,0,1,.914.781c-.638.736-.271,2.137-.185,2.428l1.1-.325a2.069,2.069,0,0,1-.046-1.352.877.877,0,0,0,.336-.739c-.039-.714-.955-1.409-1.5-1.76Z" transform="translate(0 -0.071)" style="fill:#f6ebfc"/><path d="M101.822,160.977c-.038-.714-.954-1.409-1.5-1.76l-.626.966a4.294,4.294,0,0,1,.915.781c-.639.737-.272,2.138-.186,2.428l1.1-.325a2.066,2.066,0,0,1-.046-1.351A.875.875,0,0,0,101.822,160.977Z" transform="translate(0 -0.071)" style="fill:#f6ebfc"/><path d="M103.706,166.511c-.038-.714-.954-1.409-1.5-1.76l-.626.966a4.269,4.269,0,0,1,.915.781c-.638.737-.271,2.138-.186,2.428l1.105-.325a2.066,2.066,0,0,1-.046-1.351A.873.873,0,0,0,103.706,166.511Z" transform="translate(0 -0.071)" style="fill:#f6ebfc"/><path d="M109.938,166.725c-.038-.714-.954-1.409-1.5-1.76l-.626.967a4.241,4.241,0,0,1,.915.781c-.639.737-.272,2.138-.186,2.428l1.105-.325a2.066,2.066,0,0,1-.046-1.351A.875.875,0,0,0,109.938,166.725Z" transform="translate(0 -0.071)" style="fill:#f6ebfc"/><path d="M106.96,164.412l1.105-.325a2.066,2.066,0,0,1-.046-1.351.875.875,0,0,0,.335-.74c-.038-.714-.954-1.409-1.5-1.76l-.626.967a4.241,4.241,0,0,1,.915.781C106.508,162.721,106.875,164.122,106.96,164.412Z" transform="translate(0 -0.071)" style="fill:#f6ebfc"/><path d="M110.736,155.839c-.08-.71-1.037-1.349-1.6-1.667l-.567,1a4.291,4.291,0,0,1,.96.725c-.594.774-.144,2.15-.04,2.435l1.083-.391a2.061,2.061,0,0,1-.127-1.346A.873.873,0,0,0,110.736,155.839Z" transform="translate(0 -0.071)" style="fill:#f6ebfc"/><path d="M63.677,167.04l1.151-.018a2.073,2.073,0,0,1,.317-1.315.872.872,0,0,0,.521-.622c.154-.7-.543-1.614-.972-2.1l-.862.765a4.252,4.252,0,0,1,.673,1C63.693,165.289,63.672,166.737,63.677,167.04Z" transform="translate(0 -0.071)" style="fill:#f6ebfc"/><path d="M68.048,169.079l1.151-.018a2.065,2.065,0,0,1,.317-1.314.875.875,0,0,0,.521-.623c.154-.7-.543-1.613-.972-2.1l-.862.765a4.255,4.255,0,0,1,.673,1C68.064,167.328,68.043,168.776,68.048,169.079Z" transform="translate(0 -0.071)" style="fill:#f6ebfc"/><path d="M72.778,167.81l1.152-.018a2.071,2.071,0,0,1,.316-1.315.872.872,0,0,0,.521-.622c.154-.7-.543-1.613-.972-2.1l-.861.765a4.226,4.226,0,0,1,.672,1C72.794,166.059,72.773,167.507,72.778,167.81Z" transform="translate(0 -0.071)" style="fill:#f6ebfc"/><path d="M79.241,166.511c-.038-.714-.955-1.409-1.5-1.76l-.626.966a4.26,4.26,0,0,1,.914.781c-.638.737-.271,2.138-.185,2.428l1.1-.325a2.066,2.066,0,0,1-.046-1.351A.877.877,0,0,0,79.241,166.511Z" transform="translate(0 -0.071)" style="fill:#f6ebfc"/><path d="M83.331,169.741a2.066,2.066,0,0,1-.046-1.351.873.873,0,0,0,.335-.739c-.038-.714-.954-1.409-1.5-1.76l-.626.967a4.241,4.241,0,0,1,.915.781c-.639.736-.272,2.137-.186,2.428Z" transform="translate(0 -0.071)" style="fill:#f6ebfc"/><path d="M87.707,167.316c-.039-.714-.955-1.409-1.5-1.76l-.625.967a4.257,4.257,0,0,1,.914.781c-.638.737-.271,2.138-.185,2.428l1.1-.325a2.066,2.066,0,0,1-.046-1.351A.879.879,0,0,0,87.707,167.316Z" transform="translate(0 -0.071)" style="fill:#f6ebfc"/><path d="M91.854,166.511c-.038-.714-.954-1.409-1.5-1.76l-.626.966a4.269,4.269,0,0,1,.915.781c-.639.737-.272,2.138-.186,2.428l1.105-.325a2.066,2.066,0,0,1-.046-1.351A.873.873,0,0,0,91.854,166.511Z" transform="translate(0 -0.071)" style="fill:#f6ebfc"/><path d="M96.007,166.619c-.638.737-.271,2.138-.186,2.428l1.105-.325a2.066,2.066,0,0,1-.046-1.351.874.874,0,0,0,.335-.739c-.038-.714-.954-1.41-1.5-1.761l-.626.967A4.269,4.269,0,0,1,96.007,166.619Z" transform="translate(0 -0.071)" style="fill:#f6ebfc"/><path d="M114.268,114.851l1.149-.089a2.068,2.068,0,0,1,.235-1.332.872.872,0,0,0,.481-.653c.111-.706-.64-1.577-1.1-2.033l-.813.816a4.254,4.254,0,0,1,.733.954C114.177,113.1,114.245,114.549,114.268,114.851Z" transform="translate(0 -0.071)" style="fill:#f6ebfc"/><path d="M118.267,118.46l1.148-.089a2.065,2.065,0,0,1,.236-1.331.874.874,0,0,0,.481-.653c.111-.707-.641-1.577-1.1-2.033l-.813.816a4.254,4.254,0,0,1,.733.954C118.175,116.712,118.243,118.159,118.267,118.46Z" transform="translate(0 -0.071)" style="fill:#f6ebfc"/><path d="M115.04,119.62a4.216,4.216,0,0,1,.732.954c-.777.588-.709,2.035-.685,2.336l1.148-.088a2.068,2.068,0,0,1,.235-1.332.876.876,0,0,0,.482-.653c.111-.707-.641-1.577-1.1-2.033Z" transform="translate(0 -0.071)" style="fill:#f6ebfc"/><path d="M118.692,122.088a4.216,4.216,0,0,1,.732.954c-.777.588-.709,2.035-.685,2.336l1.148-.088a2.068,2.068,0,0,1,.235-1.332.874.874,0,0,0,.482-.653c.111-.707-.641-1.577-1.1-2.033Z" transform="translate(0 -0.071)" style="fill:#f6ebfc"/><path d="M84.926,106.991c-.11-.1-.194-.182-.294-.275s-.2-.18-.284-.264c-.109-.1-.2-.194-.3-.287s-.2-.194-.277-.277l-.044-.044c-.315-.324-.494-.527-.494-.527a2.684,2.684,0,0,0,.256-.139c.078-.044.156-.087.235-.141s.146-.113.22-.173c.09-.075.181-.153.272-.241s.16-.157.24-.245c.1-.107.2-.225.293-.347.021-.026.042-.051.063-.078.052-.067.105-.125.156-.2l0,0h0v0a1.9,1.9,0,0,0-.716-1.414c-1.547-.813-2.631,2.853-2.631,2.853l3,3.715S84.8,108.075,84.926,106.991Z" transform="translate(0 -0.071)" style="fill:#e28c79"/><path d="M64.839,135.574l-.006-.005c.089-.028.143-.069.156-.135a.443.443,0,0,0,0-.088c0-.086-.022-.19-.04-.34a16.71,16.71,0,0,1,1.544-8.6c.16-.366.324-.723.5-1.073.049-.1.1-.2.148-.3.148-.292.3-.58.452-.859a32.994,32.994,0,0,1,4.493-6.256c.3-.32.8-.452.478-.755s-.471-.371-.773-.052a32.514,32.514,0,0,0-4.441,6.306,27.687,27.687,0,0,0-1.414,3.027,18.905,18.905,0,0,0-1.413,8.785c0,.036,0,.05,0,.079-.146-.1-.082.016.006.136,0,.112.006.132.106.131a.121.121,0,0,0,.031.029.7.7,0,0,0,.089-.02l.054-.012Z" transform="translate(0 -0.071)" style="fill:#e0cced"/><polyline points="132.194 73.265 183.593 48.827 206.523 52.802" style="fill:none;stroke:#8e0000;stroke-miterlimit:10;stroke-dasharray:5"/></svg>