<svg width="40" height="40" viewBox="0 0 40 40" fill="none" xmlns="http://www.w3.org/2000/svg">
<rect width="40" height="40" rx="20" fill="#E6EEFF"/>
<path fill-rule="evenodd" clip-rule="evenodd" d="M12 12.5V14.5H20V15.5H11C9.34315 15.5 8 16.8431 8 18.5V24.5C8 26.1569 9.34315 27.5 11 27.5H23C24.5731 27.5 25.8634 26.2892 25.9898 24.7487L32 25.5V17.5L25.9898 18.2513C25.8634 16.7108 24.5731 15.5 23 15.5H22V13.5C22 12.9477 21.5523 12.5 21 12.5H12ZM26 20.2656V22.7344L30 23.2344V19.7656L26 20.2656ZM24 18.5C24 17.9477 23.5523 17.5 23 17.5H11C10.4477 17.5 10 17.9477 10 18.5V24.5C10 25.0523 10.4477 25.5 11 25.5H23C23.5523 25.5 24 25.0523 24 24.5V18.5Z" fill="#3998FB"/>
</svg>
