<svg width="40" height="40" viewBox="0 0 40 40" fill="none" xmlns="http://www.w3.org/2000/svg">
<rect width="40" height="40" rx="20" fill="#FFE7EF"/>
<path fill-rule="evenodd" clip-rule="evenodd" d="M22.7381 27.9964C22.8187 27.9988 22.8996 28 22.9807 28C27.399 28 30.9807 24.4183 30.9807 20C30.9807 15.5817 27.399 12 22.9807 12C20.4543 12 18.2015 13.1711 16.7353 15H15.5195C11.9297 15 9.01953 17.9101 9.01953 21.5C9.01953 25.0899 11.9297 28 15.5195 28H22.5195C22.5927 28 22.6656 27.9988 22.7381 27.9964ZM24.6914 25.721C27.0416 24.9522 28.9807 22.6815 28.9807 20C28.9807 16.6863 26.2944 14 22.9807 14C19.667 14 16.9807 16.6863 16.9807 20H14.9807C14.9807 18.9391 15.1872 17.9264 15.5622 17H15.5195C13.0342 17 11.0195 19.0147 11.0195 21.5C11.0195 23.9853 13.0342 26 15.5195 26H22.5195C23.0693 26 23.9042 25.9014 24.6914 25.721Z" fill="#ED5B8C"/>
</svg>
